<?xml version="1.0" encoding="UTF-8"?>
<!DOCTYPE svg PUBLIC "-//W3C//DTD SVG 1.1//EN" "http://www.w3.org/Graphics/SVG/1.1/DTD/svg11.dtd">
<svg xmlns="http://www.w3.org/2000/svg">
<symbol id="icon-analytics" viewBox="0 0 24 24">
    <path fill="#92929D" d="M5.81 20.605H3.395V2.698a.698.698 0 00-1.395 0v18.604c0 .386.312.698.698.698h18.604a.698.698 0 000-1.395h-2.16v-6.7a.476.476 0 00-.475-.476h-2.858a.476.476 0 00-.476.476v6.7h-.952v-10.51a.476.476 0 00-.476-.476h-2.857a.476.476 0 00-.477.476v10.51H9.62V5.333a.476.476 0 00-.476-.476H6.286a.476.476 0 00-.476.476v15.272z"/>
</symbol>
<symbol id="icon-eye" viewBox="0 0 24 24">
    <path fill="#92929D" fill-rule="evenodd" d="M2.11 11.438C3.954 6.907 7.76 4 12 4s8.046 2.908 9.89 7.438c.147.36.147.764 0 1.124C20.046 17.093 16.24 20 12 20s-8.046-2.908-9.89-7.438a1.493 1.493 0 010-1.124zM12 18.15c3.419 0 6.554-2.363 8.15-6.15-1.596-3.787-4.731-6.15-8.15-6.15-3.42 0-6.554 2.363-8.15 6.15 1.596 3.787 4.73 6.15 8.15 6.15zm0-2.504c-1.979 0-3.583-1.632-3.583-3.646 0-2.014 1.604-3.646 3.583-3.646S15.583 9.986 15.583 12c0 2.014-1.604 3.646-3.583 3.646zm0-1.85c.975 0 1.765-.804 1.765-1.796s-.79-1.796-1.765-1.796c-.975 0-1.765.804-1.765 1.796s.79 1.796 1.765 1.796z" clip-rule="evenodd"/>
</symbol>
<symbol id="icon-home" viewBox="0 0 24 24">
    <path fill="#92929D" fill-rule="evenodd" d="M18 10.006l-6-5.4-6 5.4v9.105c0 .368.298.667.667.667h1.555v-2.472c0-1.583 1.296-2.862 2.89-2.862h1.777c1.593 0 2.889 1.28 2.889 2.862v2.472h1.555A.667.667 0 0018 19.11v-9.105zm2.222 9.105A2.889 2.889 0 0117.333 22h-2.666a1.111 1.111 0 01-1.111-1.111v-3.583c0-.35-.296-.64-.667-.64H11.11a.654.654 0 00-.667.64v3.583c0 .614-.497 1.111-1.11 1.111H6.666a2.889 2.889 0 01-2.89-2.889v-7.11a1.111 1.111 0 01-1.41-1.716l8.89-8a1.111 1.111 0 011.486 0l8.89 8A1.111 1.111 0 0120.222 12v7.111z" clip-rule="evenodd"/>
</symbol>
<symbol id="icon-video" viewBox="0 0 24 24">
    <path fill="#92929D" fill-rule="evenodd" d="M5.7 3h12.6C20.34 3 22 4.639 22 6.667v10.666C22 19.361 20.34 21 18.3 21H5.7C3.66 21 2 19.361 2 17.333V6.667C2 4.639 3.66 3 5.7 3zm0 2C4.758 5 4 5.749 4 6.667v10.666C4 18.251 4.758 19 5.7 19h12.6c.942 0 1.7-.749 1.7-1.667V6.667C20 5.749 19.242 5 18.3 5H5.7zm5.511 11.694c-.692.573-1.657.307-2.045-.462A1.577 1.577 0 019 15.523V8.477C9 7.708 9.552 7 10.372 7c.31 0 .604.111.84.306l4.255 3.523c.546.451.68 1.256.367 1.88-.09.177-.213.335-.367.462l-4.256 3.523zM11 9.727v4.546L13.745 12 11 9.727z" clip-rule="evenodd"/>
</symbol>
<symbol id="icon-student" viewBox="0 0 24 24">
    <path fill="#92929D" fill-rule="evenodd" d="M12.401 2.176l8.337 4.667c.86.481.944 1.653.252 2.269v7.805c.904.967 1.389 1.79 1.389 2.526a2.325 2.325 0 01-2.316 2.333 2.325 2.325 0 01-2.316-2.333c0-.737.486-1.559 1.39-2.526v-6.73l-.463.259v5.191c0 .34-.124.67-.347.925-1.331 1.523-3.544 2.238-6.601 2.238s-5.27-.715-6.6-2.238a1.406 1.406 0 01-.347-.925v-5.191L2.715 9.29c-.953-.533-.953-1.914 0-2.447l8.337-4.667a1.38 1.38 0 011.35 0zm-8.058 5.89l7.383 4.133 7.383-4.132-7.383-4.133-7.383 4.133zm15.454 10.987c-.142.221-.197.366-.197.39 0 .258.207.467.463.467a.465.465 0 00.463-.467c0-.024-.055-.169-.197-.39a4.54 4.54 0 00-.266-.369 4.518 4.518 0 00-.266.37zm-8.071-4.9c.392 0 .78-.1 1.125-.293l3.97-2.222v3.816c-.943.968-2.623 1.48-5.095 1.48-2.472 0-4.152-.512-5.095-1.48v-3.816l3.97 2.222a2.3 2.3 0 001.125.294z" clip-rule="evenodd"/>
</symbol>
<symbol id="icon-message" viewBox="0 0 24 24">
    <path fill="#92929D" fill-rule="evenodd" d="M21.783 22.976a1 1 0 001.193-1.193l-1.097-4.94A10.959 10.959 0 0023 12c0-6.075-4.925-11-11-11S1 5.925 1 12s4.925 11 11 11c1.702 0 3.35-.388 4.844-1.121l4.94 1.097zm-1.84-6.739a1 1 0 00-.095.689l.835 3.757-3.757-.835a1 1 0 00-.689.094A8.955 8.955 0 0112 21a9 9 0 119-9c0 1.5-.366 2.945-1.058 4.237z" clip-rule="evenodd"/>
    <path fill="#92929D" fill-rule="evenodd" d="M9 14a2 2 0 100-4 2 2 0 000 4zM15 14a2 2 0 100-4 2 2 0 000 4z" clip-rule="evenodd"/>
</symbol>
<symbol id="icon-setting" viewBox="0 0 24 24">
    <path fill="#92929D" fill-rule="evenodd" d="M12 15.632c2.022 0 3.66-1.626 3.66-3.632 0-2.006-1.638-3.632-3.66-3.632-2.022 0-3.66 1.626-3.66 3.632 0 2.006 1.638 3.632 3.66 3.632zm0-2c-.908 0-1.645-.73-1.645-1.632 0-.901.737-1.632 1.645-1.632s1.645.73 1.645 1.632c0 .901-.737 1.632-1.645 1.632z" clip-rule="evenodd"/>
    <path fill="#92929D" fill-rule="evenodd" d="M9.094 3.34A2.964 2.964 0 0112 1c1.404 0 2.616.976 2.906 2.34l.056.265a8.974 8.974 0 012.888 1.652l.257-.084A2.98 2.98 0 0121.602 6.5a2.93 2.93 0 01-.589 3.666l-.202.18a8.817 8.817 0 01-.002 3.307l.204.18a2.93 2.93 0 01.59 3.667 2.98 2.98 0 01-3.496 1.327l-.258-.084a9.007 9.007 0 01-2.887 1.654l-.056.264A2.964 2.964 0 0112 23a2.964 2.964 0 01-2.906-2.34l-.056-.265a8.973 8.973 0 01-2.888-1.652l-.257.084A2.98 2.98 0 012.398 17.5a2.93 2.93 0 01.589-3.666l.202-.18a8.817 8.817 0 01.001-3.307l-.203-.18a2.93 2.93 0 01-.59-3.667 2.98 2.98 0 013.496-1.327l.258.084a9.008 9.008 0 012.887-1.654l.056-.264zM12 3c-.45 0-.84.313-.933.751l-.178.837c-.077.367-.355.66-.72.759A6.992 6.992 0 007.108 7.1a1.014 1.014 0 01-1.022.24l-.82-.266a.957.957 0 00-1.122.426.94.94 0 00.189 1.177l.644.573c.28.25.397.636.301.998a6.834 6.834 0 00-.001 3.504.995.995 0 01-.302 1l-.642.57a.94.94 0 00-.19 1.178.957.957 0 001.123.426l.82-.266c.359-.116.754-.024 1.023.24a6.954 6.954 0 003.06 1.75c.364.1.642.393.72.76l.178.839A.952.952 0 0012 21c.45 0 .84-.313.933-.751l.178-.837c.077-.367.355-.66.72-.759a6.995 6.995 0 003.061-1.753 1.014 1.014 0 011.022-.24l.82.266a.957.957 0 001.122-.426.94.94 0 00-.189-1.177l-.644-.573a.995.995 0 01-.301-.998 6.833 6.833 0 00.001-3.504.995.995 0 01.302-1l.642-.57a.94.94 0 00.19-1.178.957.957 0 00-1.123-.426l-.82.266c-.359.116-.754.024-1.023-.24a6.954 6.954 0 00-3.06-1.75 1.003 1.003 0 01-.72-.76l-.178-.839A.952.952 0 0012 3z" clip-rule="evenodd"/>
</symbol>
<symbol id="icon-edit" viewBox="0 0 18 18">
    <path fill="#92929D" fill-rule="evenodd" d="M13.396 5.697l.836-.836-1.843-1.843-.836.836 1.843 1.843zM12.34 6.752L10.498 4.91l-6.894 6.894-.424 2.267 2.267-.424 6.894-6.894zm2.99-2.902a1.43 1.43 0 010 2.022L6.34 14.864a.746.746 0 01-.39.206l-3.565.667a.746.746 0 01-.87-.87L2.18 11.3a.746.746 0 01.206-.39l8.992-8.992a1.43 1.43 0 012.021 0l1.932 1.931zm-.324 11.9H8.993c-.99 0-.99-1.5 0-1.5h6.014c.99 0 .99 1.5 0 1.5z" clip-rule="evenodd"/>
</symbol>
<symbol id="icon-arrow-down" viewBox="0 0 12 7">
    <path fill="#92929D" fill-rule="evenodd" d="M6 4.586L10.293.293a1 1 0 111.414 1.414l-5 5a1 1 0 01-1.414 0l-5-5A1 1 0 011.707.293L6 4.586z" clip-rule="evenodd"/>
</symbol>
<symbol id="icon-star" viewBox="0 0 26 25">
    <path fill="#92929D" d="M7.555 22.832L7 22l.555.832zM6.01 21.86l-.99-.142.99.142zm.93-6.505l.99.141L8 15l-.354-.354-.707.708zm-4.647-4.647L3 10l-.707.707zm.565-1.697L3 10l-.142-.99zm6.444-.92l.142.99L10 9l.221-.517-.919-.393zm2.779-6.484l-.92-.394.92.394zm1.838 0l-.92.394.92-.394zm2.779 6.484l-.92.393L16 9l.556.08.142-.99zm6.443.92L23 10l.141-.99zm.566 1.697L23 10l.707.707zm-4.646 4.647l-.708-.708L18 15l.07.495.99-.141zm.929 6.505L19 22l.99-.141zm-1.545.973L19 22l-.555.832zM13 19.202l.555-.832L13 18l-.555.37.555.832zM7 22l-1.98-.283c-.244 1.712 1.65 2.906 3.09 1.947L7 22zm0 0l.93-6.505-1.98-.283-.93 6.505L7 22zm.646-7.354L3 10l-1.414 1.414 4.646 4.647 1.414-1.415zM3 10l-.283-1.98C1.086 8.253.42 10.25 1.586 11.414L3 10zm0 0l6.444-.92L9.16 7.1l-6.444.92L3 10zm7.221-1.517L13 2l-1.838-.788-2.779 6.484 1.838.787zM13 2l1.838-.788c-.692-1.616-2.984-1.616-3.676 0L13 2zm0 0l2.778 6.483 1.839-.787-2.779-6.484L13 2zm3.556 7.08L23 10l.283-1.98-6.444-.92-.283 1.98zM23 10l1.414 1.414c1.165-1.165.5-3.16-1.131-3.394L23 10zm0 0l-4.647 4.646 1.415 1.415 4.646-4.647L23 10zm-4.93 5.495L19 22l1.98-.283-.93-6.505-1.98.283zM19 22l-1.11 1.664c1.439.96 3.334-.235 3.09-1.947L19 22zm0 0l-5.445-3.63-1.11 1.664 5.445 3.63L19 22zm-6.555-3.63L7 22l1.11 1.664 5.445-3.63-1.11-1.664z"/>
</symbol>
<symbol id="icon-starred" viewBox="0 0 24 24">
    <path fill="url(#paint0_linear)" fill-rule="evenodd" d="M6.555 22.832c-.72.48-1.667-.118-1.545-.973l.93-6.505-4.647-4.647a1 1 0 01.565-1.697l6.444-.92 2.779-6.484c.346-.808 1.492-.808 1.838 0l2.779 6.484 6.443.92a1 1 0 01.566 1.697l-4.646 4.647.929 6.505c.122.855-.826 1.452-1.545.973L12 19.202l-5.445 3.63z" clip-rule="evenodd"/>
    <defs>
        <linearGradient id="paint0_linear" x1="12" x2="12" y1="1" y2="23.003" gradientUnits="userSpaceOnUse">
        <stop stop-color="#369AFF"/>
        <stop offset="1" stop-color="#0340FF"/>
        </linearGradient>
    </defs>
</symbol>
<symbol id="icon-close" viewBox="0 0 20 20">
    <path fill="#fff" fill-rule="evenodd" d="M11.176 10l4.398 4.402a.833.833 0 11-1.18 1.178l-4.397-4.402-4.408 4.401A.833.833 0 114.41 14.4L8.82 9.999l-4.406-4.41a.833.833 0 011.18-1.178l4.405 4.41 4.397-4.39a.833.833 0 011.178 1.18L11.176 10z" clip-rule="evenodd"/>
</symbol>
<symbol id="icon-info" viewBox="0 0 24 24">
    <path fill="#fff" d="M11 8v5a1 1 0 102 0V8a1 1 0 10-2 0zM13 16a1 1 0 11-2 0 1 1 0 012 0z"/>
    <path fill="#fff" fill-rule="evenodd" d="M22 12c0 5.523-4.477 10-10 10S2 17.523 2 12 6.477 2 12 2s10 4.477 10 10zM4 12a8 8 0 1016 0 8 8 0 00-16 0z" clip-rule="evenodd"/>
</symbol>
<symbol id="icon-link" viewBox="0 0 24 24">
    <path fill="#92929D" fill-rule="evenodd" d="M19.153 5.985l-1.138-1.138a2.209 2.209 0 00-3.124 0l-2.844 2.844a2.21 2.21 0 000 3.125l.152.151-1.232 1.232-.152-.152a2.209 2.209 0 00-3.124 0l-2.844 2.845a2.209 2.209 0 000 3.123l1.138 1.138a2.209 2.209 0 003.124 0l2.844-2.844a2.21 2.21 0 000-3.124l-.137-.138 1.231-1.231.138.137a2.209 2.209 0 003.124 0l2.844-2.844a2.21 2.21 0 000-3.124zm-5.257 4.982l.137.138a1.009 1.009 0 001.427 0l2.844-2.845a1.009 1.009 0 000-1.427l-1.137-1.137a1.009 1.009 0 00-1.427 0L12.895 8.54a1.009 1.009 0 000 1.427l.152.152.936-.936a.583.583 0 01.848 0 .583.583 0 010 .849l-.935.935zm-3.778 2.08l-.935.936a.583.583 0 000 .849.583.583 0 00.848 0l.936-.936.137.137a1.009 1.009 0 010 1.427L8.26 18.305a1.009 1.009 0 01-1.427 0l-1.138-1.138a1.009 1.009 0 010-1.427l2.845-2.844a1.009 1.009 0 011.427 0l.151.151z" clip-rule="evenodd"/>
</symbol>
<symbol id="icon-play" viewBox="0 0 21 24">
    <path fill="#fff" d="M17.961 10.264c1.344.767 1.344 2.705 0 3.473L2.992 22.29C1.66 23.052 0 22.09 0 20.554V3.446C0 1.911 1.659.948 2.992 1.71l14.97 8.553z"/>
</symbol>
<symbol id="icon-upload" viewBox="0 0 26 26">
    <path fill="#92929D" fill-rule="evenodd" d="M12.5 2a5.505 5.505 0 015.337 4.172A5.51 5.51 0 0122 11.518a5.507 5.507 0 01-4.89 5.476 1 1 0 01-.22-1.988A3.507 3.507 0 0020 11.518c0-1.8-1.36-3.304-3.13-3.49a1 1 0 01-.89-.89A3.504 3.504 0 0012.5 4a3.504 3.504 0 00-3.481 3.142 1 1 0 01-1.11.89A3.505 3.505 0 004 11.518a3.507 3.507 0 003.11 3.488 1 1 0 11-.22 1.988A5.507 5.507 0 012 11.518a5.506 5.506 0 015.204-5.502A5.505 5.505 0 0112.5 2z" clip-rule="evenodd"/>
    <path fill="#92929D" d="M10.61 11.335l.39-.3v10.508a1 1 0 102 0V11.035l.39.3a1 1 0 101.22-1.584l-1.982-1.53a.991.991 0 00-.581-.22 1.01 1.01 0 00-.675.22L9.39 9.751a1 1 0 101.222 1.584z"/>
</symbol>
<symbol id="icon-save-circle" viewBox="0 0 20 20">
    <path fill="#0340FF" fill-rule="evenodd" d="M10 .833a9.167 9.167 0 110 18.334A9.167 9.167 0 0110 .833zM10 2.5a7.5 7.5 0 100 15 7.5 7.5 0 000-15z" clip-rule="evenodd"/>
    <path fill="#0340FF" d="M7.253 9.399l1.892 1.868 3.546-4.297a.833.833 0 011.286 1.06l-4.126 5a.833.833 0 01-1.228.063l-2.541-2.508a.833.833 0 111.17-1.186z"/>
</symbol>
<symbol id="icon-plus" viewBox="0 0 24 24">
    <path fill-rule="evenodd" clip-rule="evenodd" d="M13 11H20C20.5523 11 21 11.4477 21 12C21 12.5523 20.5523 13 20 13H13V20C13 20.5523 12.5523 21 12 21C11.4477 21 11 20.5523 11 20V13H4C3.44772 13 3 12.5523 3 12C3 11.4477 3.44772 11 4 11H11V4C11 3.44772 11.4477 3 12 3C12.5523 3 13 3.44772 13 4V11Z" fill="white"/>
</symbol>
<symbol id="icon-photos" viewBox="0 0 24 24">
    <path fill="#92929D" fill-rule="evenodd" d="M23 15.06V19a4 4 0 01-4 4H5a4 4 0 01-4-4V5a4 4 0 014-4h14a4 4 0 014 4v9.94a.99.99 0 010 .12zm-2 .352l-4-3.998-3.78 3.78L18.445 21H19a2 2 0 002-2v-3.588zm0-2.827V5a2 2 0 00-2-2H5a2 2 0 00-2 2v11.586l5.293-5.293a1 1 0 011.45.038l2.137 2.375 4.413-4.413a1 1 0 011.414 0L21 12.585zM15.755 21l-6.793-7.548-5.926 5.926A2 2 0 005 21h10.755zM8.5 9a2.5 2.5 0 110-5 2.5 2.5 0 010 5zm0-2a.5.5 0 100-1 .5.5 0 000 1z" clip-rule="evenodd"/>
</symbol>
<symbol id="icon-list" viewBox="0 0 18 18">
    <path fill="#fff" d="M3.75 4.5h10.5a.75.75 0 000-1.5H3.75a.75.75 0 000 1.5zM3.75 15h10.5a.75.75 0 000-1.5H3.75a.75.75 0 000 1.5zM14.25 9.75H3.75a.75.75 0 010-1.5h10.5a.75.75 0 010 1.5z"/>
</symbol>
<symbol id="icon-fullscreen" viewBox="0 0 31 30">
    <path fill="#92929D" d="M22.47 4.726a1.052 1.052 0 010-2.104h1.403a3.857 3.857 0 013.858 3.857v1.403a1.052 1.052 0 11-2.104 0V6.479c0-.968-.785-1.753-1.754-1.753h-1.402zM11.25 8.583h8.415c1.162 0 2.104.942 2.104 2.104v8.416a2.104 2.104 0 01-2.104 2.104H11.25a2.104 2.104 0 01-2.104-2.104v-8.416c0-1.162.942-2.104 2.104-2.104zM26.679 20.857c-.581 0-1.052.47-1.052 1.052v1.402c0 .969-.785 1.754-1.754 1.754h-1.402a1.052 1.052 0 000 2.104h1.402a3.857 3.857 0 003.858-3.858V21.91c0-.581-.471-1.052-1.052-1.052zM8.43 25.065a1.052 1.052 0 110 2.104H7.042a3.857 3.857 0 01-3.857-3.858V21.91a1.052 1.052 0 012.104 0v1.402c0 .969.785 1.754 1.753 1.754h1.39zM4.236 8.86c.58 0 1.052-.471 1.052-1.053V6.48c0-.968.785-1.753 1.753-1.753h1.368a1.052 1.052 0 100-2.104H7.04a3.857 3.857 0 00-3.857 3.857v1.328c0 .582.47 1.053 1.052 1.053z"/>
</symbol>
<symbol id="icon-close-circle" viewBox="0 0 24 24">
    <path fill="#92929D" fill-rule="evenodd" d="M12 1c6.075 0 11 4.925 11 11s-4.925 11-11 11S1 18.075 1 12 5.925 1 12 1zm0 2a9 9 0 100 18 9 9 0 000-18zm-1.586 8.828l-2.121-2.12a1 1 0 011.414-1.415l2.121 2.121 2.122-2.121a1 1 0 011.414 1.414l-2.121 2.121 2.121 2.122a1 1 0 01-1.414 1.414l-2.122-2.121-2.12 2.121a1 1 0 01-1.415-1.414l2.121-2.122z" clip-rule="evenodd"/>
</symbol>
<symbol id="icon-trash" viewBox="0 0 20 21">
    <path fill-rule="evenodd" clip-rule="evenodd" d="M6.38544 3.94537L6.9455 2.26222C7.05893 1.92134 7.37738 1.69141 7.73607 1.69141H12.2361C12.5948 1.69141 12.9132 1.92134 13.0266 2.26222L13.5867 3.94537H17.486C17.9463 3.94537 18.3194 4.31912 18.3194 4.78017C18.3194 5.24122 17.9463 5.61497 17.486 5.61497H16.7718L16.1603 16.0301C16.0825 17.3538 14.9883 18.3874 13.6646 18.3874H6.30758C4.98389 18.3874 3.88963 17.3538 3.8119 16.0301L3.20032 5.61497H2.49935C2.03911 5.61497 1.66602 5.24122 1.66602 4.78017C1.66602 4.31912 2.03911 3.94537 2.49935 3.94537H6.38544ZM8.14226 3.94537H11.8299L11.6354 3.36101H8.33671L8.14226 3.94537ZM15.1023 5.61497H4.86987L5.47569 15.9321C5.5016 16.3733 5.86635 16.7178 6.30758 16.7178H13.6646C14.1058 16.7178 14.4706 16.3733 14.4965 15.9321L15.1023 5.61497ZM11.4044 7.73339C11.4331 7.27324 11.8287 6.92352 12.2881 6.95228C12.7474 6.98104 13.0965 7.37738 13.0678 7.83753L12.6928 13.8481C12.6641 14.3083 12.2684 14.658 11.8091 14.6292C11.3498 14.6004 11.0007 14.2041 11.0294 13.744L11.4044 7.73339ZM8.94278 13.744C8.97149 14.2041 8.6224 14.6004 8.16306 14.6292C7.70371 14.658 7.30807 14.3083 7.27936 13.8481L6.90436 7.83753C6.87565 7.37738 7.22475 6.98104 7.68409 6.95228C8.14343 6.92352 8.53908 7.27324 8.56778 7.73339L8.94278 13.744Z" fill="#DB0000"/>
</symbol>
<symbol id="icon-check" viewBox="0 0 24 24">
    <path fill="#fff" fill-rule="evenodd" d="M4.704 11.972a1 1 0 00-1.408 1.421l4.826 4.768a1 1 0 001.46-.057l11.174-11.45a1 1 0 00-1.512-1.308L8.769 15.986l-4.065-4.014z" clip-rule="evenodd"/>
</symbol>
<symbol id="icon-search" width="28" height="24" viewBox="0 0 28 24" fill="none" xmlns="http://www.w3.org/2000/svg">
<path fill-rule="evenodd" clip-rule="evenodd" d="M5.70018 0H22.5002C25.2211 0 27.4335 2.1851 27.4335 4.88889V19.1111C27.4335 21.8149 25.2211 24 22.5002 24H5.70018C2.97926 24 0.766846 21.8149 0.766846 19.1111V4.88889C0.766846 2.1851 2.97926 0 5.70018 0ZM5.70018 2.66667C4.44465 2.66667 3.43351 3.66532 3.43351 4.88889V19.1111C3.43351 20.3347 4.44465 21.3333 5.70018 21.3333H22.5002C23.7557 21.3333 24.7668 20.3347 24.7668 19.1111V4.88889C24.7668 3.66532 23.7557 2.66667 22.5002 2.66667H5.70018ZM13.0489 18.2586C12.1257 19.0228 10.8387 18.6677 10.3221 17.6422C10.175 17.3503 10.1002 17.0249 10.1002 16.6974V7.30255C10.1002 6.27732 10.8366 5.33333 11.9295 5.33333C12.3431 5.33333 12.735 5.48143 13.0489 5.74128L18.7234 10.4387C19.4505 11.0406 19.6305 12.113 19.2116 12.9448C19.0926 13.1809 18.9282 13.3917 18.7234 13.5612L13.0489 18.2586ZM12.7668 8.96963V15.0303L16.4275 12L12.7668 8.96963Z" fill="url(#paint0_linear)"/>
<defs>
<linearGradient id="paint0_linear" x1="14.1002" y1="0" x2="14.1002" y2="24" gradientUnits="userSpaceOnUse">
<stop stop-color="#2276FF"/>
<stop offset="1" stop-color="#0340FF"/>
</linearGradient>
</defs>
</symbol>

</svg>
