<svg xmlns="http://www.w3.org/2000/svg" width="34" height="33" fill="none" viewBox="0 0 34 33">
  <path fill="#0340FF" d="M23.835 14.6a9.199 9.199 0 00-6.497 15.707A9.2 9.2 0 0033.04 23.8a9.213 9.213 0 00-9.205-9.2zm5.406 9.2a5.406 5.406 0 11-10.812.011A5.406 5.406 0 0129.24 23.8zM32.418.494a1.908 1.908 0 00-1.463-.485 1.948 1.948 0 00-1.714 1.953v.382a.438.438 0 00.438.438h2.923a.438.438 0 00.438-.438v-.445a1.904 1.904 0 00-.622-1.405z"/>
  <path fill="#0340FF" d="M32.601 3.282H29.68a.438.438 0 00-.438.439v26.242c0 .076.02.15.056.215l1.461 2.598a.438.438 0 00.764 0l1.461-2.598a.437.437 0 00.057-.215V3.721a.438.438 0 00-.439-.439zM23.835 29.2H3.82V18.4h9.866a1.9 1.9 0 100-3.8H3.82V3.8h12.71a1.9 1.9 0 000-3.8H1.92a1.933 1.933 0 00-.74.15A1.904 1.904 0 00.02 1.9v29.2a1.902 1.902 0 001.9 1.9h21.915a1.9 1.9 0 100-3.8h.001z"/>
</svg>
