<svg xmlns="http://www.w3.org/2000/svg" width="379" height="221" fill="none" viewBox="0 0 379 221">
  <g filter="url(#filter0_d)">
    <path fill="#011A6E" d="M230 117.5a90.503 90.503 0 01-55.867 83.611A90.499 90.499 0 0189.221 42.252 90.501 90.501 0 01230 117.5"/>
  </g>
  <g filter="url(#filter1_d)">
    <path fill="#002DC3" d="M360.102 213H18.898c-3.951 0-7.74-1.633-10.535-4.54C5.57 205.553 4 201.611 4 197.5c0-4.111 1.57-8.053 4.363-10.96 2.794-2.907 6.584-4.54 10.535-4.54h341.204c3.951 0 7.741 1.633 10.535 4.54 2.793 2.907 4.363 6.849 4.363 10.96 0 4.111-1.57 8.053-4.363 10.96-2.794 2.907-6.584 4.54-10.535 4.54z"/>
  </g>
  <g filter="url(#filter2_d)">
    <path fill="#388CFF" d="M163.563 186.4h-17.52l17 10.1.52-10.1z"/>
  </g>
  <g filter="url(#filter3_d)">
    <path fill="#1A61FF" d="M146.047 189.449V186.4l17 10.1v3.379l-17-10.43z"/>
  </g>
  <g filter="url(#filter4_d)">
    <path fill="#59A6F3" d="M271.047 196.5h-108v3.379h108V196.5z"/>
  </g>
  <g filter="url(#filter5_d)">
    <path fill="#0042E8" d="M156.044 71c-12.06 0-24.143 5.847-33.152 16.044a57.94 57.94 0 00-14.348 38.456 62.965 62.965 0 0014.856 39.964C132.817 176.608 145.08 183 157.044 183c12.133 0 26.029-6.753 37.171-18.064 11.649-11.824 18.329-26.562 18.329-40.436 0-2.773.06-5.5.117-8.141.3-13.594.552-25.334-7.377-33.438-7.958-8.133-23.6-11.921-49.24-11.921zm8.843 109.984a1.001 1.001 0 01-.987.848l-.154-.012a1.004 1.004 0 01-.819-.751.986.986 0 01-.017-.39c.091-.588 9.077-59.056 8.331-80.473a.992.992 0 01.585-.945.993.993 0 01.38-.089.928.928 0 01.681.236 1.026 1.026 0 01.354.726c.748 21.53-8.263 80.259-8.354 80.85"/>
  </g>
  <g filter="url(#filter6_d)">
    <path fill="#0042E8" d="M136.123 75.629c0-4.268-36.079 3.87-54.08 43.871-18 40 11 70 32.001 71 21 1 35-9 35-9a9.133 9.133 0 01-2-8 10.398 10.398 0 015-7s-30-1-41-19-6-49 11-60 14.079-8.742 14.079-11.871z"/>
  </g>
  <g filter="url(#filter7_d)">
    <path fill="#0042E8" d="M206.047 80.5c-3 3 5.153 13.612 7 21 2 8 3 21 3 24s27.007 6 26 0c-1.007-6-5-14-12-26s-22-21-24-19z"/>
  </g>
  <g filter="url(#filter8_d)">
    <path fill="#1A5EF7" d="M156.046 92.5s8 13 10 11 3-9 5-7 0 1 2 0 4 5 5 6 8-8 12-19-8 5-16 4-12.614-8-14.808-7.5c-2.194.5-4.192 10.5-3.192 12.5z"/>
  </g>
  <g filter="url(#filter9_d)">
    <path fill="#59A6F3" d="M162.047 179.5c0 5.8-5.029 8-10 8s-9-4.7-9-10.5 5.029-10.5 10-10.5 9 5 9 13z"/>
  </g>
  <g filter="url(#filter10_d)">
    <path fill="#00F" d="M179.747 23.5c-5.7-11-28.7-5-37.7 11-9 16-16 40-3 53s24.625 6.17 22.812-3.416c-1.813-9.585 26.608-5.22 26.9-1.9.292 3.32 4.29 5.318 8.29 4.318 4-1 16.869-24.235 15.434-41.618-1.435-17.383-9.439-25.384-18.439-25.384s-14.3 4-14.3 4"/>
  </g>
  <g filter="url(#filter11_d)">
    <path fill="#59A6F3" d="M181.047 28.5c-16 0-29 16.26-29 32 0 15.74 9.3 28 22 28s27-15.76 27-31.5-7.3-28.5-20-28.5zm-11 16c-.014 0-2.7.111-6.293 3.707a1 1 0 01-1.414-1.414c4.244-4.244 7.567-4.293 7.707-4.293a1.001 1.001 0 010 2zm5.5 38a2.499 2.499 0 01-1.768-4.268A2.502 2.502 0 01178.047 80a2.504 2.504 0 01-2.5 2.5zm9.144-8.034a5.246 5.246 0 01-3.4 1.163 7.35 7.35 0 01-1.438-.149.998.998 0 01-.781-1.177.997.997 0 011.174-.784 3.624 3.624 0 003.181-.6 5.279 5.279 0 001.623-3.419 4.12 4.12 0 00-1.851-2.648c-.977-.522-2.2-.354-3.635.505a1.002 1.002 0 01-1.514-.857v-6.485a.998.998 0 011-1 1.001 1.001 0 011 1v4.9a4.866 4.866 0 014.19.229 6.001 6.001 0 012.81 4.358 7.18 7.18 0 01-2.356 4.966l-.003-.002zm10.051-26.159a1 1 0 01-.707-.293c-3.6-3.6-6.279-3.707-6.306-3.707a1.005 1.005 0 01-.687-1.711.995.995 0 01.7-.289c.14 0 3.463.049 7.707 4.293a1.002 1.002 0 01-.152 1.538.996.996 0 01-.555.169"/>
  </g>
  <g filter="url(#filter12_d)">
    <path fill="#A3D1FF" d="M271.047 196.5h-108l3.757-73.256a5 5 0 014.993-4.744h102.598a5 5 0 014.967 5.57l-8.315 72.43z"/>
  </g>
  <path fill="#fff" d="M226.337 166.641h-15.045l1-8.117h7.416a1.427 1.427 0 000-2.855h-7.416l1-8.118h9.554a1.427 1.427 0 000-2.855h-10.983a1.39 1.39 0 00-.422.065 1.43 1.43 0 00-.998 1.217c0 .048-.005.1-.005.146l-2 21.945a1.426 1.426 0 001.425 1.427h16.474a1.427 1.427 0 000-2.855"/>
  <path fill="#fff" d="M226.337 155.668a6.92 6.92 0 00-6.386 4.27 6.916 6.916 0 005.041 9.425 6.91 6.91 0 006.233-11.668 6.927 6.927 0 00-4.888-2.027zm4.062 6.914a4.06 4.06 0 01-6.935 2.878 4.058 4.058 0 01-.882-4.429 4.06 4.06 0 016.625-1.318 4.061 4.061 0 011.192 2.869zM234.874 145.22a1.43 1.43 0 00-1.063-.458 1.465 1.465 0 00-1.41 1.353l-.025.286a.348.348 0 00.014.128.342.342 0 00.062.112.33.33 0 00.224.116l2.187.188a.33.33 0 00.357-.3l.029-.333a1.423 1.423 0 00-.376-1.092"/>
  <path fill="#fff" d="M234.835 147.321l-2.188-.188a.328.328 0 00-.356.3l-1.688 19.648a.323.323 0 00.028.165l.927 2.039a.33.33 0 00.572.049l1.261-1.851a.327.327 0 00.056-.157l1.689-19.649a.328.328 0 00-.3-.356"/>
  <g filter="url(#filter13_d)">
    <mask id="a" width="40" height="13" x="159.371" y="52.736" fill="#000" maskUnits="userSpaceOnUse">
      <path fill="#fff" d="M159.371 52.736h40v13h-40z"/>
      <path d="M193.466 54.16l-8-.184a5.001 5.001 0 00-4.947 3.758 5.031 5.031 0 00-2.315-.027 4.985 4.985 0 00-5.285-3.955l-7.972.666a4.998 4.998 0 00-3.041 8.586 4.997 4.997 0 003.875 1.379l7.972-.667a4.953 4.953 0 004.56-5.008 4.014 4.014 0 012.056.018c0 .046-.016.089-.017.135a5.006 5.006 0 004.884 5.113l8 .184h.117a4.997 4.997 0 005.057-4.944 5.012 5.012 0 00-3.035-4.654 4.995 4.995 0 00-1.909-.402v.002zm-17.073 7.155a3.965 3.965 0 01-2.722 1.4l-7.972.667a4 4 0 11-.666-7.973l7.972-.666a4.001 4.001 0 013.388 6.569v.003zm16.959 1.839h-.093l-8-.184a4 4 0 11.091-8h.093l8 .184a3.999 3.999 0 012.751 6.86 4 4 0 01-2.842 1.14"/>
    </mask>
    <path fill="#fff" d="M193.466 54.16l-8-.184a5.001 5.001 0 00-4.947 3.758 5.031 5.031 0 00-2.315-.027 4.985 4.985 0 00-5.285-3.955l-7.972.666a4.998 4.998 0 00-3.041 8.586 4.997 4.997 0 003.875 1.379l7.972-.667a4.953 4.953 0 004.56-5.008 4.014 4.014 0 012.056.018c0 .046-.016.089-.017.135a5.006 5.006 0 004.884 5.113l8 .184h.117a4.997 4.997 0 005.057-4.944 5.012 5.012 0 00-3.035-4.654 4.995 4.995 0 00-1.909-.402v.002zm-17.073 7.155a3.965 3.965 0 01-2.722 1.4l-7.972.667a4 4 0 11-.666-7.973l7.972-.666a4.001 4.001 0 013.388 6.569v.003zm16.959 1.839h-.093l-8-.184a4 4 0 11.091-8h.093l8 .184a3.999 3.999 0 012.751 6.86 4 4 0 01-2.842 1.14"/>
    <path fill="#fff" d="M193.466 54.16l-.011.5.511.012v-.512h-.5zm-8-.184l.012-.5h-.001l-.011.5zm-4.947 3.758l-.12.485.481.12.124-.481-.485-.124zm-2.315-.027l-.489.102.103.497.496-.111-.11-.488zm-5.285-3.955l-.04-.498h-.001l.041.498zm-7.972.666l-.041-.498h-.001l.042.498zm.413 9.982l-.001.5h.001v-.5zm.421-.017l-.041-.498h-.001l.042.498zm7.972-.667l-.039-.498h-.002l.041.498zm4.56-5.008l-.123-.484-.382.097.005.394.5-.007zm2.056.018h.5v-.381l-.367-.101-.133.482zm-.017.135l-.5-.01.5.01zm4.884 5.113l-.012.5h.001l.011-.5zm8 .184l-.011.5h.011v-.5zm.117 0l.006-.5h-.006v.5zm.113-10l.006-.5-.506-.006v.506h.5zm-17.073 7.157l.383.322.117-.14v-.182h-.5zm-2.722 1.4l-.039-.498h-.002l.041.498zm-7.972.667l.042.498-.042-.498zm-.666-7.973l.042.498-.042-.498zm7.972-.666l-.039-.498h-.002l.041.498zm.34-.014l.001-.5h-.001v.5zm3.048 6.583l-.381-.323-.119.14v.183h.5zm16.866 1.842l-.011.5h.011v-.5zm-8-.184l.012-.5h-.006l-.006.5zm.091-8l-.005.5h.005v-.5zm.093 0l.012-.5h-.012v.5zm8 .184l-.011.5h.006l.005-.5zm.035-1.494l-8-.184-.023 1 8 .184.023-1zm-8.001-.184a5.499 5.499 0 00-3.441 1.12l.605.796a4.499 4.499 0 012.815-.916l.021-1zm-3.441 1.12a5.5 5.5 0 00-2.001 3.014l.969.248a4.502 4.502 0 011.637-2.466l-.605-.797zm-1.396 2.653a5.53 5.53 0 00-2.545-.03l.219.976a4.53 4.53 0 012.085.024l.241-.97zm-1.946.356a5.484 5.484 0 00-2.084-3.276l-.6.801a4.487 4.487 0 011.705 2.679l.979-.204zm-2.084-3.276a5.487 5.487 0 00-3.731-1.075l.081.996a4.483 4.483 0 013.05.88l.6-.8zm-3.732-1.075l-7.972.666.083.996 7.972-.666-.083-.996zm-7.973.666a5.5 5.5 0 00-3.66 1.844l.75.661a4.497 4.497 0 012.995-1.509l-.085-.996zm-3.66 1.844a5.498 5.498 0 00-1.369 3.863l.999-.041a4.498 4.498 0 011.12-3.161l-.75-.661zm-1.369 3.863a5.495 5.495 0 001.683 3.737l.693-.72a4.5 4.5 0 01-1.377-3.058l-.999.041zm1.683 3.737a5.5 5.5 0 003.8 1.536l.002-1a4.5 4.5 0 01-3.109-1.256l-.693.72zm3.801 1.536c.151 0 .306-.006.463-.019l-.084-.996a4.47 4.47 0 01-.379.015v1zm.463-.019l7.972-.667-.083-.996-7.972.667.083.996zm7.97-.667a5.456 5.456 0 003.6-1.764l-.74-.673a4.451 4.451 0 01-2.939 1.44l.079.997zm3.6-1.764a5.453 5.453 0 001.42-3.75l-1 .015a4.446 4.446 0 01-1.16 3.062l.74.673zm1.044-3.258a3.515 3.515 0 011.8.016l.265-.964a4.513 4.513 0 00-2.312-.02l.247.968zm1.432-.466c0-.017.002-.03.002-.033l-.001.01a.703.703 0 00-.018.148l1 .02c0 .016-.002.026-.002.028l.003-.014a.892.892 0 00.016-.16h-1zm-.017.124a5.51 5.51 0 001.524 3.923l.723-.691a4.506 4.506 0 01-1.247-3.21l-1-.022zm1.524 3.923a5.506 5.506 0 003.848 1.7l.024-.999a4.506 4.506 0 01-3.149-1.392l-.723.69zm3.849 1.7l8 .185.023-1-8-.184-.023 1zm8.011.185h.117v-1h-.117v1zm.112 0a5.496 5.496 0 002.109-.395l-.372-.928c-.549.22-1.135.33-1.726.323l-.011 1zm2.109-.395a5.5 5.5 0 001.798-1.172l-.699-.715a4.511 4.511 0 01-1.471.959l.372.928zm1.798-1.172a5.508 5.508 0 001.212-1.77l-.919-.394a4.504 4.504 0 01-.992 1.449l.699.715zm1.212-1.77a5.497 5.497 0 00.443-2.1l-1-.012a4.512 4.512 0 01-.362 1.718l.919.393zm.443-2.1a5.5 5.5 0 00-.395-2.11l-.928.372c.22.548.33 1.135.323 1.726l1 .011zm-.395-2.11a5.502 5.502 0 00-1.172-1.798l-.715.699c.413.422.739.922.959 1.47l.928-.371zm-1.172-1.798a5.504 5.504 0 00-1.771-1.213l-.393.92c.543.232 1.036.57 1.449.992l.715-.7zm-1.771-1.213a5.5 5.5 0 00-2.1-.442l-.011 1c.591.007 1.175.13 1.718.362l.393-.92zm-2.606.058v.002h1v-.002h-1zm-16.955 6.835c-.296.35-.659.64-1.067.85l.457.89c.526-.271.993-.643 1.375-1.096l-.765-.644zm-1.067.85a3.48 3.48 0 01-1.312.373l.079.997a4.47 4.47 0 001.69-.48l-.457-.89zm-1.314.374l-7.972.667.083.996 7.972-.667-.083-.996zm-7.972.667a3.5 3.5 0 01-2.552-.816l-.646.764a4.5 4.5 0 003.281 1.048l-.083-.996zm-2.552-.816a3.499 3.499 0 01-1.228-2.381l-.996.083a4.5 4.5 0 001.578 3.061l.646-.763zm-1.228-2.381a3.5 3.5 0 01.816-2.552l-.764-.646a4.496 4.496 0 00-1.048 3.281l.996-.083zm.816-2.552a3.5 3.5 0 012.381-1.228l-.083-.996a4.5 4.5 0 00-3.062 1.578l.764.646zm2.381-1.228l7.972-.666-.083-.996-7.972.666.083.996zm7.97-.666c.102-.008.202-.012.3-.012v-1a4.81 4.81 0 00-.379.016l.079.996zm.3-.012a3.5 3.5 0 011.881.552l.539-.842a4.5 4.5 0 00-2.419-.71l-.001 1zm1.881.552c.562.36 1.009.872 1.289 1.477l.908-.42a4.508 4.508 0 00-1.658-1.9l-.539.843zm1.289 1.477c.28.606.382 1.278.293 1.94l.991.133a4.51 4.51 0 00-.376-2.493l-.908.42zm.293 1.94a3.512 3.512 0 01-.796 1.791l.763.646a4.5 4.5 0 001.024-2.304l-.991-.134zm-.915 2.114v.003h1v-.003h-1zm17.459 1.342h-.093v1h.093v-1zm-.081 0l-8-.184-.023 1 8 .184.023-1zm-8.006-.184a3.5 3.5 0 01-2.463-1.053l-.715.699a4.499 4.499 0 003.167 1.354l.011-1zm-2.463-1.053a3.498 3.498 0 01-.997-2.487l-1-.011a4.496 4.496 0 001.282 3.197l.715-.7zm-.997-2.487a3.497 3.497 0 011.053-2.463l-.699-.715a4.5 4.5 0 00-1.354 3.167l1 .011zm1.053-2.463a3.5 3.5 0 012.487-.997l.011-1a4.502 4.502 0 00-3.197 1.282l.699.715zm2.492-.997h.093v-1h-.093v1zm.082 0l8 .184.023-1-8-.184-.023 1zm8.006.184a3.5 3.5 0 012.463 1.053l.715-.699a4.499 4.499 0 00-3.167-1.354l-.011 1zm2.463 1.053a3.502 3.502 0 01.997 2.487l1 .011a4.504 4.504 0 00-1.282-3.197l-.715.7zm.997 2.487a3.505 3.505 0 01-1.053 2.463l.699.715a4.504 4.504 0 001.354-3.167l-1-.011zm-1.053 2.463a3.502 3.502 0 01-2.487.997l-.011 1a4.502 4.502 0 003.197-1.282l-.699-.715z" mask="url(#a)"/>
  </g>
  <g filter="url(#filter14_d)">
    <path fill="#388CFF" d="M70 0a27 27 0 1027 27A27.031 27.031 0 0070 0zm14.188 13.681L71.364 27.4a.984.984 0 01-.231.33l-.106.081c-.03.02-.06.028-.089.045l-.021.022a.941.941 0 01-.125.051.724.724 0 01-.077.031.871.871 0 01-.259.04.987.987 0 01-.395-.085l-.053-.03-.07-.04a.695.695 0 01-.159-.112l-.1-.108L55.425 9.561a1 1 0 111.57-1.239l13.523 17.142L82.723 12.32a1 1 0 011.465 1.361"/>
  </g>
  <defs>
    <filter id="filter0_d" width="189" height="189" x="45" y="27" color-interpolation-filters="sRGB" filterUnits="userSpaceOnUse">
      <feFlood flood-opacity="0" result="BackgroundImageFix"/>
      <feColorMatrix in="SourceAlpha" values="0 0 0 0 0 0 0 0 0 0 0 0 0 0 0 0 0 0 127 0"/>
      <feOffset dy="4"/>
      <feGaussianBlur stdDeviation="2"/>
      <feColorMatrix values="0 0 0 0 0 0 0 0 0 0 0 0 0 0 0 0 0 0 0.25 0"/>
      <feBlend in2="BackgroundImageFix" result="effect1_dropShadow"/>
      <feBlend in="SourceGraphic" in2="effect1_dropShadow" result="shape"/>
    </filter>
    <filter id="filter1_d" width="379" height="39" x="0" y="182" color-interpolation-filters="sRGB" filterUnits="userSpaceOnUse">
      <feFlood flood-opacity="0" result="BackgroundImageFix"/>
      <feColorMatrix in="SourceAlpha" values="0 0 0 0 0 0 0 0 0 0 0 0 0 0 0 0 0 0 127 0"/>
      <feOffset dy="4"/>
      <feGaussianBlur stdDeviation="2"/>
      <feColorMatrix values="0 0 0 0 0 0 0 0 0 0 0 0 0 0 0 0 0 0 0.25 0"/>
      <feBlend in2="BackgroundImageFix" result="effect1_dropShadow"/>
      <feBlend in="SourceGraphic" in2="effect1_dropShadow" result="shape"/>
    </filter>
    <filter id="filter2_d" width="25.52" height="18.1" x="142.043" y="186.4" color-interpolation-filters="sRGB" filterUnits="userSpaceOnUse">
      <feFlood flood-opacity="0" result="BackgroundImageFix"/>
      <feColorMatrix in="SourceAlpha" values="0 0 0 0 0 0 0 0 0 0 0 0 0 0 0 0 0 0 127 0"/>
      <feOffset dy="4"/>
      <feGaussianBlur stdDeviation="2"/>
      <feColorMatrix values="0 0 0 0 0 0 0 0 0 0 0 0 0 0 0 0 0 0 0.25 0"/>
      <feBlend in2="BackgroundImageFix" result="effect1_dropShadow"/>
      <feBlend in="SourceGraphic" in2="effect1_dropShadow" result="shape"/>
    </filter>
    <filter id="filter3_d" width="25" height="21.479" x="142.047" y="186.4" color-interpolation-filters="sRGB" filterUnits="userSpaceOnUse">
      <feFlood flood-opacity="0" result="BackgroundImageFix"/>
      <feColorMatrix in="SourceAlpha" values="0 0 0 0 0 0 0 0 0 0 0 0 0 0 0 0 0 0 127 0"/>
      <feOffset dy="4"/>
      <feGaussianBlur stdDeviation="2"/>
      <feColorMatrix values="0 0 0 0 0 0 0 0 0 0 0 0 0 0 0 0 0 0 0.25 0"/>
      <feBlend in2="BackgroundImageFix" result="effect1_dropShadow"/>
      <feBlend in="SourceGraphic" in2="effect1_dropShadow" result="shape"/>
    </filter>
    <filter id="filter4_d" width="116" height="11.379" x="159.047" y="196.5" color-interpolation-filters="sRGB" filterUnits="userSpaceOnUse">
      <feFlood flood-opacity="0" result="BackgroundImageFix"/>
      <feColorMatrix in="SourceAlpha" values="0 0 0 0 0 0 0 0 0 0 0 0 0 0 0 0 0 0 127 0"/>
      <feOffset dy="4"/>
      <feGaussianBlur stdDeviation="2"/>
      <feColorMatrix values="0 0 0 0 0 0 0 0 0 0 0 0 0 0 0 0 0 0 0.25 0"/>
      <feBlend in2="BackgroundImageFix" result="effect1_dropShadow"/>
      <feBlend in="SourceGraphic" in2="effect1_dropShadow" result="shape"/>
    </filter>
    <filter id="filter5_d" width="112.228" height="120" x="104.543" y="71" color-interpolation-filters="sRGB" filterUnits="userSpaceOnUse">
      <feFlood flood-opacity="0" result="BackgroundImageFix"/>
      <feColorMatrix in="SourceAlpha" values="0 0 0 0 0 0 0 0 0 0 0 0 0 0 0 0 0 0 127 0"/>
      <feOffset dy="4"/>
      <feGaussianBlur stdDeviation="2"/>
      <feColorMatrix values="0 0 0 0 0 0 0 0 0 0 0 0 0 0 0 0 0 0 0.25 0"/>
      <feBlend in2="BackgroundImageFix" result="effect1_dropShadow"/>
      <feBlend in="SourceGraphic" in2="effect1_dropShadow" result="shape"/>
    </filter>
    <filter id="filter6_d" width="83.641" height="123.959" x="72.402" y="74.611" color-interpolation-filters="sRGB" filterUnits="userSpaceOnUse">
      <feFlood flood-opacity="0" result="BackgroundImageFix"/>
      <feColorMatrix in="SourceAlpha" values="0 0 0 0 0 0 0 0 0 0 0 0 0 0 0 0 0 0 127 0"/>
      <feOffset dy="4"/>
      <feGaussianBlur stdDeviation="2"/>
      <feColorMatrix values="0 0 0 0 0 0 0 0 0 0 0 0 0 0 0 0 0 0 0.25 0"/>
      <feBlend in2="BackgroundImageFix" result="effect1_dropShadow"/>
      <feBlend in="SourceGraphic" in2="effect1_dropShadow" result="shape"/>
    </filter>
    <filter id="filter7_d" width="44.684" height="56.743" x="201.391" y="80.221" color-interpolation-filters="sRGB" filterUnits="userSpaceOnUse">
      <feFlood flood-opacity="0" result="BackgroundImageFix"/>
      <feColorMatrix in="SourceAlpha" values="0 0 0 0 0 0 0 0 0 0 0 0 0 0 0 0 0 0 127 0"/>
      <feOffset dy="4"/>
      <feGaussianBlur stdDeviation="2"/>
      <feColorMatrix values="0 0 0 0 0 0 0 0 0 0 0 0 0 0 0 0 0 0 0.25 0"/>
      <feBlend in2="BackgroundImageFix" result="effect1_dropShadow"/>
      <feBlend in="SourceGraphic" in2="effect1_dropShadow" result="shape"/>
    </filter>
    <filter id="filter8_d" width="43.059" height="32.087" x="151.781" y="79.622" color-interpolation-filters="sRGB" filterUnits="userSpaceOnUse">
      <feFlood flood-opacity="0" result="BackgroundImageFix"/>
      <feColorMatrix in="SourceAlpha" values="0 0 0 0 0 0 0 0 0 0 0 0 0 0 0 0 0 0 127 0"/>
      <feOffset dy="4"/>
      <feGaussianBlur stdDeviation="2"/>
      <feColorMatrix values="0 0 0 0 0 0 0 0 0 0 0 0 0 0 0 0 0 0 0.25 0"/>
      <feBlend in2="BackgroundImageFix" result="effect1_dropShadow"/>
      <feBlend in="SourceGraphic" in2="effect1_dropShadow" result="shape"/>
    </filter>
    <filter id="filter9_d" width="27" height="29" x="139.047" y="166.5" color-interpolation-filters="sRGB" filterUnits="userSpaceOnUse">
      <feFlood flood-opacity="0" result="BackgroundImageFix"/>
      <feColorMatrix in="SourceAlpha" values="0 0 0 0 0 0 0 0 0 0 0 0 0 0 0 0 0 0 127 0"/>
      <feOffset dy="4"/>
      <feGaussianBlur stdDeviation="2"/>
      <feColorMatrix values="0 0 0 0 0 0 0 0 0 0 0 0 0 0 0 0 0 0 0.25 0"/>
      <feBlend in2="BackgroundImageFix" result="effect1_dropShadow"/>
      <feBlend in="SourceGraphic" in2="effect1_dropShadow" result="shape"/>
    </filter>
    <filter id="filter10_d" width="88.7" height="84.778" x="127.895" y="17.898" color-interpolation-filters="sRGB" filterUnits="userSpaceOnUse">
      <feFlood flood-opacity="0" result="BackgroundImageFix"/>
      <feColorMatrix in="SourceAlpha" values="0 0 0 0 0 0 0 0 0 0 0 0 0 0 0 0 0 0 127 0"/>
      <feOffset dy="4"/>
      <feGaussianBlur stdDeviation="2"/>
      <feColorMatrix values="0 0 0 0 0 0 0 0 0 0 0 0 0 0 0 0 0 0 0.25 0"/>
      <feBlend in2="BackgroundImageFix" result="effect1_dropShadow"/>
      <feBlend in="SourceGraphic" in2="effect1_dropShadow" result="shape"/>
    </filter>
    <filter id="filter11_d" width="57" height="68" x="148.047" y="28.5" color-interpolation-filters="sRGB" filterUnits="userSpaceOnUse">
      <feFlood flood-opacity="0" result="BackgroundImageFix"/>
      <feColorMatrix in="SourceAlpha" values="0 0 0 0 0 0 0 0 0 0 0 0 0 0 0 0 0 0 127 0"/>
      <feOffset dy="4"/>
      <feGaussianBlur stdDeviation="2"/>
      <feColorMatrix values="0 0 0 0 0 0 0 0 0 0 0 0 0 0 0 0 0 0 0.25 0"/>
      <feBlend in2="BackgroundImageFix" result="effect1_dropShadow"/>
      <feBlend in="SourceGraphic" in2="effect1_dropShadow" result="shape"/>
    </filter>
    <filter id="filter12_d" width="124.349" height="86" x="159.047" y="118.5" color-interpolation-filters="sRGB" filterUnits="userSpaceOnUse">
      <feFlood flood-opacity="0" result="BackgroundImageFix"/>
      <feColorMatrix in="SourceAlpha" values="0 0 0 0 0 0 0 0 0 0 0 0 0 0 0 0 0 0 127 0"/>
      <feOffset dy="4"/>
      <feGaussianBlur stdDeviation="2"/>
      <feColorMatrix values="0 0 0 0 0 0 0 0 0 0 0 0 0 0 0 0 0 0 0.25 0"/>
      <feBlend in2="BackgroundImageFix" result="effect1_dropShadow"/>
      <feBlend in="SourceGraphic" in2="effect1_dropShadow" result="shape"/>
    </filter>
    <filter id="filter13_d" width="47.039" height="19.664" x="155.871" y="53.236" color-interpolation-filters="sRGB" filterUnits="userSpaceOnUse">
      <feFlood flood-opacity="0" result="BackgroundImageFix"/>
      <feColorMatrix in="SourceAlpha" values="0 0 0 0 0 0 0 0 0 0 0 0 0 0 0 0 0 0 127 0"/>
      <feOffset dy="4"/>
      <feGaussianBlur stdDeviation="2"/>
      <feColorMatrix values="0 0 0 0 0 0 0 0 0 0 0 0 0 0 0 0 0 0 0.25 0"/>
      <feBlend in2="BackgroundImageFix" result="effect1_dropShadow"/>
      <feBlend in="SourceGraphic" in2="effect1_dropShadow" result="shape"/>
    </filter>
    <filter id="filter14_d" width="62" height="62" x="39" y="0" color-interpolation-filters="sRGB" filterUnits="userSpaceOnUse">
      <feFlood flood-opacity="0" result="BackgroundImageFix"/>
      <feColorMatrix in="SourceAlpha" values="0 0 0 0 0 0 0 0 0 0 0 0 0 0 0 0 0 0 127 0"/>
      <feOffset dy="4"/>
      <feGaussianBlur stdDeviation="2"/>
      <feColorMatrix values="0 0 0 0 0 0 0 0 0 0 0 0 0 0 0 0 0 0 0.25 0"/>
      <feBlend in2="BackgroundImageFix" result="effect1_dropShadow"/>
      <feBlend in="SourceGraphic" in2="effect1_dropShadow" result="shape"/>
    </filter>
  </defs>
</svg>
