<svg xmlns="http://www.w3.org/2000/svg" width="411" height="267" fill="none" viewBox="0 0 411 267">
  <g filter="url(#filter0_d)">
    <path fill="#fff" d="M72.432 140.259a1.177 1.177 0 01-1.178-1.178v-6.007a1.177 1.177 0 112.356 0v6.007a1.179 1.179 0 01-1.178 1.178zm0-12.015a1.177 1.177 0 01-1.178-1.177v-6.008a1.179 1.179 0 012.356 0v6.008a1.175 1.175 0 01-1.178 1.177zm0-12.014a1.177 1.177 0 01-1.178-1.178v-6.007a1.179 1.179 0 012.356 0v6.007a1.177 1.177 0 01-1.178 1.178zm0-12.014a1.177 1.177 0 01-1.178-1.178v-6.007a1.178 1.178 0 112.356 0v6.007a1.179 1.179 0 01-1.178 1.178zm0-12.015a1.178 1.178 0 01-1.178-1.178v-6.007a1.178 1.178 0 112.356 0v6.007a1.178 1.178 0 01-1.178 1.178zm0-12.014a1.178 1.178 0 01-1.178-1.178v-6.007a1.178 1.178 0 112.356 0v6.007a1.178 1.178 0 01-1.178 1.178zm0-12.015a1.178 1.178 0 01-1.178-1.178v-6.007a1.178 1.178 0 112.356 0v6.007a1.178 1.178 0 01-1.178 1.178zm0-12.014a1.178 1.178 0 01-1.178-1.178v-6.007a1.178 1.178 0 112.356 0v6.007a1.178 1.178 0 01-1.178 1.178z"/>
  </g>
  <g filter="url(#filter1_d)">
    <path fill="#fff" d="M72.432 236.464a1.177 1.177 0 01-1.178-1.178v-6.007a1.177 1.177 0 112.356 0v6.007a1.179 1.179 0 01-1.178 1.178zm0-12.014a1.182 1.182 0 01-1.178-1.178v-6.008a1.175 1.175 0 011.178-1.177 1.177 1.177 0 011.178 1.177v6.008a1.179 1.179 0 01-1.178 1.178zm0-12.015a1.177 1.177 0 01-1.178-1.178v-6.007a1.179 1.179 0 012.356 0v6.007a1.177 1.177 0 01-1.178 1.178zm0-12.014a1.177 1.177 0 01-1.178-1.178v-6.007a1.177 1.177 0 112.356 0v6.007a1.179 1.179 0 01-1.178 1.178zm0-12.015a1.177 1.177 0 01-1.178-1.178v-6.007a1.179 1.179 0 012.356 0v6.007a1.177 1.177 0 01-1.178 1.178zm0-12.014a1.177 1.177 0 01-1.178-1.178v-6.007a1.177 1.177 0 112.356 0v6.007a1.179 1.179 0 01-1.178 1.178zm0-12.015a1.177 1.177 0 01-1.178-1.177v-6.008a1.179 1.179 0 012.356 0v6.008a1.175 1.175 0 01-1.178 1.177zm0-12.014a1.177 1.177 0 01-1.178-1.178v-6.007a1.177 1.177 0 112.356 0v6.007a1.179 1.179 0 01-1.178 1.178z"/>
  </g>
  <g filter="url(#filter2_d)">
    <path fill="#fff" d="M113.204 36.464h-80.37A8.834 8.834 0 0124 27.63V8.834A8.834 8.834 0 0132.834 0h80.37a8.831 8.831 0 018.834 8.834v18.793a8.834 8.834 0 01-8.834 8.834"/>
  </g>
  <path stroke="#9ECDFF" stroke-width="1.188" d="M57.7 18.82c0 7.152-5.798 12.951-12.951 12.951-7.153 0-12.952-5.799-12.952-12.952S37.596 5.867 44.749 5.867 57.7 11.666 57.7 18.82z"/>
  <mask id="a" width="22" height="33" x="34" y="9" maskUnits="userSpaceOnUse">
    <path fill="#001C79" d="M51.004 16.093a6.107 6.107 0 11-12.214 0 6.107 6.107 0 0112.214 0" opacity=".996"/>
    <path fill="#001C79" d="M55.146 31.367a10.384 10.384 0 11-20.769.003 10.384 10.384 0 0120.769-.003" opacity=".996"/>
  </mask>
  <g mask="url(#a)">
    <path fill="#0041E3" d="M58.298 18.82c0 7.48-6.064 13.545-13.545 13.545S31.207 26.3 31.207 18.819c0-7.481 6.065-13.546 13.546-13.546 7.48 0 13.545 6.065 13.545 13.546z"/>
  </g>
  <g filter="url(#filter3_d)">
    <path fill="#fff" d="M72.432 44.144a1.178 1.178 0 01-1.178-1.178V40.02a1.178 1.178 0 112.356 0v2.945a1.178 1.178 0 01-1.178 1.178z"/>
  </g>
  <g>
    <path fill="#001C79" d="M68.731 13.224a.883.883 0 01-.883-.883 1.072 1.072 0 00-2.144 0 .883.883 0 11-1.766 0 2.839 2.839 0 115.677 0 .883.883 0 01-.883.883"/>
    <path fill="#001C79" d="M70.686 15.18a2.842 2.842 0 01-2.838-2.84.883.883 0 111.767 0 1.072 1.072 0 002.143 0 .883.883 0 111.767 0 2.843 2.843 0 01-2.839 2.84"/>
    <path fill="#001C79" d="M76.555 13.224a.883.883 0 01-.883-.883 1.071 1.071 0 10-2.143 0 .883.883 0 11-1.767 0 2.838 2.838 0 115.677 0 .883.883 0 01-.884.883z"/>
    <path fill="#001C79" d="M78.503 15.18a2.842 2.842 0 01-2.839-2.84.883.883 0 111.767 0 1.072 1.072 0 002.144 0 .883.883 0 111.766 0 2.843 2.843 0 01-2.838 2.84"/>
    <path fill="#001C79" d="M84.368 13.224a.883.883 0 01-.884-.883 1.071 1.071 0 10-2.142 0 .883.883 0 01-1.767 0 2.838 2.838 0 115.676 0 .883.883 0 01-.883.883"/>
    <path fill="#001C79" d="M86.327 15.18a2.842 2.842 0 01-2.839-2.84.883.883 0 111.767 0 1.072 1.072 0 102.144 0 .883.883 0 111.767 0 2.842 2.842 0 01-2.839 2.84M102.065 15.18a2.842 2.842 0 01-2.838-2.84.883.883 0 111.766 0 1.072 1.072 0 002.144 0 .882.882 0 011.508-.624c.166.166.259.39.259.625a2.84 2.84 0 01-2.839 2.839M109.886 15.18a2.845 2.845 0 01-2.839-2.84.882.882 0 011.508-.624c.166.166.259.39.259.625a1.072 1.072 0 002.143 0 .886.886 0 01.884-.883.885.885 0 01.883.883 2.843 2.843 0 01-2.838 2.839"/>
    <g opacity=".996">
      <g opacity=".996">
        <path fill="#3889FF" d="M66.598 22.353a.589.589 0 01-.589-.59.609.609 0 00-1.218 0 .589.589 0 01-1.178 0 1.787 1.787 0 113.574 0 .589.589 0 01-.589.59z" opacity=".996"/>
        <path fill="#3889FF" d="M67.79 23.55a1.79 1.79 0 01-1.786-1.786.589.589 0 011.178 0 .61.61 0 001.219 0 .589.589 0 011.178 0 1.79 1.79 0 01-1.788 1.787" opacity=".996"/>
        <path fill="#3889FF" d="M71.387 22.353a.589.589 0 01-.589-.59.609.609 0 00-1.218 0 .589.589 0 11-1.178 0 1.787 1.787 0 013.574 0 .589.589 0 01-.589.59z" opacity=".996"/>
        <path fill="#3889FF" d="M72.588 23.55a1.79 1.79 0 01-1.787-1.786.589.589 0 111.178 0 .61.61 0 101.218 0 .589.589 0 011.177 0 1.79 1.79 0 01-1.786 1.787" opacity=".996"/>
        <path fill="#3889FF" d="M76.184 22.353a.589.589 0 01-.589-.59.609.609 0 10-1.218 0 .589.589 0 01-1.178 0 1.787 1.787 0 013.574 0 .589.589 0 01-.589.59z" opacity=".996"/>
        <path fill="#3889FF" d="M77.374 23.55a1.79 1.79 0 01-1.788-1.786.589.589 0 011.178 0 .61.61 0 001.219 0 .589.589 0 011.178 0 1.79 1.79 0 01-1.787 1.787" opacity=".996"/>
        <path fill="#3889FF" d="M81.024 22.353a.589.589 0 01-.59-.59.609.609 0 00-1.217 0 .589.589 0 11-1.178 0 1.787 1.787 0 113.574 0 .589.589 0 01-.59.59z" opacity=".996"/>
        <path fill="#3889FF" d="M82.226 23.55a1.788 1.788 0 01-1.792-1.786.589.589 0 111.178 0 .61.61 0 101.217 0 .589.589 0 011.178 0 1.79 1.79 0 01-1.787 1.787" opacity=".996"/>
        <path fill="#3889FF" d="M85.82 22.353a.589.589 0 01-.588-.59.609.609 0 00-1.218 0 .589.589 0 11-1.178 0 1.787 1.787 0 013.574 0 .589.589 0 01-.59.59z" opacity=".996"/>
        <path fill="#3889FF" d="M87.024 23.55a1.79 1.79 0 01-1.79-1.786.589.589 0 111.178 0 .61.61 0 101.22 0 .589.589 0 111.178 0 1.789 1.789 0 01-1.786 1.787" opacity=".996"/>
        <path fill="#3889FF" d="M90.618 22.353a.589.589 0 01-.59-.59.609.609 0 10-1.217 0 .589.589 0 11-1.178 0 1.787 1.787 0 013.574 0 .589.589 0 01-.59.59z" opacity=".996"/>
        <path fill="#3889FF" d="M91.806 23.55a1.79 1.79 0 01-1.787-1.786.589.589 0 011.178 0 .61.61 0 001.22 0 .589.589 0 011.177 0 1.79 1.79 0 01-1.788 1.787" opacity=".996"/>
        <path fill="#3889FF" d="M95.466 22.353a.589.589 0 01-.588-.59.61.61 0 00-1.22 0 .589.589 0 01-1.177 0 1.788 1.788 0 013.574 0 .589.589 0 01-.589.59z" opacity=".996"/>
        <path fill="#3889FF" d="M96.663 23.55a1.79 1.79 0 01-1.788-1.786.589.589 0 011.178 0 .61.61 0 001.219 0 .589.589 0 111.178 0 1.79 1.79 0 01-1.787 1.787" opacity=".996"/>
        <path fill="#3889FF" d="M100.254 22.353a.588.588 0 01-.589-.59.609.609 0 10-1.218 0 .589.589 0 11-1.178 0 1.787 1.787 0 013.574 0 .59.59 0 01-.589.59zM105.055 22.353a.587.587 0 01-.589-.59.61.61 0 10-1.218 0 .59.59 0 01-1.178 0 1.788 1.788 0 013.574 0 .59.59 0 01-.589.59z" opacity=".996"/>
        <path fill="#3889FF" d="M106.25 23.55a1.787 1.787 0 01-1.781-1.786.59.59 0 011.178 0 .61.61 0 101.219 0 .59.59 0 011.178 0 1.791 1.791 0 01-1.788 1.787" opacity=".996"/>
        <path fill="#3889FF" d="M109.899 22.353a.591.591 0 01-.589-.59.61.61 0 10-1.218 0 .587.587 0 01-.589.59.587.587 0 01-.589-.59 1.783 1.783 0 011.103-1.65 1.787 1.787 0 012.471 1.65.587.587 0 01-.589.59z" opacity=".996"/>
      </g>
    </g>
    <g opacity=".996">
      <g opacity=".996">
        <path fill="#3889FF" d="M66.598 27.064a.589.589 0 01-.589-.588.609.609 0 00-1.218 0 .589.589 0 01-1.178 0 1.787 1.787 0 113.574 0 .589.589 0 01-.589.588z" opacity=".996"/>
        <path fill="#3889FF" d="M67.79 28.262a1.79 1.79 0 01-1.786-1.787.589.589 0 011.178 0 .61.61 0 001.219 0 .589.589 0 011.178 0 1.79 1.79 0 01-1.788 1.787" opacity=".996"/>
        <path fill="#3889FF" d="M71.387 27.064a.589.589 0 01-.589-.588.609.609 0 00-1.218 0 .589.589 0 11-1.178 0 1.787 1.787 0 013.574 0 .589.589 0 01-.589.588z" opacity=".996"/>
        <path fill="#3889FF" d="M72.588 28.262a1.79 1.79 0 01-1.787-1.787.589.589 0 111.178 0 .609.609 0 101.218 0 .589.589 0 011.177 0 1.789 1.789 0 01-1.786 1.787" opacity=".996"/>
        <path fill="#3889FF" d="M76.184 27.064a.589.589 0 01-.589-.588.609.609 0 10-1.218 0 .589.589 0 01-1.178 0 1.787 1.787 0 013.574 0 .589.589 0 01-.589.588z" opacity=".996"/>
        <path fill="#3889FF" d="M77.374 28.262a1.79 1.79 0 01-1.788-1.787.589.589 0 011.178 0 .61.61 0 001.219 0 .589.589 0 011.178 0 1.79 1.79 0 01-1.787 1.787" opacity=".996"/>
        <path fill="#3889FF" d="M81.024 27.064a.589.589 0 01-.59-.588.609.609 0 00-1.217 0 .589.589 0 11-1.178 0 1.787 1.787 0 113.574 0 .589.589 0 01-.59.588z" opacity=".996"/>
        <path fill="#3889FF" d="M82.226 28.262a1.79 1.79 0 01-1.792-1.787.589.589 0 111.178 0 .609.609 0 101.217 0 .589.589 0 011.178 0 1.79 1.79 0 01-1.787 1.787" opacity=".996"/>
        <path fill="#3889FF" d="M85.82 27.064a.589.589 0 01-.588-.588.609.609 0 00-1.218 0 .589.589 0 11-1.178 0 1.787 1.787 0 013.574 0 .589.589 0 01-.59.588z" opacity=".996"/>
        <path fill="#3889FF" d="M87.024 28.262a1.79 1.79 0 01-1.79-1.787.589.589 0 111.178 0 .61.61 0 101.22 0 .589.589 0 111.178 0 1.789 1.789 0 01-1.786 1.787" opacity=".996"/>
        <path fill="#3889FF" d="M90.618 27.064a.589.589 0 01-.59-.588.609.609 0 10-1.217 0 .589.589 0 11-1.178 0 1.787 1.787 0 013.574 0 .589.589 0 01-.59.588z" opacity=".996"/>
        <path fill="#3889FF" d="M91.806 28.262a1.79 1.79 0 01-1.787-1.787.589.589 0 011.178 0 .61.61 0 001.22 0 .589.589 0 011.177 0 1.79 1.79 0 01-1.788 1.787" opacity=".996"/>
      </g>
    </g>
  </g>
  <g>
    <g filter="url(#filter4_d)" opacity=".996">
      <path fill="#0042E5" d="M5 248.836V221.99a2.958 2.958 0 01.865-2.089 2.962 2.962 0 012.089-.864h13.79c11.525-.006 26.838-8.473 37.439-16.718 10.6-8.245 15.312 2.356 28.269-5.889 12.957-8.246 20.024-16.491 31.803-17.669 11.779-1.178 16.49 2.356 22.38 7.068a49.087 49.087 0 0021.202 9.423c7.067 1.178 11.361 1.194 17.668-12.957 5.248-11.779 20.613-14.724 40.637-20.613 20.024-5.889 38.87 0 67.139-14.135 28.269-14.134 18.257-44.17 35.926-54.771 8.834-5.3 20.907-5.006 30.625-14.135 9.717-9.129 29.292 1.776 34.774-3.707a2.956 2.956 0 013.289-.966 2.953 2.953 0 011.985 2.795v172.073c0 .388-.076.772-.225 1.13a2.94 2.94 0 01-2.728 1.824H7.954A2.954 2.954 0 015 248.836z" opacity=".996"/>
    </g>
    <g filter="url(#filter5_d)" opacity=".996">
      <path fill="#3889FF" d="M10.324 251.192v-18.601a2.958 2.958 0 011.824-2.729 2.962 2.962 0 011.13-.224H27.07c11.524 0 32.726-2.577 43.327-10.823 10.601-8.245 18.847-3.533 31.803-11.778 12.957-8.246 15.313-16.491 27.092-17.669 11.778-1.178 16.49 2.356 22.379 7.068a49.098 49.098 0 0021.202 9.423c7.068 1.178 15.313 2.355 17.669-12.957 2.355-15.313 12.956-22.38 32.98-28.269 20.024-5.89 44.76 10.601 73.029-3.534 28.269-14.135 25.914-69.495 43.582-80.096 8.834-5.3 32.686 19.73 42.404 10.6 9.717-9.128 11.19-11.091 12.395-12.633a2.948 2.948 0 013.289-.966 2.954 2.954 0 011.984 2.795v170.393a2.958 2.958 0 01-.864 2.089 2.954 2.954 0 01-2.089.865H13.278a2.954 2.954 0 01-2.954-2.954z" opacity=".996"/>
    </g>
    <g filter="url(#filter6_d)">
      <path fill="#011A6E" d="M144.789 195.035c6.917 2.687 9.828 6.228 9.828 8.681 0 2.452-11.981-1.907-14.158-2.725-2.178-.818-2.996-3.864-2.315-5.474.681-1.61 2.533-2.079 6.645-.482z"/>
    </g>
    <g filter="url(#filter7_d)">
      <path fill="#9ECDFE" d="M131.109 83.576c-4.508 1.186-13.765 11.212-16.246 17.414-2.722 6.812-2.178 8.719-1.633 12.262.545 3.542 4.084 4.632 5.445 4.632 1.362 0 17.516-35.646 12.434-34.308"/>
    </g>
    <g filter="url(#filter8_d)">
      <path fill="#011A6E" d="M134.849 136.707c8.534 16.929-.951 38.74-12.051 45.205-11.099 6.466-31.524 12.469-33.625 9.998-2.102-2.472-3.564-8.111-.727-9.756 2.836-1.646 25.874-7.049 25.29-20.669-.411-9.591-6.253-15.126-3.96-19.831 2.293-4.704 20.167-14.681 25.073-4.947"/>
    </g>
    <g filter="url(#filter9_d)">
      <path fill="#011A6E" d="M88.998 186.277c-2.245-2.247-4.356-1.907-4.901.818-.545 2.725 1.36 8.447 1.906 10.627.546 2.18 2.995 5.177 5.445 4.087 2.45-1.089 1.36-11.717-2.45-15.531"/>
    </g>
    <g filter="url(#filter10_d)">
      <path fill="#011A6E" d="M132.563 132.598c18.946 0 34.579 17.439 35.668 30.246 1.089 12.807-14.703 31.557-17.834 32.399-3.131.841-9.394.297-9.666-2.972-.272-3.27 14.159-26.158 5.174-29.972-8.83-3.749-14.88-2.658-19.604-4.905-16.609-7.902-8.169-24.796 6.262-24.796z"/>
    </g>
    <g filter="url(#filter11_d)">
      <path fill="#3788FE" d="M158.5 71.5c-2 14.5-7.137 13.869-13.14 13.869-6.003 0-12.028-5.966-12.028-14.249 0-8.283 7.387-14.362 13.39-14.362C154 56 159.672 63 158.5 71.5z"/>
    </g>
    <g filter="url(#filter12_d)">
      <path fill="#011A6E" d="M151.48 56.767c-3.611-1.18-13.756-2.277-16.884 7.113s-1.522 13.345-1.187 14.499c.334 1.154 2.129 3.94 4.644 4.254 2.514.313 6.21.313 7.631-1.68 1.422-1.991 4.161-5.527 5.208-7.031 1.047-1.504-.156-4.604.588-6.753.743-2.15 2.449-.157 3.302-.727.853-.569 2.002-2.52 1.718-3.942-.284-1.423.207-4.025-5.02-5.733z"/>
    </g>
    <g filter="url(#filter13_d)">
      <path fill="#3788FE" d="M197.457 107.665a4.317 4.317 0 01-5.154 4.233 4.306 4.306 0 01-3.388-3.391 4.319 4.319 0 011.834-4.43 4.304 4.304 0 015.445.536 4.317 4.317 0 011.263 3.052"/>
    </g>
    <g filter="url(#filter14_d)">
      <path fill="#9ECDFE" d="M113.338 143.867c-5.47-2.347-6.07-.486-6.313-5.831-.243-5.345 7.039-17.91 8.384-24.784 1.87-9.555 6.653-25.034 13.886-28.884 9.287-4.941 27.5.944 32.113 10.663 4.613 9.719 11.411 17.98 18.937 16.522 7.526-1.458 6.312-4.616 9.225-3.888 2.914.729 5.099 3.888 2.186 7.289-2.913 3.402-17.48 11.905-27.191 5.345-9.711-6.56-12.576-14.168-14.032-12.224-1.456 1.944-.703 6.119-4.628 17.166-4.357 12.262-.553 10.959-10.347 16.349-5.445 2.997-18.821 3.734-22.22 2.277"/>
    </g>
    <g filter="url(#filter15_d)">
      <path fill="#3788FE" d="M156.202 69.287c0 1.73-1.02 3.13-2.275 3.13s-2.275-1.402-2.275-3.13c0-1.727 1.02-3.13 2.275-3.13s2.275 1.404 2.275 3.13z"/>
    </g>
    <g filter="url(#filter16_d)" opacity=".996">
      <g filter="url(#filter17_d)">
        <path fill="#fff" d="M266.432 180.259a1.177 1.177 0 01-1.178-1.178v-6.007a1.177 1.177 0 112.356 0v6.007a1.179 1.179 0 01-1.178 1.178zm0-12.015a1.177 1.177 0 01-1.178-1.177v-6.008a1.179 1.179 0 012.356 0v6.008a1.175 1.175 0 01-1.178 1.177zm0-12.014a1.177 1.177 0 01-1.178-1.178v-6.007a1.179 1.179 0 012.356 0v6.007a1.177 1.177 0 01-1.178 1.178zm0-12.014a1.177 1.177 0 01-1.178-1.178v-6.007a1.177 1.177 0 112.356 0v6.007a1.179 1.179 0 01-1.178 1.178zm0-12.015a1.177 1.177 0 01-1.178-1.178v-6.007a1.179 1.179 0 012.356 0v6.007a1.177 1.177 0 01-1.178 1.178zm0-12.014a1.177 1.177 0 01-1.178-1.178v-6.007a1.177 1.177 0 112.356 0v6.007a1.179 1.179 0 01-1.178 1.178zm0-12.015a1.177 1.177 0 01-1.178-1.178v-6.007a1.179 1.179 0 012.356 0v6.007a1.177 1.177 0 01-1.178 1.178zm0-12.014a1.177 1.177 0 01-1.178-1.178v-6.007a1.177 1.177 0 112.356 0v6.007a1.177 1.177 0 01-1.178 1.178z"/>
      </g>
      <g filter="url(#filter18_d)">
        <path fill="#fff" d="M307.204 76.464h-80.37A8.835 8.835 0 01218 67.63V48.834A8.837 8.837 0 01226.834 40h80.37a8.83 8.83 0 018.834 8.834v18.793a8.834 8.834 0 01-8.834 8.834"/>
      </g>
      <path fill="#9ECDFE" d="M231.295 67.322h-2.615v-19.4a.756.756 0 00-1.512 0v20.156c0 .417.338.755.756.755h20.155a.756.756 0 000-1.511h-2.34v-7.258a.516.516 0 00-.515-.516h-3.096a.516.516 0 00-.516.516v7.258h-1.031V55.937a.516.516 0 00-.516-.516h-3.095a.516.516 0 00-.516.516v11.385h-1.032V50.778a.516.516 0 00-.516-.516h-3.095a.516.516 0 00-.516.516v16.544z"/>
      <g filter="url(#filter19_d)">
        <path fill="#fff" d="M266.432 84.144a1.177 1.177 0 01-1.178-1.178V80.02a1.177 1.177 0 112.356 0v2.945a1.177 1.177 0 01-1.178 1.178z"/>
      </g>
      <path fill="#001C79" d="M262.731 53.224a.881.881 0 01-.883-.883 1.072 1.072 0 00-2.144 0 .886.886 0 01-.883.883.886.886 0 01-.883-.883 2.84 2.84 0 012.838-2.839 2.837 2.837 0 012.839 2.839.882.882 0 01-.884.883"/>
      <path fill="#001C79" d="M264.686 55.18a2.842 2.842 0 01-2.838-2.84.885.885 0 01.883-.883.885.885 0 01.883.884 1.072 1.072 0 002.144 0 .882.882 0 011.508-.625c.166.166.259.39.259.625a2.843 2.843 0 01-2.839 2.839"/>
      <path fill="#001C79" d="M270.555 53.224a.885.885 0 01-.883-.883 1.077 1.077 0 00-1.072-1.107 1.072 1.072 0 00-1.071 1.107.882.882 0 01-1.508.624.882.882 0 01-.259-.624 2.837 2.837 0 011.739-2.675 2.837 2.837 0 013.938 2.675.886.886 0 01-.884.883z"/>
      <path fill="#001C79" d="M272.503 55.18a2.84 2.84 0 01-2.839-2.84.882.882 0 011.508-.624c.166.166.259.39.259.625a1.072 1.072 0 002.144 0 .885.885 0 01.883-.883.885.885 0 01.883.883 2.839 2.839 0 01-2.838 2.839"/>
      <path fill="#001C79" d="M278.368 53.224a.883.883 0 01-.884-.883 1.062 1.062 0 00-.301-.78 1.064 1.064 0 00-.77-.328 1.068 1.068 0 00-1 .687 1.062 1.062 0 00-.071.42.882.882 0 01-1.508.625.882.882 0 01-.259-.624 2.836 2.836 0 012.838-2.897 2.842 2.842 0 012.639 1.793c.139.351.207.726.199 1.104a.882.882 0 01-.883.883"/>
      <path fill="#001C79" d="M280.327 55.18a2.84 2.84 0 01-2.839-2.84.882.882 0 011.508-.624c.166.166.259.39.259.625a1.072 1.072 0 002.144 0 .882.882 0 011.508-.625c.166.166.259.39.259.625a2.844 2.844 0 01-2.839 2.839M288.245 55.18a2.84 2.84 0 01-2.839-2.84.882.882 0 011.508-.624c.166.166.259.39.259.625a1.072 1.072 0 002.144 0 .882.882 0 011.508-.625c.166.166.259.39.259.625a2.844 2.844 0 01-2.839 2.839"/>
      <path fill="#001C79" d="M294.114 53.224a.883.883 0 01-.884-.883 1.062 1.062 0 00-.301-.78 1.064 1.064 0 00-.77-.328 1.068 1.068 0 00-1 .687 1.062 1.062 0 00-.071.42.882.882 0 01-1.508.625.882.882 0 01-.259-.624 2.836 2.836 0 012.838-2.897 2.838 2.838 0 012.838 2.897.882.882 0 01-.883.883"/>
      <path fill="#001C79" d="M296.065 55.18a2.842 2.842 0 01-2.838-2.84.885.885 0 01.883-.883.885.885 0 01.883.884 1.072 1.072 0 002.144 0 .882.882 0 011.508-.625c.166.166.259.39.259.625a2.84 2.84 0 01-2.839 2.839"/>
      <path fill="#001C79" d="M301.93 53.224a.885.885 0 01-.883-.883 1.077 1.077 0 00-1.072-1.107 1.072 1.072 0 00-1.071 1.107.882.882 0 01-1.508.624.882.882 0 01-.259-.624 2.837 2.837 0 011.739-2.675 2.837 2.837 0 013.938 2.675.886.886 0 01-.884.883z"/>
      <path fill="#001C79" d="M303.886 55.18a2.845 2.845 0 01-2.839-2.84.882.882 0 011.508-.624c.166.166.259.39.259.625a1.072 1.072 0 002.143 0 .886.886 0 01.884-.883.885.885 0 01.883.883 2.843 2.843 0 01-2.838 2.839"/>
      <g opacity=".996">
        <path fill="#3889FF" d="M260.598 62.353a.587.587 0 01-.589-.59.61.61 0 10-1.218 0 .59.59 0 01-1.178 0 1.788 1.788 0 013.574 0 .587.587 0 01-.589.59z" opacity=".996"/>
        <path fill="#3889FF" d="M261.791 63.55a1.79 1.79 0 01-1.787-1.786.59.59 0 011.178 0 .61.61 0 001.219 0 .59.59 0 011.178 0 1.791 1.791 0 01-1.788 1.787" opacity=".996"/>
        <path fill="#3889FF" d="M265.387 62.353a.587.587 0 01-.589-.59.61.61 0 10-1.218 0 .59.59 0 01-1.178 0 1.79 1.79 0 012.471-1.65 1.787 1.787 0 011.103 1.65.59.59 0 01-.589.59z" opacity=".996"/>
        <path fill="#3889FF" d="M266.588 63.55a1.79 1.79 0 01-1.787-1.786.59.59 0 011.178 0 .61.61 0 101.218 0 .59.59 0 011.005-.417c.11.11.172.26.172.417a1.787 1.787 0 01-1.786 1.787" opacity=".996"/>
        <path fill="#3889FF" d="M270.184 62.353a.587.587 0 01-.589-.59.61.61 0 10-1.218 0 .59.59 0 01-1.178 0 1.784 1.784 0 011.787-1.786 1.79 1.79 0 011.787 1.787.587.587 0 01-.589.589z" opacity=".996"/>
        <path fill="#3889FF" d="M271.374 63.55a1.789 1.789 0 01-1.788-1.786.59.59 0 011.178 0 .61.61 0 001.219 0 .59.59 0 011.178 0 1.79 1.79 0 01-1.787 1.787" opacity=".996"/>
        <path fill="#3889FF" d="M275.024 62.353a.591.591 0 01-.589-.59.61.61 0 10-1.218 0 .587.587 0 01-.589.59.587.587 0 01-.589-.59 1.787 1.787 0 113.574 0 .587.587 0 01-.589.59z" opacity=".996"/>
        <path fill="#3889FF" d="M276.226 63.55a1.786 1.786 0 01-1.792-1.786.59.59 0 011.005-.417c.11.11.172.26.172.417a.61.61 0 001.04.43.61.61 0 00.178-.43.587.587 0 01.589-.59.59.59 0 01.589.59 1.787 1.787 0 01-1.787 1.787" opacity=".996"/>
        <path fill="#3889FF" d="M279.821 62.353a.59.59 0 01-.589-.59.606.606 0 00-.609-.608.609.609 0 00-.609.609.587.587 0 01-.589.589.591.591 0 01-.589-.59 1.787 1.787 0 113.574 0 .587.587 0 01-.589.59z" opacity=".996"/>
        <path fill="#3889FF" d="M281.024 63.55a1.79 1.79 0 01-1.79-1.786.587.587 0 01.589-.59.59.59 0 01.589.59.612.612 0 001.042.431.612.612 0 00.179-.431.59.59 0 011.005-.417c.11.11.172.26.172.417a1.787 1.787 0 01-1.786 1.787" opacity=".996"/>
        <path fill="#3889FF" d="M284.618 62.353a.59.59 0 01-.589-.59.61.61 0 00-1.04-.43.61.61 0 00-.178.43.587.587 0 01-.589.59.591.591 0 01-.589-.59 1.787 1.787 0 113.574 0 .591.591 0 01-.589.59z" opacity=".996"/>
        <path fill="#3889FF" d="M285.806 63.55a1.789 1.789 0 01-1.786-1.786.59.59 0 011.005-.417c.11.11.172.26.172.417a.613.613 0 00.61.583.612.612 0 00.61-.583.59.59 0 011.005-.417c.11.11.172.26.172.417a1.79 1.79 0 01-1.788 1.787" opacity=".996"/>
        <path fill="#3889FF" d="M289.466 62.353a.587.587 0 01-.589-.59.608.608 0 00-.609-.582.612.612 0 00-.61.583.59.59 0 01-1.005.416.591.591 0 01-.173-.416 1.789 1.789 0 013.575 0 .59.59 0 01-.589.589z" opacity=".996"/>
        <path fill="#3889FF" d="M290.663 63.55a1.789 1.789 0 01-1.788-1.786.587.587 0 01.589-.59.588.588 0 01.589.59.61.61 0 001.219 0 .59.59 0 011.178 0 1.79 1.79 0 01-1.787 1.787" opacity=".996"/>
        <path fill="#3889FF" d="M294.254 62.353a.587.587 0 01-.589-.59.61.61 0 10-1.218 0 .59.59 0 01-1.005.417.59.59 0 01-.172-.416 1.787 1.787 0 113.573 0 .59.59 0 01-.589.589z" opacity=".996"/>
        <path fill="#3889FF" d="M295.455 63.55a1.79 1.79 0 01-1.787-1.786.59.59 0 011.178 0 .61.61 0 101.219 0 .59.59 0 011.178 0 1.791 1.791 0 01-1.788 1.787" opacity=".996"/>
        <path fill="#3889FF" d="M299.055 62.353a.587.587 0 01-.589-.59.61.61 0 10-1.218 0 .59.59 0 01-1.178 0 1.788 1.788 0 013.574 0 .59.59 0 01-.589.59z" opacity=".996"/>
        <path fill="#3889FF" d="M300.25 63.55a1.787 1.787 0 01-1.781-1.786.59.59 0 011.178 0 .61.61 0 101.219 0 .59.59 0 011.178 0 1.791 1.791 0 01-1.788 1.787" opacity=".996"/>
        <path fill="#3889FF" d="M303.899 62.353a.591.591 0 01-.589-.59.61.61 0 10-1.218 0 .587.587 0 01-.589.59.587.587 0 01-.589-.59 1.783 1.783 0 011.103-1.65 1.787 1.787 0 012.471 1.65.587.587 0 01-.589.59z" opacity=".996"/>
        <path fill="#3889FF" d="M305.095 63.55a1.789 1.789 0 01-1.786-1.786.59.59 0 011.005-.417c.11.11.172.26.172.417a.613.613 0 00.61.583.612.612 0 00.61-.583.59.59 0 011.005-.417c.11.11.172.26.172.417a1.786 1.786 0 01-1.788 1.787" opacity=".996"/>
      </g>
      <g opacity=".996">
        <path fill="#3889FF" d="M260.598 67.064a.587.587 0 01-.589-.588.61.61 0 10-1.218 0 .59.59 0 01-1.178 0 1.788 1.788 0 013.574 0 .587.587 0 01-.589.588z" opacity=".996"/>
        <path fill="#3889FF" d="M261.791 68.262a1.79 1.79 0 01-1.787-1.787.59.59 0 011.178 0 .609.609 0 001.219 0 .59.59 0 011.178 0 1.792 1.792 0 01-1.788 1.787" opacity=".996"/>
        <path fill="#3889FF" d="M265.387 67.064a.587.587 0 01-.589-.588.61.61 0 10-1.218 0 .59.59 0 01-1.178 0 1.79 1.79 0 012.471-1.65 1.787 1.787 0 011.103 1.65.59.59 0 01-.589.588z" opacity=".996"/>
        <path fill="#3889FF" d="M266.588 68.262a1.79 1.79 0 01-1.787-1.787.59.59 0 011.178 0 .61.61 0 101.218 0 .59.59 0 011.005-.416c.11.11.172.26.172.416a1.786 1.786 0 01-1.786 1.787" opacity=".996"/>
        <path fill="#3889FF" d="M270.184 67.064a.587.587 0 01-.589-.588.61.61 0 10-1.218 0 .59.59 0 01-1.178 0 1.785 1.785 0 113.574 0 .587.587 0 01-.589.588z" opacity=".996"/>
        <path fill="#3889FF" d="M271.374 68.262a1.79 1.79 0 01-1.788-1.787.59.59 0 011.178 0 .609.609 0 001.219 0 .59.59 0 011.178 0 1.79 1.79 0 01-1.787 1.787" opacity=".996"/>
        <path fill="#3889FF" d="M275.024 67.064a.591.591 0 01-.589-.588.61.61 0 10-1.218 0 .587.587 0 01-.589.588.587.587 0 01-.589-.588 1.787 1.787 0 113.574 0 .587.587 0 01-.589.588z" opacity=".996"/>
        <path fill="#3889FF" d="M276.226 68.262a1.788 1.788 0 01-1.792-1.787.59.59 0 011.005-.416c.11.11.172.26.172.416a.61.61 0 001.04.431.61.61 0 00.178-.43.587.587 0 01.589-.59.59.59 0 01.589.59 1.786 1.786 0 01-1.787 1.786" opacity=".996"/>
        <path fill="#3889FF" d="M279.821 67.064a.59.59 0 01-.589-.588.606.606 0 00-.609-.61.609.609 0 00-.609.61.587.587 0 01-.589.588.591.591 0 01-.589-.588 1.787 1.787 0 113.574 0 .587.587 0 01-.589.588z" opacity=".996"/>
        <path fill="#3889FF" d="M281.024 68.262a1.79 1.79 0 01-1.79-1.787.587.587 0 01.589-.588.59.59 0 01.589.588.613.613 0 00.61.61.612.612 0 00.611-.61.59.59 0 011.005-.416c.11.11.172.26.172.416a1.786 1.786 0 01-1.786 1.787" opacity=".996"/>
        <path fill="#3889FF" d="M284.618 67.064a.59.59 0 01-.589-.588.61.61 0 00-1.04-.431.61.61 0 00-.178.43.587.587 0 01-.589.59.591.591 0 01-.589-.59 1.787 1.787 0 113.574 0 .591.591 0 01-.589.59z" opacity=".996"/>
        <path fill="#3889FF" d="M285.806 68.262a1.789 1.789 0 01-1.786-1.787.59.59 0 011.005-.416c.11.11.172.26.172.416a.613.613 0 00.61.584.612.612 0 00.61-.584.59.59 0 011.005-.416c.11.11.172.26.172.416a1.79 1.79 0 01-1.788 1.787" opacity=".996"/>
      </g>
      <g opacity=".996">
        <path fill="#A0CEFF" d="M15.66 253.548v-8.01a2.95 2.95 0 012.954-2.953h13.791c11.524 0 32.726-2.577 43.327-10.822 10.601-8.246 21.202-3.534 34.159-11.779 12.957-8.246 15.312-16.491 27.091-17.669 11.779-1.177 16.491 2.356 22.38 7.068a49.092 49.092 0 0021.202 9.423c7.067 1.178 18.633 1.284 24.736-12.957 7.067-16.49 3.533-43.582 23.557-49.471 20.024-5.889 34.159 28.269 62.428 14.135 28.269-14.135 48.293-75.385 65.962-85.986 17.668-10.601 34.158 5.89 40.048-2.356 1.555-2.177 1.767-2.847 2.972-4.389a2.948 2.948 0 013.289-.965 2.954 2.954 0 011.984 2.795v173.936a2.961 2.961 0 01-.864 2.088 2.957 2.957 0 01-2.089.866H18.614a2.955 2.955 0 01-2.954-2.954" opacity=".996"/>
      </g>
    </g>
  </g>
  <defs>
    <filter id="filter0_d" width="11.856" height="101.964" x="66.504" y="47.795" color-interpolation-filters="sRGB" filterUnits="userSpaceOnUse">
      <feFlood flood-opacity="0" result="BackgroundImageFix"/>
      <feColorMatrix in="SourceAlpha" values="0 0 0 0 0 0 0 0 0 0 0 0 0 0 0 0 0 0 127 0"/>
      <feOffset dy="4.75"/>
      <feGaussianBlur stdDeviation="2.375"/>
      <feColorMatrix values="0 0 0 0 0 0 0 0 0 0 0 0 0 0 0 0 0 0 0.25 0"/>
      <feBlend in2="BackgroundImageFix" result="effect1_dropShadow"/>
      <feBlend in="SourceGraphic" in2="effect1_dropShadow" result="shape"/>
    </filter>
    <filter id="filter1_d" width="11.856" height="101.964" x="66.504" y="144" color-interpolation-filters="sRGB" filterUnits="userSpaceOnUse">
      <feFlood flood-opacity="0" result="BackgroundImageFix"/>
      <feColorMatrix in="SourceAlpha" values="0 0 0 0 0 0 0 0 0 0 0 0 0 0 0 0 0 0 127 0"/>
      <feOffset dy="4.75"/>
      <feGaussianBlur stdDeviation="2.375"/>
      <feColorMatrix values="0 0 0 0 0 0 0 0 0 0 0 0 0 0 0 0 0 0 0.25 0"/>
      <feBlend in2="BackgroundImageFix" result="effect1_dropShadow"/>
      <feBlend in="SourceGraphic" in2="effect1_dropShadow" result="shape"/>
    </filter>
    <filter id="filter2_d" width="107.538" height="45.964" x="19.25" y="0" color-interpolation-filters="sRGB" filterUnits="userSpaceOnUse">
      <feFlood flood-opacity="0" result="BackgroundImageFix"/>
      <feColorMatrix in="SourceAlpha" values="0 0 0 0 0 0 0 0 0 0 0 0 0 0 0 0 0 0 127 0"/>
      <feOffset dy="4.75"/>
      <feGaussianBlur stdDeviation="2.375"/>
      <feColorMatrix values="0 0 0 0 0 0 0 0 0 0 0 0 0 0 0 0 0 0 0.25 0"/>
      <feBlend in2="BackgroundImageFix" result="effect1_dropShadow"/>
      <feBlend in="SourceGraphic" in2="effect1_dropShadow" result="shape"/>
    </filter>
    <filter id="filter3_d" width="11.856" height="14.8" x="66.504" y="38.843" color-interpolation-filters="sRGB" filterUnits="userSpaceOnUse">
      <feFlood flood-opacity="0" result="BackgroundImageFix"/>
      <feColorMatrix in="SourceAlpha" values="0 0 0 0 0 0 0 0 0 0 0 0 0 0 0 0 0 0 127 0"/>
      <feOffset dy="4.75"/>
      <feGaussianBlur stdDeviation="2.375"/>
      <feColorMatrix values="0 0 0 0 0 0 0 0 0 0 0 0 0 0 0 0 0 0 0.25 0"/>
      <feBlend in2="BackgroundImageFix" result="effect1_dropShadow"/>
      <feBlend in="SourceGraphic" in2="effect1_dropShadow" result="shape"/>
    </filter>
    <filter id="filter4_d" width="399.38" height="187.485" x=".25" y="73.805" color-interpolation-filters="sRGB" filterUnits="userSpaceOnUse">
      <feFlood flood-opacity="0" result="BackgroundImageFix"/>
      <feColorMatrix in="SourceAlpha" values="0 0 0 0 0 0 0 0 0 0 0 0 0 0 0 0 0 0 127 0"/>
      <feOffset dy="4.75"/>
      <feGaussianBlur stdDeviation="2.375"/>
      <feColorMatrix values="0 0 0 0 0 0 0 0 0 0 0 0 0 0 0 0 0 0 0.25 0"/>
      <feBlend in2="BackgroundImageFix" result="effect1_dropShadow"/>
      <feBlend in="SourceGraphic" in2="effect1_dropShadow" result="shape"/>
    </filter>
    <filter id="filter5_d" width="399.38" height="185.805" x="5.574" y="77.841" color-interpolation-filters="sRGB" filterUnits="userSpaceOnUse">
      <feFlood flood-opacity="0" result="BackgroundImageFix"/>
      <feColorMatrix in="SourceAlpha" values="0 0 0 0 0 0 0 0 0 0 0 0 0 0 0 0 0 0 127 0"/>
      <feOffset dy="4.75"/>
      <feGaussianBlur stdDeviation="2.375"/>
      <feColorMatrix values="0 0 0 0 0 0 0 0 0 0 0 0 0 0 0 0 0 0 0.25 0"/>
      <feBlend in2="BackgroundImageFix" result="effect1_dropShadow"/>
      <feBlend in="SourceGraphic" in2="effect1_dropShadow" result="shape"/>
    </filter>
    <filter id="filter6_d" width="24.707" height="18.409" x="133.91" y="194.047" color-interpolation-filters="sRGB" filterUnits="userSpaceOnUse">
      <feFlood flood-opacity="0" result="BackgroundImageFix"/>
      <feColorMatrix in="SourceAlpha" values="0 0 0 0 0 0 0 0 0 0 0 0 0 0 0 0 0 0 127 0"/>
      <feOffset dy="4"/>
      <feGaussianBlur stdDeviation="2"/>
      <feColorMatrix values="0 0 0 0 0 0 0 0 0 0 0 0 0 0 0 0 0 0 0.25 0"/>
      <feBlend in2="BackgroundImageFix" result="effect1_dropShadow"/>
      <feBlend in="SourceGraphic" in2="effect1_dropShadow" result="shape"/>
    </filter>
    <filter id="filter7_d" width="27.31" height="42.345" x="108.785" y="83.539" color-interpolation-filters="sRGB" filterUnits="userSpaceOnUse">
      <feFlood flood-opacity="0" result="BackgroundImageFix"/>
      <feColorMatrix in="SourceAlpha" values="0 0 0 0 0 0 0 0 0 0 0 0 0 0 0 0 0 0 127 0"/>
      <feOffset dy="4"/>
      <feGaussianBlur stdDeviation="2"/>
      <feColorMatrix values="0 0 0 0 0 0 0 0 0 0 0 0 0 0 0 0 0 0 0.25 0"/>
      <feBlend in2="BackgroundImageFix" result="effect1_dropShadow"/>
      <feBlend in="SourceGraphic" in2="effect1_dropShadow" result="shape"/>
    </filter>
    <filter id="filter8_d" width="59.273" height="67.886" x="82.871" y="132.592" color-interpolation-filters="sRGB" filterUnits="userSpaceOnUse">
      <feFlood flood-opacity="0" result="BackgroundImageFix"/>
      <feColorMatrix in="SourceAlpha" values="0 0 0 0 0 0 0 0 0 0 0 0 0 0 0 0 0 0 127 0"/>
      <feOffset dy="4"/>
      <feGaussianBlur stdDeviation="2"/>
      <feColorMatrix values="0 0 0 0 0 0 0 0 0 0 0 0 0 0 0 0 0 0 0.25 0"/>
      <feBlend in2="BackgroundImageFix" result="effect1_dropShadow"/>
      <feBlend in="SourceGraphic" in2="effect1_dropShadow" result="shape"/>
    </filter>
    <filter id="filter9_d" width="16.756" height="25.244" x="80" y="184.796" color-interpolation-filters="sRGB" filterUnits="userSpaceOnUse">
      <feFlood flood-opacity="0" result="BackgroundImageFix"/>
      <feColorMatrix in="SourceAlpha" values="0 0 0 0 0 0 0 0 0 0 0 0 0 0 0 0 0 0 127 0"/>
      <feOffset dy="4"/>
      <feGaussianBlur stdDeviation="2"/>
      <feColorMatrix values="0 0 0 0 0 0 0 0 0 0 0 0 0 0 0 0 0 0 0.25 0"/>
      <feBlend in2="BackgroundImageFix" result="effect1_dropShadow"/>
      <feBlend in="SourceGraphic" in2="effect1_dropShadow" result="shape"/>
    </filter>
    <filter id="filter10_d" width="59.117" height="70.997" x="113.168" y="132.598" color-interpolation-filters="sRGB" filterUnits="userSpaceOnUse">
      <feFlood flood-opacity="0" result="BackgroundImageFix"/>
      <feColorMatrix in="SourceAlpha" values="0 0 0 0 0 0 0 0 0 0 0 0 0 0 0 0 0 0 127 0"/>
      <feOffset dy="4"/>
      <feGaussianBlur stdDeviation="2"/>
      <feColorMatrix values="0 0 0 0 0 0 0 0 0 0 0 0 0 0 0 0 0 0 0.25 0"/>
      <feBlend in2="BackgroundImageFix" result="effect1_dropShadow"/>
      <feBlend in="SourceGraphic" in2="effect1_dropShadow" result="shape"/>
    </filter>
    <filter id="filter11_d" width="33.322" height="36.671" x="129.332" y="56.701" color-interpolation-filters="sRGB" filterUnits="userSpaceOnUse">
      <feFlood flood-opacity="0" result="BackgroundImageFix"/>
      <feColorMatrix in="SourceAlpha" values="0 0 0 0 0 0 0 0 0 0 0 0 0 0 0 0 0 0 127 0"/>
      <feOffset dy="4"/>
      <feGaussianBlur stdDeviation="2"/>
      <feColorMatrix values="0 0 0 0 0 0 0 0 0 0 0 0 0 0 0 0 0 0 0.25 0"/>
      <feBlend in2="BackgroundImageFix" result="effect1_dropShadow"/>
      <feBlend in="SourceGraphic" in2="effect1_dropShadow" result="shape"/>
    </filter>
    <filter id="filter12_d" width="31.845" height="34.785" x="128.699" y="56" color-interpolation-filters="sRGB" filterUnits="userSpaceOnUse">
      <feFlood flood-opacity="0" result="BackgroundImageFix"/>
      <feColorMatrix in="SourceAlpha" values="0 0 0 0 0 0 0 0 0 0 0 0 0 0 0 0 0 0 127 0"/>
      <feOffset dy="4"/>
      <feGaussianBlur stdDeviation="2"/>
      <feColorMatrix values="0 0 0 0 0 0 0 0 0 0 0 0 0 0 0 0 0 0 0.25 0"/>
      <feBlend in2="BackgroundImageFix" result="effect1_dropShadow"/>
      <feBlend in="SourceGraphic" in2="effect1_dropShadow" result="shape"/>
    </filter>
    <filter id="filter13_d" width="16.625" height="16.632" x="184.832" y="103.349" color-interpolation-filters="sRGB" filterUnits="userSpaceOnUse">
      <feFlood flood-opacity="0" result="BackgroundImageFix"/>
      <feColorMatrix in="SourceAlpha" values="0 0 0 0 0 0 0 0 0 0 0 0 0 0 0 0 0 0 127 0"/>
      <feOffset dy="4"/>
      <feGaussianBlur stdDeviation="2"/>
      <feColorMatrix values="0 0 0 0 0 0 0 0 0 0 0 0 0 0 0 0 0 0 0.25 0"/>
      <feBlend in2="BackgroundImageFix" result="effect1_dropShadow"/>
      <feBlend in="SourceGraphic" in2="effect1_dropShadow" result="shape"/>
    </filter>
    <filter id="filter14_d" width="94.112" height="70.008" x="103.02" y="82.583" color-interpolation-filters="sRGB" filterUnits="userSpaceOnUse">
      <feFlood flood-opacity="0" result="BackgroundImageFix"/>
      <feColorMatrix in="SourceAlpha" values="0 0 0 0 0 0 0 0 0 0 0 0 0 0 0 0 0 0 127 0"/>
      <feOffset dy="4"/>
      <feGaussianBlur stdDeviation="2"/>
      <feColorMatrix values="0 0 0 0 0 0 0 0 0 0 0 0 0 0 0 0 0 0 0.25 0"/>
      <feBlend in2="BackgroundImageFix" result="effect1_dropShadow"/>
      <feBlend in="SourceGraphic" in2="effect1_dropShadow" result="shape"/>
    </filter>
    <filter id="filter15_d" width="12.549" height="14.26" x="147.652" y="66.158" color-interpolation-filters="sRGB" filterUnits="userSpaceOnUse">
      <feFlood flood-opacity="0" result="BackgroundImageFix"/>
      <feColorMatrix in="SourceAlpha" values="0 0 0 0 0 0 0 0 0 0 0 0 0 0 0 0 0 0 127 0"/>
      <feOffset dy="4"/>
      <feGaussianBlur stdDeviation="2"/>
      <feColorMatrix values="0 0 0 0 0 0 0 0 0 0 0 0 0 0 0 0 0 0 0.25 0"/>
      <feBlend in2="BackgroundImageFix" result="effect1_dropShadow"/>
      <feBlend in="SourceGraphic" in2="effect1_dropShadow" result="shape"/>
    </filter>
    <filter id="filter16_d" width="399.38" height="226.002" x="10.91" y="40" color-interpolation-filters="sRGB" filterUnits="userSpaceOnUse">
      <feFlood flood-opacity="0" result="BackgroundImageFix"/>
      <feColorMatrix in="SourceAlpha" values="0 0 0 0 0 0 0 0 0 0 0 0 0 0 0 0 0 0 127 0"/>
      <feOffset dy="4.75"/>
      <feGaussianBlur stdDeviation="2.375"/>
      <feColorMatrix values="0 0 0 0 0 0 0 0 0 0 0 0 0 0 0 0 0 0 0.25 0"/>
      <feBlend in2="BackgroundImageFix" result="effect1_dropShadow"/>
      <feBlend in="SourceGraphic" in2="effect1_dropShadow" result="shape"/>
    </filter>
    <filter id="filter17_d" width="11.856" height="101.964" x="260.504" y="87.795" color-interpolation-filters="sRGB" filterUnits="userSpaceOnUse">
      <feFlood flood-opacity="0" result="BackgroundImageFix"/>
      <feColorMatrix in="SourceAlpha" values="0 0 0 0 0 0 0 0 0 0 0 0 0 0 0 0 0 0 127 0"/>
      <feOffset dy="4.75"/>
      <feGaussianBlur stdDeviation="2.375"/>
      <feColorMatrix values="0 0 0 0 0 0 0 0 0 0 0 0 0 0 0 0 0 0 0.25 0"/>
      <feBlend in2="BackgroundImageFix" result="effect1_dropShadow"/>
      <feBlend in="SourceGraphic" in2="effect1_dropShadow" result="shape"/>
    </filter>
    <filter id="filter18_d" width="107.538" height="45.964" x="213.25" y="40" color-interpolation-filters="sRGB" filterUnits="userSpaceOnUse">
      <feFlood flood-opacity="0" result="BackgroundImageFix"/>
      <feColorMatrix in="SourceAlpha" values="0 0 0 0 0 0 0 0 0 0 0 0 0 0 0 0 0 0 127 0"/>
      <feOffset dy="4.75"/>
      <feGaussianBlur stdDeviation="2.375"/>
      <feColorMatrix values="0 0 0 0 0 0 0 0 0 0 0 0 0 0 0 0 0 0 0.25 0"/>
      <feBlend in2="BackgroundImageFix" result="effect1_dropShadow"/>
      <feBlend in="SourceGraphic" in2="effect1_dropShadow" result="shape"/>
    </filter>
    <filter id="filter19_d" width="11.856" height="14.8" x="260.504" y="78.843" color-interpolation-filters="sRGB" filterUnits="userSpaceOnUse">
      <feFlood flood-opacity="0" result="BackgroundImageFix"/>
      <feColorMatrix in="SourceAlpha" values="0 0 0 0 0 0 0 0 0 0 0 0 0 0 0 0 0 0 127 0"/>
      <feOffset dy="4.75"/>
      <feGaussianBlur stdDeviation="2.375"/>
      <feColorMatrix values="0 0 0 0 0 0 0 0 0 0 0 0 0 0 0 0 0 0 0.25 0"/>
      <feBlend in2="BackgroundImageFix" result="effect1_dropShadow"/>
      <feBlend in="SourceGraphic" in2="effect1_dropShadow" result="shape"/>
    </filter>
  </defs>
</svg>
