<svg xmlns="http://www.w3.org/2000/svg" width="27" height="27" fill="none" viewBox="0 0 27 27">
  <path fill="url(#paint0_linear)" fill-rule="evenodd" d="M5.333 0h16a5.333 5.333 0 015.334 5.333v16a5.333 5.333 0 01-5.334 5.334h-16A5.333 5.333 0 010 21.333v-16A5.333 5.333 0 015.333 0zm0 2.667a2.667 2.667 0 00-2.666 2.666v16A2.667 2.667 0 005.333 24h16A2.667 2.667 0 0024 21.333v-16a2.667 2.667 0 00-2.667-2.666h-16zM7.61 5.724l.391.39 1.724-1.723a1.333 1.333 0 011.886 1.885L8.943 8.943c-.52.52-1.365.52-1.886 0L5.724 7.609a1.333 1.333 0 111.885-1.885zM14.665 8a1.333 1.333 0 01.003-2.667l5.309.007a1.333 1.333 0 01-.004 2.667L14.665 8zm0 6.667A1.333 1.333 0 1114.668 12l5.309.007a1.333 1.333 0 01-.004 2.666l-5.308-.006zm0 6.666a1.333 1.333 0 11.003-2.666l5.309.006a1.333 1.333 0 11-.004 2.667l-5.308-.007zm-7.056-8.942l.391.39 1.724-1.724a1.333 1.333 0 011.886 1.886L8.943 15.61c-.52.52-1.365.52-1.886 0l-1.333-1.334a1.333 1.333 0 111.885-1.886zm0 6.666l.391.39 1.724-1.723a1.333 1.333 0 011.886 1.886l-2.667 2.666c-.52.52-1.365.52-1.886 0l-1.333-1.333a1.333 1.333 0 111.885-1.886z" clip-rule="evenodd"/>
  <defs>
    <linearGradient id="paint0_linear" x1="13.333" x2="13.333" y1="0" y2="26.667" gradientUnits="userSpaceOnUse">
      <stop stop-color="#369AFF"/>
      <stop offset="1" stop-color="#0340FF"/>
    </linearGradient>
  </defs>
</svg>
