<svg xmlns="http://www.w3.org/2000/svg" width="32" height="32" fill="none" viewBox="0 0 32 32">
  <path fill="url(#paint0_linear)" fill-rule="evenodd" d="M29.335 6.667v18.909c0 2.072-1.669 3.757-3.734 3.757h-19.2c-2.065 0-3.733-1.685-3.733-3.757V6.666a4 4 0 014-4h18.667a4 4 0 014 4zm-2.667 17.105a3.994 3.994 0 01-1.333.228H6.668c-.468 0-.916-.08-1.333-.227v1.803c0 .605.48 1.09 1.066 1.09h19.2c.586 0 1.067-.485 1.067-1.09v-1.803zm0-3.772V6.667c0-.737-.597-1.334-1.333-1.334H6.668c-.736 0-1.333.597-1.333 1.334V20c0 .736.597 1.333 1.333 1.333h18.667c.736 0 1.333-.596 1.333-1.333zM17.335 8h1.27c.737 0 1.334.597 1.334 1.333v.606a1.333 1.333 0 01-2.451.728h-2.801V12h2.648A2.667 2.667 0 0120 14.668V16a2.667 2.667 0 01-2.666 2.667 1.333 1.333 0 01-2.667 0h-1.333c-.75 0-1.352-.618-1.333-1.367l.018-.734A1.333 1.333 0 0114.544 16h2.79v-1.332h-2.647a2.667 2.667 0 01-2.667-2.667v-1.334A2.667 2.667 0 0114.668 8a1.333 1.333 0 112.667 0z" clip-rule="evenodd"/>
  <defs>
    <linearGradient id="paint0_linear" x1="16.001" x2="16.001" y1="2.667" y2="29.333" gradientUnits="userSpaceOnUse">
      <stop stop-color="#369AFF"/>
      <stop offset="1" stop-color="#0340FF"/>
    </linearGradient>
  </defs>
</svg>
