<svg xmlns="http://www.w3.org/2000/svg" width="32" height="32" fill="none" viewBox="0 0 32 32">
  <path fill="url(#paint0_linear)" fill-rule="evenodd" d="M26.304 7.536A13.279 13.279 0 0129.334 16c0 7.364-5.969 13.333-13.333 13.333-7.363 0-13.333-5.97-13.333-13.333 0-7.364 5.97-13.333 13.333-13.333 3.19 0 6.118 1.12 8.413 2.988l.735-.734.349-1.86a1.333 1.333 0 012.62.493l-.076.405.406-.076a1.333 1.333 0 01.492 2.62l-1.974.371-.662.662zm-3.788.017a10.62 10.62 0 00-6.515-2.22C10.111 5.333 5.335 10.11 5.335 16S10.11 26.667 16 26.667 26.668 21.89 26.668 16a10.62 10.62 0 00-2.26-6.567l-1.905 1.905A8 8 0 1120.61 9.46l1.906-1.907zm-3.835 3.835a5.333 5.333 0 101.898 1.874l-2.011 2.011A2.67 2.67 0 0116 18.667a2.667 2.667 0 11.654-5.253l2.026-2.026z" clip-rule="evenodd"/>
  <defs>
    <linearGradient id="paint0_linear" x1="16.348" x2="16.348" y1="1.974" y2="29.333" gradientUnits="userSpaceOnUse">
      <stop stop-color="#2378FF"/>
      <stop offset="1" stop-color="#0340FF"/>
    </linearGradient>
  </defs>
</svg>
