<svg xmlns="http://www.w3.org/2000/svg" width="32" height="32" fill="none" viewBox="0 0 32 32">
  <path fill="url(#paint0_linear)" fill-rule="evenodd" d="M16.536 2.902l11.116 6.222c1.147.642 1.258 2.204.335 3.025v10.407c1.206 1.29 1.853 2.386 1.853 3.368 0 1.718-1.383 3.111-3.088 3.111s-3.087-1.393-3.087-3.111c0-.982.647-2.078 1.852-3.368v-8.974l-.617.346v6.921c0 .455-.165.893-.463 1.234-1.774 2.03-4.725 2.984-8.801 2.984-4.076 0-7.027-.954-8.8-2.984a1.875 1.875 0 01-.463-1.234v-6.921l-2.752-1.54c-1.27-.712-1.27-2.553 0-3.264l11.116-6.222a1.84 1.84 0 011.8 0zM5.792 10.756l9.844 5.51 9.845-5.51-9.845-5.51-9.844 5.51zm20.605 14.649c-.188.294-.262.487-.262.519a.62.62 0 00.617.622.62.62 0 00.618-.622c0-.032-.074-.225-.263-.52a6.09 6.09 0 00-.355-.491c-.14.175-.258.34-.355.492zM15.636 18.87c.523 0 1.039-.133 1.5-.391l5.293-2.963v5.088c-1.257 1.292-3.498 1.973-6.793 1.973s-5.536-.681-6.793-1.973v-5.088l5.294 2.963c.46.258.976.391 1.499.391z" clip-rule="evenodd"/>
  <defs>
    <linearGradient id="paint0_linear" x1="16.254" x2="16.254" y1="2.667" y2="29.035" gradientUnits="userSpaceOnUse">
      <stop stop-color="#369AFF"/>
      <stop offset="1" stop-color="#0340FF"/>
    </linearGradient>
  </defs>
</svg>
