<svg xmlns="http://www.w3.org/2000/svg" width="40" height="40" fill="none" viewBox="0 0 40 40">
  <path fill="url(#paint0_linear)" fill-rule="evenodd" d="M16.05 17.982c-.302-.317-.357-1.056.033-1.932 1.463-3.91 1.66-4.635.724-5.621L10.79 4.097c-1.155-1.216-2.99-.907-4.126.288-4.444 4.678-4.444 12.23 0 16.908l11.238 11.829c4.49 4.726 11.807 4.726 16.298 0 1.097-1.156 1.37-2.942.273-4.095l-6.015-6.332c-1.008-1.062-1.693-.854-5.451.7-.866.423-1.46.374-1.725.096l-5.233-5.509zM31.684 30.93c-3.182 3.24-8.222 3.205-11.365-.103L9.082 18.997c-3.15-3.315-3.22-8.676-.213-12.084l5.01 5.274-.012.042c-.157.575-.448 1.434-.868 2.56-.857 1.919-.695 4.09.634 5.49l5.234 5.508c1.367 1.439 3.537 1.619 5.515.643.917-.376 1.695-.669 2.233-.837l5.07 5.336z" clip-rule="evenodd"/>
  <path fill="url(#paint1_linear)" d="M22.832 17c0-.736-.597-1.333-1.333-1.333a1.667 1.667 0 110-3.334A4.667 4.667 0 0126.165 17a1.667 1.667 0 01-3.333 0z"/>
  <path fill="url(#paint2_linear)" d="M21.499 11.167A5.833 5.833 0 0127.332 17a1.667 1.667 0 003.333 0A9.167 9.167 0 0021.5 7.833a1.667 1.667 0 100 3.334z"/>
  <path fill="url(#paint3_linear)" d="M31.832 17c0-5.707-4.626-10.333-10.333-10.333a1.667 1.667 0 110-3.334c7.548 0 13.666 6.12 13.666 13.667a1.667 1.667 0 01-3.333 0z"/>
  <defs>
    <linearGradient id="paint0_linear" x1="19.252" x2="19.252" y1="3.323" y2="36.667" gradientUnits="userSpaceOnUse">
      <stop stop-color="#2378FF"/>
      <stop offset="1" stop-color="#0340FF"/>
    </linearGradient>
    <linearGradient id="paint1_linear" x1="19.252" x2="19.252" y1="3.323" y2="36.667" gradientUnits="userSpaceOnUse">
      <stop stop-color="#2378FF"/>
      <stop offset="1" stop-color="#0340FF"/>
    </linearGradient>
    <linearGradient id="paint2_linear" x1="19.252" x2="19.252" y1="3.323" y2="36.667" gradientUnits="userSpaceOnUse">
      <stop stop-color="#2378FF"/>
      <stop offset="1" stop-color="#0340FF"/>
    </linearGradient>
    <linearGradient id="paint3_linear" x1="19.252" x2="19.252" y1="3.323" y2="36.667" gradientUnits="userSpaceOnUse">
      <stop stop-color="#2378FF"/>
      <stop offset="1" stop-color="#0340FF"/>
    </linearGradient>
  </defs>
</svg>
