<svg xmlns="http://www.w3.org/2000/svg" width="32" height="32" fill="none" viewBox="0 0 32 32">
  <path fill="url(#paint0_linear)" fill-rule="evenodd" d="M7.601 4h16.8c2.721 0 4.934 2.185 4.934 4.889V23.11c0 2.704-2.213 4.889-4.934 4.889h-16.8c-2.72 0-4.933-2.185-4.933-4.889V8.89C2.668 6.185 4.88 4 7.601 4zm0 2.667c-1.255 0-2.266.998-2.266 2.222V23.11c0 1.224 1.01 2.222 2.266 2.222h16.8c1.256 0 2.267-.998 2.267-2.222V8.89c0-1.224-1.011-2.222-2.267-2.222h-16.8zm7.349 15.592c-.923.764-2.21.409-2.727-.617a2.103 2.103 0 01-.222-.945v-9.394c0-1.026.737-1.97 1.83-1.97.413 0 .805.148 1.119.408l5.675 4.698c.727.602.907 1.674.488 2.506a1.918 1.918 0 01-.488.616L14.95 22.26zm-.282-9.29v6.061l3.66-3.03-3.66-3.03z" clip-rule="evenodd"/>
  <defs>
    <linearGradient id="paint0_linear" x1="16.001" x2="16.001" y1="4" y2="28" gradientUnits="userSpaceOnUse">
      <stop stop-color="#369AFF"/>
      <stop offset="1" stop-color="#0340FF"/>
    </linearGradient>
  </defs>
</svg>
