<svg width="379" height="221" viewBox="0 0 379 221" fill="none" xmlns="http://www.w3.org/2000/svg">
<g filter="url(#filter0_d)">
<path d="M230 117.5C230 135.399 224.692 152.896 214.748 167.779C204.804 182.662 190.67 194.261 174.133 201.111C157.596 207.961 139.4 209.753 121.844 206.261C104.289 202.769 88.1635 194.15 75.5069 181.493C62.8502 168.836 54.2309 152.711 50.739 135.156C47.247 117.6 49.0392 99.4038 55.8889 82.8671C62.7387 66.3304 74.3383 52.1963 89.2209 42.252C104.104 32.3077 121.601 27 139.5 27C163.502 27 186.521 36.5348 203.493 53.5068C220.465 70.4789 230 93.4979 230 117.5Z" fill="#011A6E"/>
</g>
<g filter="url(#filter1_d)">
<path d="M360.102 213H18.8977C14.9466 213 11.1573 211.367 8.36343 208.46C5.56957 205.553 4 201.611 4 197.5C4 193.389 5.56957 189.447 8.36343 186.54C11.1573 183.633 14.9466 182 18.8977 182H360.102C364.053 182 367.843 183.633 370.637 186.54C373.43 189.447 375 193.389 375 197.5C375 201.611 373.43 205.553 370.637 208.46C367.843 211.367 364.053 213 360.102 213Z" fill="#002DC3"/>
</g>
<g filter="url(#filter2_d)">
<path d="M163.563 186.4H146.043L163.043 196.5L163.563 186.4Z" fill="#388CFF"/>
</g>
<g filter="url(#filter3_d)">
<path d="M146.045 189.449V186.4L163.045 196.5V199.879L146.045 189.449Z" fill="#1A61FF"/>
</g>
<g filter="url(#filter4_d)">
<path d="M271.045 196.5H163.045V199.879H271.045V196.5Z" fill="#59A6F3"/>
</g>
<g filter="url(#filter5_d)">
<path d="M156.044 71C143.984 71 131.901 76.847 122.892 87.044C113.577 97.6824 108.474 111.36 108.544 125.5C108.698 140.144 113.951 154.275 123.4 165.464C132.817 176.608 145.08 183 157.044 183C169.177 183 183.073 176.247 194.215 164.936C205.864 153.112 212.544 138.374 212.544 124.5C212.544 121.727 212.604 119 212.661 116.359C212.961 102.765 213.213 91.025 205.284 82.921C197.326 74.788 181.684 71 156.044 71ZM164.887 180.984C164.85 181.22 164.731 181.435 164.55 181.59C164.369 181.746 164.138 181.832 163.9 181.832L163.746 181.82C163.616 181.8 163.491 181.755 163.379 181.686C163.267 181.618 163.169 181.529 163.091 181.423C163.014 181.317 162.958 181.197 162.927 181.069C162.895 180.941 162.89 180.809 162.91 180.679C163.001 180.091 171.987 121.623 171.241 100.206C171.236 100.075 171.257 99.9439 171.304 99.8209C171.35 99.6979 171.419 99.5851 171.509 99.4891C171.599 99.3931 171.706 99.3157 171.826 99.2613C171.945 99.2069 172.074 99.1765 172.206 99.172C172.329 99.1639 172.453 99.1806 172.57 99.2211C172.687 99.2616 172.795 99.3252 172.887 99.408C172.992 99.4985 173.078 99.6096 173.139 99.7345C173.199 99.8593 173.234 99.9953 173.241 100.134C173.989 121.664 164.978 180.393 164.887 180.984Z" fill="#0042E8"/>
</g>
<g filter="url(#filter6_d)">
<path d="M136.123 75.6289C136.123 71.3609 100.044 79.4999 82.0436 119.5C64.0436 159.5 93.0436 189.5 114.044 190.5C135.044 191.5 149.044 181.5 149.044 181.5C148.106 180.417 147.437 179.128 147.089 177.738C146.742 176.349 146.726 174.897 147.044 173.5C147.329 172.044 147.923 170.666 148.785 169.458C149.648 168.251 150.759 167.242 152.044 166.5C152.044 166.5 122.044 165.5 111.044 147.5C100.044 129.5 105.044 98.4999 122.044 87.4999C139.044 76.4999 136.123 78.7579 136.123 75.6289Z" fill="#0042E8"/>
</g>
<g filter="url(#filter7_d)">
<path d="M206.045 80.5C203.045 83.5 211.198 94.112 213.045 101.5C215.045 109.5 216.045 122.5 216.045 125.5C216.045 128.5 243.052 131.5 242.045 125.5C241.038 119.5 237.045 111.5 230.045 99.5C223.045 87.5 208.045 78.5 206.045 80.5Z" fill="#0042E8"/>
</g>
<g filter="url(#filter8_d)">
<path d="M156.044 92.5C156.044 92.5 164.044 105.5 166.044 103.5C168.044 101.5 169.044 94.5 171.044 96.5C173.044 98.5 171.044 97.5 173.044 96.5C175.044 95.5 177.044 101.5 178.044 102.5C179.044 103.5 186.044 94.5 190.044 83.5C194.044 72.5 182.044 88.5 174.044 87.5C166.044 86.5 161.43 79.5 159.236 80C157.042 80.5 155.044 90.5 156.044 92.5Z" fill="#1A5EF7"/>
</g>
<g filter="url(#filter9_d)">
<path d="M162.045 179.5C162.045 185.3 157.016 187.5 152.045 187.5C147.074 187.5 143.045 182.8 143.045 177C143.045 171.2 148.074 166.5 153.045 166.5C158.016 166.5 162.045 171.5 162.045 179.5Z" fill="#59A6F3"/>
</g>
<g filter="url(#filter10_d)">
<path d="M179.747 23.5002C174.047 12.5002 151.047 18.5002 142.047 34.5002C133.047 50.5002 126.047 74.5002 139.047 87.5002C152.047 100.5 163.672 93.6692 161.859 84.0842C160.046 74.4992 188.467 78.8642 188.759 82.1842C189.051 85.5042 193.049 87.5022 197.049 86.5022C201.049 85.5022 213.918 62.2672 212.483 44.8842C211.048 27.5012 203.044 19.5002 194.044 19.5002C185.044 19.5002 179.744 23.5002 179.744 23.5002" fill="#0000FF"/>
</g>
<g filter="url(#filter11_d)">
<path d="M181.045 28.5C165.045 28.5 152.045 44.76 152.045 60.5C152.045 76.24 161.345 88.5 174.045 88.5C186.745 88.5 201.045 72.74 201.045 57C201.045 41.26 193.745 28.5 181.045 28.5ZM170.045 44.5C170.031 44.5 167.345 44.611 163.752 48.207C163.563 48.3892 163.311 48.49 163.049 48.4877C162.786 48.4854 162.536 48.3802 162.35 48.1948C162.165 48.0094 162.06 47.7586 162.057 47.4964C162.055 47.2342 162.156 46.9816 162.338 46.793C166.582 42.549 169.905 42.5 170.045 42.5C170.31 42.5 170.564 42.6054 170.752 42.7929C170.94 42.9804 171.045 43.2348 171.045 43.5C171.045 43.7652 170.94 44.0196 170.752 44.2071C170.564 44.3946 170.31 44.5 170.045 44.5ZM175.545 82.5C175.05 82.5 174.567 82.3534 174.156 82.0787C173.745 81.804 173.424 81.4135 173.235 80.9567C173.046 80.4999 172.996 79.9972 173.093 79.5123C173.189 79.0273 173.428 78.5819 173.777 78.2322C174.127 77.8826 174.572 77.6445 175.057 77.548C175.542 77.4516 176.045 77.5011 176.502 77.6903C176.958 77.8795 177.349 78.2 177.624 78.6111C177.898 79.0222 178.045 79.5055 178.045 80C178.045 80.663 177.782 81.2989 177.313 81.7678C176.844 82.2366 176.208 82.5 175.545 82.5ZM184.689 74.466C183.728 75.2418 182.524 75.6536 181.289 75.629C180.806 75.6267 180.324 75.5768 179.851 75.48C179.591 75.4273 179.364 75.2738 179.217 75.0533C179.071 74.8327 179.018 74.5631 179.07 74.3035C179.122 74.044 179.274 73.8156 179.495 73.6685C179.715 73.5215 179.984 73.4677 180.244 73.519C180.784 73.6723 181.353 73.6979 181.905 73.5938C182.457 73.4897 182.977 73.2587 183.425 72.919C184.37 72.0193 184.948 70.8012 185.048 69.5C184.934 68.9566 184.711 68.4418 184.393 67.9867C184.075 67.5316 183.668 67.1456 183.197 66.852C182.22 66.33 180.997 66.498 179.562 67.357C179.41 67.4479 179.237 67.4969 179.06 67.4991C178.883 67.5013 178.709 67.4566 178.555 67.3695C178.401 67.2823 178.273 67.156 178.184 67.0032C178.095 66.8505 178.048 66.6768 178.048 66.5V60.015C178.048 59.7498 178.153 59.4954 178.341 59.3079C178.528 59.1204 178.783 59.015 179.048 59.015C179.313 59.015 179.567 59.1204 179.755 59.3079C179.943 59.4954 180.048 59.7498 180.048 60.015V64.915C180.719 64.6381 181.444 64.5149 182.169 64.5545C182.894 64.5942 183.601 64.7956 184.238 65.144C185.002 65.614 185.652 66.2495 186.138 67.0038C186.624 67.758 186.935 68.6117 187.048 69.502C187.001 70.444 186.769 71.3676 186.365 72.2198C185.961 73.072 185.392 73.836 184.692 74.468L184.689 74.466ZM194.74 48.307C194.475 48.3069 194.22 48.2015 194.033 48.014C190.433 44.414 187.754 44.307 187.727 44.307C187.463 44.3002 187.213 44.1902 187.03 44.0008C186.847 43.8114 186.745 43.5576 186.747 43.294C186.749 43.0318 186.854 42.7809 187.04 42.596C187.226 42.4111 187.478 42.3073 187.74 42.307C187.88 42.307 191.203 42.356 195.447 46.6C195.587 46.7399 195.682 46.918 195.721 47.112C195.759 47.3059 195.739 47.507 195.664 47.6897C195.588 47.8724 195.46 48.0285 195.295 48.1384C195.131 48.2483 194.938 48.307 194.74 48.307Z" fill="#59A6F3"/>
</g>
<g filter="url(#filter12_d)">
<path d="M271.045 196.5H163.045L166.802 123.244C166.938 120.586 169.133 118.5 171.795 118.5H274.393C277.38 118.5 279.701 121.102 279.36 124.07L271.045 196.5Z" fill="#A3D1FF"/>
</g>
<path d="M226.335 166.641H211.29L212.29 158.524H219.706C220.084 158.524 220.447 158.374 220.715 158.106C220.983 157.838 221.133 157.475 221.133 157.097C221.133 156.718 220.983 156.355 220.715 156.087C220.447 155.819 220.084 155.669 219.706 155.669H212.29L213.29 147.551H222.844C223.222 147.551 223.585 147.401 223.853 147.133C224.121 146.865 224.271 146.502 224.271 146.124C224.271 145.745 224.121 145.382 223.853 145.114C223.585 144.846 223.222 144.696 222.844 144.696H211.862C211.813 144.696 211.765 144.699 211.717 144.704C211.622 144.713 211.529 144.732 211.439 144.761C211.394 144.774 211.35 144.79 211.308 144.808C211.072 144.908 210.867 145.069 210.715 145.275C210.563 145.481 210.468 145.723 210.442 145.978C210.442 146.026 210.436 146.078 210.436 146.124L208.436 168.069C208.436 168.447 208.586 168.81 208.853 169.077C209.121 169.345 209.483 169.496 209.862 169.496H226.335C226.713 169.496 227.076 169.346 227.344 169.078C227.612 168.81 227.762 168.447 227.762 168.069C227.762 167.69 227.612 167.327 227.344 167.059C227.076 166.791 226.713 166.641 226.335 166.641Z" fill="white"/>
<path d="M226.335 155.668C224.968 155.669 223.631 156.075 222.494 156.835C221.358 157.595 220.472 158.675 219.949 159.938C219.426 161.202 219.29 162.592 219.557 163.933C219.824 165.274 220.483 166.505 221.45 167.472C222.417 168.439 223.649 169.097 224.99 169.363C226.331 169.63 227.721 169.493 228.984 168.969C230.248 168.446 231.327 167.56 232.087 166.423C232.846 165.286 233.252 163.949 233.252 162.582C233.249 160.749 232.519 158.991 231.223 157.695C229.926 156.399 228.168 155.67 226.335 155.668ZM230.397 162.582C230.398 163.386 230.16 164.172 229.714 164.84C229.268 165.509 228.634 166.031 227.891 166.339C227.149 166.647 226.332 166.728 225.543 166.571C224.755 166.415 224.031 166.028 223.462 165.46C222.893 164.892 222.506 164.168 222.349 163.379C222.192 162.591 222.272 161.774 222.58 161.031C222.888 160.289 223.408 159.654 224.077 159.208C224.745 158.761 225.531 158.523 226.335 158.523C227.411 158.524 228.444 158.952 229.205 159.713C229.967 160.473 230.395 161.505 230.397 162.582Z" fill="white"/>
<path d="M234.874 145.22C234.739 145.074 234.574 144.958 234.391 144.879C234.208 144.8 234.01 144.76 233.811 144.762C233.451 144.775 233.108 144.919 232.848 145.169C232.588 145.419 232.429 145.756 232.401 146.115L232.376 146.401C232.373 146.444 232.377 146.487 232.39 146.529C232.403 146.57 232.425 146.608 232.452 146.641C232.48 146.674 232.514 146.702 232.553 146.721C232.591 146.741 232.633 146.753 232.676 146.757L234.863 146.945C234.95 146.953 235.037 146.925 235.104 146.869C235.171 146.813 235.213 146.732 235.22 146.645L235.249 146.312C235.266 146.114 235.241 145.914 235.176 145.726C235.112 145.538 235.008 145.366 234.873 145.22" fill="white"/>
<path d="M234.831 147.321L232.643 147.133C232.6 147.129 232.557 147.134 232.515 147.147C232.474 147.16 232.436 147.181 232.403 147.209C232.37 147.237 232.343 147.271 232.323 147.31C232.303 147.348 232.291 147.39 232.287 147.433L230.599 167.081C230.594 167.138 230.603 167.194 230.627 167.246L231.554 169.285C231.578 169.338 231.616 169.384 231.664 169.418C231.712 169.452 231.767 169.472 231.826 169.477C231.884 169.482 231.943 169.472 231.995 169.446C232.048 169.421 232.093 169.382 232.126 169.334L233.387 167.483C233.419 167.437 233.439 167.382 233.443 167.326L235.132 147.677C235.136 147.634 235.131 147.591 235.118 147.549C235.105 147.508 235.084 147.47 235.056 147.437C235.028 147.404 234.994 147.377 234.956 147.357C234.917 147.337 234.875 147.325 234.832 147.321" fill="white"/>
<g filter="url(#filter13_d)">
<mask id="path-18-outside-1" maskUnits="userSpaceOnUse" x="159.371" y="52.7356" width="40" height="13" fill="black">
<rect fill="white" x="159.371" y="52.7356" width="40" height="13"/>
<path d="M193.466 54.1599L185.466 53.9759C184.339 53.9526 183.236 54.3112 182.338 54.9934C181.44 55.6756 180.799 56.6414 180.519 57.7339C179.76 57.5451 178.968 57.5358 178.204 57.7069C177.957 56.5168 177.283 55.458 176.31 54.7296C175.337 54.0013 174.131 53.6536 172.919 53.7519L164.947 54.4179C163.664 54.5271 162.471 55.1277 161.62 56.0944C160.768 57.0611 160.322 58.3193 160.375 59.6066C160.429 60.894 160.977 62.1111 161.906 63.0041C162.834 63.8971 164.072 64.3972 165.36 64.3999C165.499 64.3999 165.639 64.3949 165.781 64.3829L173.753 63.7159C175.007 63.6163 176.176 63.0432 177.023 62.1132C177.87 61.1831 178.331 59.9657 178.313 58.7079C178.989 58.5353 179.697 58.5415 180.369 58.7259C180.369 58.7719 180.353 58.8149 180.352 58.8609C180.324 60.1862 180.822 61.4687 181.737 62.4272C182.653 63.3857 183.911 63.942 185.236 63.9739L193.236 64.1579H193.353C194.01 64.1654 194.662 64.0434 195.271 63.799C195.881 63.5545 196.436 63.1925 196.905 62.7334C197.375 62.2744 197.75 61.7274 198.008 61.1236C198.266 60.5198 198.402 59.8711 198.41 59.2144C198.417 58.5578 198.295 57.9062 198.051 57.2967C197.806 56.6873 197.444 56.1319 196.985 55.6624C196.526 55.1928 195.979 54.8183 195.375 54.5602C194.772 54.302 194.123 54.1654 193.466 54.1579V54.1599ZM176.393 61.3149C176.055 61.7167 175.64 62.0473 175.173 62.2876C174.705 62.5279 174.195 62.6732 173.671 62.7149L165.699 63.3819C164.642 63.4703 163.593 63.135 162.783 62.4498C161.973 61.7646 161.468 60.7857 161.38 59.7284C161.292 58.6712 161.627 57.6221 162.312 56.812C162.997 56.002 163.976 55.4973 165.033 55.4089L173.005 54.7429C173.119 54.7339 173.232 54.7289 173.345 54.7289C174.108 54.7301 174.854 54.9491 175.496 55.36C176.138 55.7709 176.649 56.3566 176.969 57.0483C177.289 57.74 177.405 58.5087 177.303 59.2641C177.201 60.0195 176.886 60.73 176.393 61.3119V61.3149ZM193.352 63.1539H193.259L185.259 62.9699C184.198 62.9579 183.186 62.5249 182.444 61.7662C181.703 61.0075 181.293 59.9853 181.305 58.9244C181.317 57.8636 181.75 56.851 182.509 56.1093C183.267 55.3677 184.289 54.9579 185.35 54.9699H185.443L193.443 55.1539C194.504 55.166 195.517 55.599 196.258 56.3577C197 57.1164 197.41 58.1386 197.398 59.1994C197.386 60.2603 196.953 61.2729 196.194 62.0145C195.435 62.7562 194.413 63.166 193.352 63.1539Z"/>
</mask>
<path d="M193.466 54.1599L185.466 53.9759C184.339 53.9526 183.236 54.3112 182.338 54.9934C181.44 55.6756 180.799 56.6414 180.519 57.7339C179.76 57.5451 178.968 57.5358 178.204 57.7069C177.957 56.5168 177.283 55.458 176.31 54.7296C175.337 54.0013 174.131 53.6536 172.919 53.7519L164.947 54.4179C163.664 54.5271 162.471 55.1277 161.62 56.0944C160.768 57.0611 160.322 58.3193 160.375 59.6066C160.429 60.894 160.977 62.1111 161.906 63.0041C162.834 63.8971 164.072 64.3972 165.36 64.3999C165.499 64.3999 165.639 64.3949 165.781 64.3829L173.753 63.7159C175.007 63.6163 176.176 63.0432 177.023 62.1132C177.87 61.1831 178.331 59.9657 178.313 58.7079C178.989 58.5353 179.697 58.5415 180.369 58.7259C180.369 58.7719 180.353 58.8149 180.352 58.8609C180.324 60.1862 180.822 61.4687 181.737 62.4272C182.653 63.3857 183.911 63.942 185.236 63.9739L193.236 64.1579H193.353C194.01 64.1654 194.662 64.0434 195.271 63.799C195.881 63.5545 196.436 63.1925 196.905 62.7334C197.375 62.2744 197.75 61.7274 198.008 61.1236C198.266 60.5198 198.402 59.8711 198.41 59.2144C198.417 58.5578 198.295 57.9062 198.051 57.2967C197.806 56.6873 197.444 56.1319 196.985 55.6624C196.526 55.1928 195.979 54.8183 195.375 54.5602C194.772 54.302 194.123 54.1654 193.466 54.1579V54.1599ZM176.393 61.3149C176.055 61.7167 175.64 62.0473 175.173 62.2876C174.705 62.5279 174.195 62.6732 173.671 62.7149L165.699 63.3819C164.642 63.4703 163.593 63.135 162.783 62.4498C161.973 61.7646 161.468 60.7857 161.38 59.7284C161.292 58.6712 161.627 57.6221 162.312 56.812C162.997 56.002 163.976 55.4973 165.033 55.4089L173.005 54.7429C173.119 54.7339 173.232 54.7289 173.345 54.7289C174.108 54.7301 174.854 54.9491 175.496 55.36C176.138 55.7709 176.649 56.3566 176.969 57.0483C177.289 57.74 177.405 58.5087 177.303 59.2641C177.201 60.0195 176.886 60.73 176.393 61.3119V61.3149ZM193.352 63.1539H193.259L185.259 62.9699C184.198 62.9579 183.186 62.5249 182.444 61.7662C181.703 61.0075 181.293 59.9853 181.305 58.9244C181.317 57.8636 181.75 56.851 182.509 56.1093C183.267 55.3677 184.289 54.9579 185.35 54.9699H185.443L193.443 55.1539C194.504 55.166 195.517 55.599 196.258 56.3577C197 57.1164 197.41 58.1386 197.398 59.1994C197.386 60.2603 196.953 61.2729 196.194 62.0145C195.435 62.7562 194.413 63.166 193.352 63.1539Z" fill="white"/>
<path d="M193.466 54.1599L193.455 54.6598L193.966 54.6716V54.1599H193.466ZM185.466 53.9759L185.478 53.4761L185.477 53.4761L185.466 53.9759ZM180.519 57.7339L180.399 58.2192L180.88 58.3391L181.004 57.858L180.519 57.7339ZM178.204 57.7069L177.715 57.8087L177.818 58.3059L178.314 58.1948L178.204 57.7069ZM172.919 53.7519L172.879 53.2536L172.878 53.2537L172.919 53.7519ZM164.947 54.4179L164.906 53.9197L164.905 53.9197L164.947 54.4179ZM165.36 64.3999L165.359 64.8999H165.36V64.3999ZM165.781 64.3829L165.74 63.8847L165.739 63.8847L165.781 64.3829ZM173.753 63.7159L173.714 63.2175L173.712 63.2177L173.753 63.7159ZM178.313 58.7079L178.19 58.2235L177.808 58.3211L177.813 58.7151L178.313 58.7079ZM180.369 58.7259H180.869V58.3446L180.502 58.2438L180.369 58.7259ZM180.352 58.8609L179.852 58.8501V58.8501L180.352 58.8609ZM185.236 63.9739L185.224 64.4738L185.225 64.4738L185.236 63.9739ZM193.236 64.1579L193.225 64.6579H193.236V64.1579ZM193.353 64.1579L193.359 63.6579H193.353V64.1579ZM193.466 54.1579L193.472 53.658L192.966 53.6523V54.1579H193.466ZM176.393 61.3149L176.776 61.6372L176.893 61.4975V61.3149H176.393ZM173.671 62.7149L173.632 62.2165L173.63 62.2167L173.671 62.7149ZM165.699 63.3819L165.741 63.8802L165.741 63.8802L165.699 63.3819ZM165.033 55.4089L165.075 55.9072L165.075 55.9072L165.033 55.4089ZM173.005 54.7429L172.966 54.2445L172.964 54.2447L173.005 54.7429ZM173.345 54.7289L173.346 54.2289H173.345V54.7289ZM176.393 61.3119L176.012 60.9891L175.893 61.1289V61.3119H176.393ZM193.259 63.1539L193.248 63.6539H193.259V63.1539ZM185.259 62.9699L185.271 62.47L185.265 62.47L185.259 62.9699ZM185.35 54.9699L185.345 55.4699H185.35V54.9699ZM185.443 54.9699L185.455 54.4699H185.443V54.9699ZM193.443 55.1539L193.432 55.6538L193.438 55.6539L193.443 55.1539ZM193.478 53.6601L185.478 53.4761L185.455 54.4758L193.455 54.6598L193.478 53.6601ZM185.477 53.4761C184.236 53.4504 183.024 53.8448 182.036 54.5953L182.641 55.3915C183.449 54.7775 184.441 54.4548 185.456 54.4758L185.477 53.4761ZM182.036 54.5953C181.048 55.3457 180.343 56.4081 180.035 57.6099L181.004 57.858C181.256 56.8748 181.833 56.0055 182.641 55.3915L182.036 54.5953ZM180.64 57.2487C179.806 57.0411 178.934 57.0309 178.095 57.2191L178.314 58.1948C179.001 58.0407 179.715 58.049 180.399 58.2192L180.64 57.2487ZM178.694 57.6052C178.422 56.2957 177.681 55.1307 176.61 54.3293L176.01 55.13C176.886 55.7852 177.492 56.7379 177.715 57.8087L178.694 57.6052ZM176.61 54.3293C175.539 53.5279 174.212 53.1454 172.879 53.2536L172.96 54.2503C174.05 54.1618 175.135 54.4747 176.01 55.13L176.61 54.3293ZM172.878 53.2537L164.906 53.9197L164.989 54.9162L172.961 54.2502L172.878 53.2537ZM164.905 53.9197C163.493 54.0399 162.182 54.7005 161.245 55.7638L161.995 56.425C162.761 55.5549 163.834 55.0144 164.99 54.9161L164.905 53.9197ZM161.245 55.7638C160.308 56.8272 159.817 58.2112 159.876 59.6273L160.875 59.586C160.827 58.4274 161.228 57.295 161.995 56.425L161.245 55.7638ZM159.876 59.6273C159.934 61.0434 160.537 62.3822 161.559 63.3645L162.252 62.6437C161.416 61.84 160.923 60.7446 160.875 59.586L159.876 59.6273ZM161.559 63.3645C162.581 64.3469 163.942 64.8969 165.359 64.8999L165.361 63.8999C164.202 63.8975 163.088 63.4474 162.252 62.6437L161.559 63.3645ZM165.36 64.8999C165.511 64.8999 165.666 64.8945 165.823 64.8812L165.739 63.8847C165.613 63.8954 165.487 63.8999 165.36 63.8999V64.8999ZM165.823 64.8812L173.795 64.2142L173.712 63.2177L165.74 63.8847L165.823 64.8812ZM173.793 64.2144C175.173 64.1046 176.46 63.4738 177.393 62.4498L176.653 61.7766C175.892 62.6127 174.841 63.1279 173.714 63.2175L173.793 64.2144ZM177.393 62.4498C178.325 61.4259 178.833 60.0855 178.813 58.7008L177.813 58.7151C177.83 59.8458 177.415 60.9404 176.653 61.7766L177.393 62.4498ZM178.437 59.1924C179.028 59.0413 179.649 59.0467 180.237 59.2081L180.502 58.2438C179.746 58.0364 178.949 58.0294 178.19 58.2235L178.437 59.1924ZM179.869 58.7259C179.869 58.7087 179.871 58.6967 179.871 58.693C179.872 58.6906 179.872 58.6905 179.87 58.7023C179.868 58.7105 179.864 58.7319 179.861 58.7546C179.857 58.7788 179.853 58.8117 179.852 58.8501L180.852 58.8718C180.852 58.8872 180.85 58.8975 180.85 58.8993C180.85 58.8994 180.85 58.8986 180.853 58.8846C180.855 58.8741 180.859 58.8518 180.862 58.8269C180.866 58.8008 180.869 58.7661 180.869 58.7259H179.869ZM179.852 58.8501C179.821 60.3077 180.369 61.7183 181.376 62.7726L182.099 62.0818C181.275 61.2191 180.826 60.0646 180.852 58.8718L179.852 58.8501ZM181.376 62.7726C182.383 63.8268 183.767 64.4386 185.224 64.4738L185.248 63.4741C184.056 63.4453 182.923 62.9446 182.099 62.0818L181.376 62.7726ZM185.225 64.4738L193.225 64.6578L193.248 63.6581L185.248 63.4741L185.225 64.4738ZM193.236 64.6579H193.353V63.6579H193.236V64.6579ZM193.348 64.6579C194.07 64.6661 194.787 64.5319 195.457 64.263L195.085 63.3349C194.536 63.5549 193.95 63.6647 193.359 63.658L193.348 64.6579ZM195.457 64.263C196.128 63.9942 196.738 63.5959 197.255 63.091L196.556 62.3759C196.133 62.7891 195.633 63.1149 195.085 63.3349L195.457 64.263ZM197.255 63.091C197.771 62.586 198.183 61.9843 198.467 61.3201L197.548 60.927C197.316 61.4704 196.978 61.9628 196.556 62.3759L197.255 63.091ZM198.467 61.3201C198.751 60.6559 198.902 59.9424 198.91 59.2201L197.91 59.2088C197.903 59.7997 197.78 60.3836 197.548 60.927L198.467 61.3201ZM198.91 59.2201C198.918 58.4978 198.784 57.781 198.515 57.1106L197.587 57.4828C197.807 58.0314 197.917 58.6178 197.91 59.2088L198.91 59.2201ZM198.515 57.1106C198.246 56.4402 197.848 55.8293 197.343 55.3128L196.628 56.0119C197.041 56.4345 197.367 56.9343 197.587 57.4828L198.515 57.1106ZM197.343 55.3128C196.838 54.7963 196.236 54.3844 195.572 54.1004L195.179 55.0199C195.722 55.2522 196.215 55.5893 196.628 56.0119L197.343 55.3128ZM195.572 54.1004C194.908 53.8165 194.194 53.6661 193.472 53.658L193.461 54.6579C194.052 54.6646 194.636 54.7876 195.179 55.0199L195.572 54.1004ZM192.966 54.1579V54.1599H193.966V54.1579H192.966ZM176.011 60.9927C175.715 61.3439 175.352 61.6329 174.944 61.843L175.401 62.7322C175.927 62.4617 176.394 62.0895 176.776 61.6372L176.011 60.9927ZM174.944 61.843C174.535 62.053 174.089 62.18 173.632 62.2165L173.711 63.2134C174.301 63.1663 174.875 63.0028 175.401 62.7322L174.944 61.843ZM173.63 62.2167L165.658 62.8837L165.741 63.8802L173.713 63.2132L173.63 62.2167ZM165.658 62.8837C164.733 62.961 163.815 62.6676 163.106 62.068L162.46 62.8315C163.371 63.6023 164.552 63.9796 165.741 63.8802L165.658 62.8837ZM163.106 62.068C162.397 61.4685 161.955 60.612 161.878 59.6868L160.882 59.7701C160.981 60.9595 161.549 62.0607 162.46 62.8315L163.106 62.068ZM161.878 59.6868C161.801 58.7617 162.094 57.8437 162.694 57.1349L161.93 56.4891C161.159 57.4005 160.782 58.5806 160.882 59.7701L161.878 59.6868ZM162.694 57.1349C163.293 56.4261 164.15 55.9845 165.075 55.9072L164.992 54.9107C163.802 55.01 162.701 55.5778 161.93 56.4891L162.694 57.1349ZM165.075 55.9072L173.047 55.2412L172.964 54.2447L164.992 54.9107L165.075 55.9072ZM173.045 55.2414C173.147 55.2333 173.247 55.2289 173.345 55.2289V54.2289C173.218 54.2289 173.091 54.2346 172.966 54.2445L173.045 55.2414ZM173.345 55.2289C174.012 55.23 174.664 55.4215 175.226 55.7811L175.765 54.9388C175.043 54.4766 174.204 54.2303 173.346 54.2289L173.345 55.2289ZM175.226 55.7811C175.788 56.1406 176.235 56.6532 176.515 57.2584L177.423 56.8382C177.062 56.0601 176.487 55.4011 175.765 54.9388L175.226 55.7811ZM176.515 57.2584C176.795 57.8636 176.897 58.5363 176.808 59.1972L177.799 59.331C177.913 58.4812 177.783 57.6164 177.423 56.8382L176.515 57.2584ZM176.808 59.1972C176.718 59.8582 176.442 60.4798 176.012 60.9891L176.775 61.6348C177.329 60.9801 177.684 60.1808 177.799 59.331L176.808 59.1972ZM175.893 61.3119V61.3149H176.893V61.3119H175.893ZM193.352 62.6539H193.259V63.6539H193.352V62.6539ZM193.271 62.6541L185.271 62.4701L185.248 63.4698L193.248 63.6538L193.271 62.6541ZM185.265 62.47C184.337 62.4594 183.451 62.0805 182.802 61.4167L182.087 62.1157C182.921 62.9692 184.06 63.4563 185.254 63.4699L185.265 62.47ZM182.802 61.4167C182.153 60.7528 181.794 59.8584 181.805 58.9301L180.805 58.9188C180.791 60.1122 181.252 61.2622 182.087 62.1157L182.802 61.4167ZM181.805 58.9301C181.815 58.0019 182.194 57.1158 182.858 56.4669L182.159 55.7518C181.306 56.5861 180.818 57.7253 180.805 58.9188L181.805 58.9301ZM182.858 56.4669C183.522 55.818 184.416 55.4594 185.345 55.4699L185.356 54.47C184.163 54.4564 183.013 54.9175 182.159 55.7518L182.858 56.4669ZM185.35 55.4699H185.443V54.4699H185.35V55.4699ZM185.432 55.4698L193.432 55.6538L193.455 54.6541L185.455 54.4701L185.432 55.4698ZM193.438 55.6539C194.366 55.6645 195.252 56.0434 195.901 56.7072L196.616 56.0082C195.782 55.1547 194.643 54.6676 193.449 54.654L193.438 55.6539ZM195.901 56.7072C196.55 57.3711 196.908 58.2655 196.898 59.1938L197.898 59.2051C197.911 58.0117 197.45 56.8617 196.616 56.0082L195.901 56.7072ZM196.898 59.1938C196.887 60.122 196.508 61.0081 195.845 61.657L196.544 62.3721C197.397 61.5378 197.884 60.3986 197.898 59.2051L196.898 59.1938ZM195.845 61.657C195.181 62.3059 194.286 62.6645 193.358 62.654L193.347 63.6539C194.54 63.6675 195.69 63.2064 196.544 62.3721L195.845 61.657Z" fill="white" mask="url(#path-18-outside-1)"/>
</g>
<g filter="url(#filter14_d)">
<path d="M70 0C64.6599 0 59.4397 1.58352 54.9996 4.55032C50.5595 7.51712 47.0988 11.7339 45.0553 16.6675C43.0117 21.6012 42.477 27.0299 43.5188 32.2674C44.5606 37.5049 47.1321 42.3159 50.9081 46.0919C54.6841 49.8679 59.4951 52.4394 64.7326 53.4812C69.9701 54.523 75.3989 53.9883 80.3325 51.9447C85.2661 49.9012 89.4829 46.4405 92.4497 42.0004C95.4165 37.5603 97 32.3401 97 27C96.9918 19.8417 94.1445 12.9789 89.0828 7.91718C84.0211 2.85547 77.1583 0.0082047 70 0ZM84.188 13.681L71.364 27.4C71.3106 27.5248 71.2319 27.6371 71.133 27.73L71.027 27.811C70.997 27.831 70.967 27.839 70.938 27.856L70.917 27.878C70.8766 27.898 70.8348 27.915 70.792 27.929C70.767 27.9408 70.7413 27.9511 70.715 27.96C70.6312 27.9863 70.5439 27.9998 70.456 28C70.3199 27.9992 70.1854 27.9703 70.061 27.915L70.008 27.885L69.938 27.845C69.88 27.8153 69.8265 27.7776 69.779 27.733L69.679 27.625L55.425 9.561C55.2607 9.35281 55.1858 9.08787 55.2169 8.82447C55.2479 8.56108 55.3823 8.3208 55.5905 8.1565C55.7987 7.9922 56.0636 7.91733 56.327 7.94837C56.5904 7.97941 56.8307 8.1138 56.995 8.322L70.518 25.464L82.723 12.32C82.9035 12.1258 83.1538 12.0112 83.4187 12.0014C83.6837 11.9917 83.9417 12.0876 84.136 12.268C84.3302 12.4485 84.4448 12.6988 84.4546 12.9637C84.4643 13.2287 84.3685 13.4867 84.188 13.681Z" fill="#388CFF"/>
</g>
<defs>
<filter id="filter0_d" x="45" y="27" width="189" height="189" filterUnits="userSpaceOnUse" color-interpolation-filters="sRGB">
<feFlood flood-opacity="0" result="BackgroundImageFix"/>
<feColorMatrix in="SourceAlpha" type="matrix" values="0 0 0 0 0 0 0 0 0 0 0 0 0 0 0 0 0 0 127 0"/>
<feOffset dy="4"/>
<feGaussianBlur stdDeviation="2"/>
<feColorMatrix type="matrix" values="0 0 0 0 0 0 0 0 0 0 0 0 0 0 0 0 0 0 0.25 0"/>
<feBlend mode="normal" in2="BackgroundImageFix" result="effect1_dropShadow"/>
<feBlend mode="normal" in="SourceGraphic" in2="effect1_dropShadow" result="shape"/>
</filter>
<filter id="filter1_d" x="0" y="182" width="379" height="39" filterUnits="userSpaceOnUse" color-interpolation-filters="sRGB">
<feFlood flood-opacity="0" result="BackgroundImageFix"/>
<feColorMatrix in="SourceAlpha" type="matrix" values="0 0 0 0 0 0 0 0 0 0 0 0 0 0 0 0 0 0 127 0"/>
<feOffset dy="4"/>
<feGaussianBlur stdDeviation="2"/>
<feColorMatrix type="matrix" values="0 0 0 0 0 0 0 0 0 0 0 0 0 0 0 0 0 0 0.25 0"/>
<feBlend mode="normal" in2="BackgroundImageFix" result="effect1_dropShadow"/>
<feBlend mode="normal" in="SourceGraphic" in2="effect1_dropShadow" result="shape"/>
</filter>
<filter id="filter2_d" x="142.043" y="186.4" width="25.52" height="18.1" filterUnits="userSpaceOnUse" color-interpolation-filters="sRGB">
<feFlood flood-opacity="0" result="BackgroundImageFix"/>
<feColorMatrix in="SourceAlpha" type="matrix" values="0 0 0 0 0 0 0 0 0 0 0 0 0 0 0 0 0 0 127 0"/>
<feOffset dy="4"/>
<feGaussianBlur stdDeviation="2"/>
<feColorMatrix type="matrix" values="0 0 0 0 0 0 0 0 0 0 0 0 0 0 0 0 0 0 0.25 0"/>
<feBlend mode="normal" in2="BackgroundImageFix" result="effect1_dropShadow"/>
<feBlend mode="normal" in="SourceGraphic" in2="effect1_dropShadow" result="shape"/>
</filter>
<filter id="filter3_d" x="142.045" y="186.4" width="25" height="21.479" filterUnits="userSpaceOnUse" color-interpolation-filters="sRGB">
<feFlood flood-opacity="0" result="BackgroundImageFix"/>
<feColorMatrix in="SourceAlpha" type="matrix" values="0 0 0 0 0 0 0 0 0 0 0 0 0 0 0 0 0 0 127 0"/>
<feOffset dy="4"/>
<feGaussianBlur stdDeviation="2"/>
<feColorMatrix type="matrix" values="0 0 0 0 0 0 0 0 0 0 0 0 0 0 0 0 0 0 0.25 0"/>
<feBlend mode="normal" in2="BackgroundImageFix" result="effect1_dropShadow"/>
<feBlend mode="normal" in="SourceGraphic" in2="effect1_dropShadow" result="shape"/>
</filter>
<filter id="filter4_d" x="159.045" y="196.5" width="116" height="11.379" filterUnits="userSpaceOnUse" color-interpolation-filters="sRGB">
<feFlood flood-opacity="0" result="BackgroundImageFix"/>
<feColorMatrix in="SourceAlpha" type="matrix" values="0 0 0 0 0 0 0 0 0 0 0 0 0 0 0 0 0 0 127 0"/>
<feOffset dy="4"/>
<feGaussianBlur stdDeviation="2"/>
<feColorMatrix type="matrix" values="0 0 0 0 0 0 0 0 0 0 0 0 0 0 0 0 0 0 0.25 0"/>
<feBlend mode="normal" in2="BackgroundImageFix" result="effect1_dropShadow"/>
<feBlend mode="normal" in="SourceGraphic" in2="effect1_dropShadow" result="shape"/>
</filter>
<filter id="filter5_d" x="104.543" y="71" width="112.228" height="120" filterUnits="userSpaceOnUse" color-interpolation-filters="sRGB">
<feFlood flood-opacity="0" result="BackgroundImageFix"/>
<feColorMatrix in="SourceAlpha" type="matrix" values="0 0 0 0 0 0 0 0 0 0 0 0 0 0 0 0 0 0 127 0"/>
<feOffset dy="4"/>
<feGaussianBlur stdDeviation="2"/>
<feColorMatrix type="matrix" values="0 0 0 0 0 0 0 0 0 0 0 0 0 0 0 0 0 0 0.25 0"/>
<feBlend mode="normal" in2="BackgroundImageFix" result="effect1_dropShadow"/>
<feBlend mode="normal" in="SourceGraphic" in2="effect1_dropShadow" result="shape"/>
</filter>
<filter id="filter6_d" x="72.4023" y="74.6108" width="83.6413" height="123.959" filterUnits="userSpaceOnUse" color-interpolation-filters="sRGB">
<feFlood flood-opacity="0" result="BackgroundImageFix"/>
<feColorMatrix in="SourceAlpha" type="matrix" values="0 0 0 0 0 0 0 0 0 0 0 0 0 0 0 0 0 0 127 0"/>
<feOffset dy="4"/>
<feGaussianBlur stdDeviation="2"/>
<feColorMatrix type="matrix" values="0 0 0 0 0 0 0 0 0 0 0 0 0 0 0 0 0 0 0.25 0"/>
<feBlend mode="normal" in2="BackgroundImageFix" result="effect1_dropShadow"/>
<feBlend mode="normal" in="SourceGraphic" in2="effect1_dropShadow" result="shape"/>
</filter>
<filter id="filter7_d" x="201.389" y="80.2209" width="44.6838" height="56.7432" filterUnits="userSpaceOnUse" color-interpolation-filters="sRGB">
<feFlood flood-opacity="0" result="BackgroundImageFix"/>
<feColorMatrix in="SourceAlpha" type="matrix" values="0 0 0 0 0 0 0 0 0 0 0 0 0 0 0 0 0 0 127 0"/>
<feOffset dy="4"/>
<feGaussianBlur stdDeviation="2"/>
<feColorMatrix type="matrix" values="0 0 0 0 0 0 0 0 0 0 0 0 0 0 0 0 0 0 0.25 0"/>
<feBlend mode="normal" in2="BackgroundImageFix" result="effect1_dropShadow"/>
<feBlend mode="normal" in="SourceGraphic" in2="effect1_dropShadow" result="shape"/>
</filter>
<filter id="filter8_d" x="151.779" y="79.6221" width="43.0595" height="32.0871" filterUnits="userSpaceOnUse" color-interpolation-filters="sRGB">
<feFlood flood-opacity="0" result="BackgroundImageFix"/>
<feColorMatrix in="SourceAlpha" type="matrix" values="0 0 0 0 0 0 0 0 0 0 0 0 0 0 0 0 0 0 127 0"/>
<feOffset dy="4"/>
<feGaussianBlur stdDeviation="2"/>
<feColorMatrix type="matrix" values="0 0 0 0 0 0 0 0 0 0 0 0 0 0 0 0 0 0 0.25 0"/>
<feBlend mode="normal" in2="BackgroundImageFix" result="effect1_dropShadow"/>
<feBlend mode="normal" in="SourceGraphic" in2="effect1_dropShadow" result="shape"/>
</filter>
<filter id="filter9_d" x="139.045" y="166.5" width="27" height="29" filterUnits="userSpaceOnUse" color-interpolation-filters="sRGB">
<feFlood flood-opacity="0" result="BackgroundImageFix"/>
<feColorMatrix in="SourceAlpha" type="matrix" values="0 0 0 0 0 0 0 0 0 0 0 0 0 0 0 0 0 0 127 0"/>
<feOffset dy="4"/>
<feGaussianBlur stdDeviation="2"/>
<feColorMatrix type="matrix" values="0 0 0 0 0 0 0 0 0 0 0 0 0 0 0 0 0 0 0.25 0"/>
<feBlend mode="normal" in2="BackgroundImageFix" result="effect1_dropShadow"/>
<feBlend mode="normal" in="SourceGraphic" in2="effect1_dropShadow" result="shape"/>
</filter>
<filter id="filter10_d" x="127.895" y="17.8975" width="88.6999" height="84.7778" filterUnits="userSpaceOnUse" color-interpolation-filters="sRGB">
<feFlood flood-opacity="0" result="BackgroundImageFix"/>
<feColorMatrix in="SourceAlpha" type="matrix" values="0 0 0 0 0 0 0 0 0 0 0 0 0 0 0 0 0 0 127 0"/>
<feOffset dy="4"/>
<feGaussianBlur stdDeviation="2"/>
<feColorMatrix type="matrix" values="0 0 0 0 0 0 0 0 0 0 0 0 0 0 0 0 0 0 0.25 0"/>
<feBlend mode="normal" in2="BackgroundImageFix" result="effect1_dropShadow"/>
<feBlend mode="normal" in="SourceGraphic" in2="effect1_dropShadow" result="shape"/>
</filter>
<filter id="filter11_d" x="148.045" y="28.5" width="57" height="68" filterUnits="userSpaceOnUse" color-interpolation-filters="sRGB">
<feFlood flood-opacity="0" result="BackgroundImageFix"/>
<feColorMatrix in="SourceAlpha" type="matrix" values="0 0 0 0 0 0 0 0 0 0 0 0 0 0 0 0 0 0 127 0"/>
<feOffset dy="4"/>
<feGaussianBlur stdDeviation="2"/>
<feColorMatrix type="matrix" values="0 0 0 0 0 0 0 0 0 0 0 0 0 0 0 0 0 0 0.25 0"/>
<feBlend mode="normal" in2="BackgroundImageFix" result="effect1_dropShadow"/>
<feBlend mode="normal" in="SourceGraphic" in2="effect1_dropShadow" result="shape"/>
</filter>
<filter id="filter12_d" x="159.045" y="118.5" width="124.349" height="86" filterUnits="userSpaceOnUse" color-interpolation-filters="sRGB">
<feFlood flood-opacity="0" result="BackgroundImageFix"/>
<feColorMatrix in="SourceAlpha" type="matrix" values="0 0 0 0 0 0 0 0 0 0 0 0 0 0 0 0 0 0 127 0"/>
<feOffset dy="4"/>
<feGaussianBlur stdDeviation="2"/>
<feColorMatrix type="matrix" values="0 0 0 0 0 0 0 0 0 0 0 0 0 0 0 0 0 0 0.25 0"/>
<feBlend mode="normal" in2="BackgroundImageFix" result="effect1_dropShadow"/>
<feBlend mode="normal" in="SourceGraphic" in2="effect1_dropShadow" result="shape"/>
</filter>
<filter id="filter13_d" x="155.871" y="53.2356" width="47.0391" height="19.6644" filterUnits="userSpaceOnUse" color-interpolation-filters="sRGB">
<feFlood flood-opacity="0" result="BackgroundImageFix"/>
<feColorMatrix in="SourceAlpha" type="matrix" values="0 0 0 0 0 0 0 0 0 0 0 0 0 0 0 0 0 0 127 0"/>
<feOffset dy="4"/>
<feGaussianBlur stdDeviation="2"/>
<feColorMatrix type="matrix" values="0 0 0 0 0 0 0 0 0 0 0 0 0 0 0 0 0 0 0.25 0"/>
<feBlend mode="normal" in2="BackgroundImageFix" result="effect1_dropShadow"/>
<feBlend mode="normal" in="SourceGraphic" in2="effect1_dropShadow" result="shape"/>
</filter>
<filter id="filter14_d" x="39" y="0" width="62" height="62" filterUnits="userSpaceOnUse" color-interpolation-filters="sRGB">
<feFlood flood-opacity="0" result="BackgroundImageFix"/>
<feColorMatrix in="SourceAlpha" type="matrix" values="0 0 0 0 0 0 0 0 0 0 0 0 0 0 0 0 0 0 127 0"/>
<feOffset dy="4"/>
<feGaussianBlur stdDeviation="2"/>
<feColorMatrix type="matrix" values="0 0 0 0 0 0 0 0 0 0 0 0 0 0 0 0 0 0 0.25 0"/>
<feBlend mode="normal" in2="BackgroundImageFix" result="effect1_dropShadow"/>
<feBlend mode="normal" in="SourceGraphic" in2="effect1_dropShadow" result="shape"/>
</filter>
</defs>
</svg>
