<svg width="353" height="321" viewBox="0 0 353 321" fill="none" xmlns="http://www.w3.org/2000/svg">
<g filter="url(#filter0_i)">
<rect x="23" width="315" height="195" rx="10" fill="#9ECDFE"/>
</g>
<g filter="url(#filter1_i)">
<rect x="104" y="16" width="160" height="164" rx="10" fill="#011A6E"/>
</g>
<g opacity="0.996">
<g opacity="0.996">
<g opacity="0.996">
<path opacity="0.996" d="M5.50329 44.6473C5.2153 44.6473 4.93908 44.5329 4.73544 44.3293C4.53179 44.1256 4.4174 43.8494 4.4174 43.5614C4.4174 43.2637 4.2991 42.9781 4.08853 42.7675C3.87796 42.5569 3.59238 42.4386 3.29459 42.4386C2.9968 42.4386 2.71119 42.5569 2.50062 42.7675C2.29005 42.9781 2.17178 43.2637 2.17178 43.5614C2.17178 43.8494 2.05736 44.1256 1.85372 44.3293C1.65007 44.5329 1.37389 44.6473 1.08589 44.6473C0.797896 44.6473 0.521677 44.5329 0.318033 44.3293C0.114389 44.1256 0 43.8494 0 43.5614C0 42.6877 0.347112 41.8497 0.964969 41.2318C1.58283 40.6139 2.42081 40.2668 3.29459 40.2668C4.16837 40.2668 5.00636 40.6139 5.62422 41.2318C6.24207 41.8497 6.58919 42.6877 6.58919 43.5614C6.58919 43.8494 6.47476 44.1256 6.27112 44.3293C6.06748 44.5329 5.79129 44.6473 5.50329 44.6473Z" fill="white"/>
<path opacity="0.996" d="M7.7028 46.8561C6.82937 46.8549 5.99207 46.5075 5.37446 45.8898C4.75686 45.2722 4.40935 44.4349 4.4082 43.5615C4.4082 43.2735 4.52263 42.9973 4.72627 42.7936C4.92991 42.59 5.2061 42.4756 5.4941 42.4756C5.78209 42.4756 6.05831 42.59 6.26195 42.7936C6.4656 42.9973 6.57999 43.2735 6.57999 43.5615C6.59272 43.851 6.71671 44.1245 6.92609 44.3248C7.13547 44.5252 7.41408 44.637 7.70389 44.637C7.9937 44.637 8.27235 44.5252 8.48172 44.3248C8.6911 44.1245 8.81506 43.851 8.82779 43.5615C8.82779 43.2735 8.94221 42.9973 9.14586 42.7936C9.3495 42.59 9.62569 42.4756 9.91368 42.4756C10.2017 42.4756 10.4779 42.59 10.6815 42.7936C10.8852 42.9973 10.9996 43.2735 10.9996 43.5615C10.9979 44.4351 10.6499 45.2724 10.032 45.89C9.414 46.5075 8.57643 46.8549 7.7028 46.8561Z" fill="white"/>
<path opacity="0.996" d="M14.3334 44.6473C14.0454 44.6473 13.7692 44.5329 13.5655 44.3293C13.3619 44.1256 13.2475 43.8494 13.2475 43.5614C13.2475 43.2637 13.1292 42.9781 12.9186 42.7675C12.708 42.5569 12.4225 42.4386 12.1247 42.4386C11.8269 42.4386 11.5413 42.5569 11.3307 42.7675C11.1202 42.9781 11.0019 43.2637 11.0019 43.5614C11.0019 43.8494 10.8875 44.1256 10.6838 44.3293C10.4802 44.5329 10.204 44.6473 9.91597 44.6473C9.62797 44.6473 9.35179 44.5329 9.14814 44.3293C8.9445 44.1256 8.83008 43.8494 8.83008 43.5614C8.83008 43.1288 8.9153 42.7004 9.08087 42.3007C9.24644 41.9009 9.48912 41.5377 9.79505 41.2318C10.101 40.9259 10.4642 40.6832 10.8639 40.5176C11.2636 40.3521 11.692 40.2668 12.1247 40.2668C12.5573 40.2668 12.9858 40.3521 13.3855 40.5176C13.7852 40.6832 14.1484 40.9259 14.4543 41.2318C14.7602 41.5377 15.0029 41.9009 15.1685 42.3007C15.3341 42.7004 15.4193 43.1288 15.4193 43.5614C15.4193 43.8494 15.3049 44.1256 15.1012 44.3293C14.8976 44.5329 14.6214 44.6473 14.3334 44.6473Z" fill="white"/>
<path opacity="0.996" d="M16.5446 46.8561C15.6712 46.8549 14.8339 46.5075 14.2163 45.8898C13.5987 45.2722 13.2511 44.4349 13.25 43.5615C13.25 43.2735 13.3644 42.9973 13.5681 42.7936C13.7717 42.59 14.0479 42.4756 14.3359 42.4756C14.6239 42.4756 14.9001 42.59 15.1038 42.7936C15.3074 42.9973 15.4218 43.2735 15.4218 43.5615C15.4218 43.8593 15.5401 44.1449 15.7507 44.3554C15.9612 44.566 16.2468 44.6843 16.5446 44.6843C16.8424 44.6843 17.128 44.566 17.3386 44.3554C17.5491 44.1449 17.6674 43.8593 17.6674 43.5615C17.6674 43.2735 17.7818 42.9973 17.9855 42.7936C18.1891 42.59 18.4653 42.4756 18.7533 42.4756C19.0413 42.4756 19.3175 42.59 19.5212 42.7936C19.7248 42.9973 19.8392 43.2735 19.8392 43.5615C19.8381 44.4349 19.4906 45.2722 18.873 45.8898C18.2554 46.5075 17.418 46.8549 16.5446 46.8561Z" fill="white"/>
<path opacity="0.996" d="M23.1791 44.6473C22.8911 44.6473 22.6149 44.5329 22.4112 44.3293C22.2076 44.1256 22.0932 43.8494 22.0932 43.5614C22.0932 43.2637 21.9749 42.9781 21.7643 42.7675C21.5537 42.5569 21.2682 42.4386 20.9704 42.4386C20.6726 42.4386 20.387 42.5569 20.1764 42.7675C19.9659 42.9781 19.8476 43.2637 19.8476 43.5614C19.8476 43.8494 19.7331 44.1256 19.5295 44.3293C19.3259 44.5329 19.0497 44.6473 18.7617 44.6473C18.4737 44.6473 18.1975 44.5329 17.9938 44.3293C17.7902 44.1256 17.6758 43.8494 17.6758 43.5614C17.6758 42.6877 18.0229 41.8497 18.6407 41.2318C19.2586 40.6139 20.0966 40.2668 20.9704 40.2668C21.8442 40.2668 22.6821 40.6139 23.3 41.2318C23.9179 41.8497 24.265 42.6877 24.265 43.5614C24.265 43.8494 24.1506 44.1256 23.9469 44.3293C23.7433 44.5329 23.4671 44.6473 23.1791 44.6473Z" fill="white"/>
<path opacity="0.996" d="M25.3808 46.8561C24.5071 46.8549 23.6696 46.5075 23.0516 45.89C22.4337 45.2724 22.0857 44.4351 22.084 43.5615C22.084 43.2735 22.1984 42.9973 22.4021 42.7936C22.6057 42.59 22.8819 42.4756 23.1699 42.4756C23.4579 42.4756 23.7341 42.59 23.9377 42.7936C24.1414 42.9973 24.2558 43.2735 24.2558 43.5615C24.2685 43.851 24.3925 44.1245 24.6019 44.3248C24.8112 44.5252 25.0899 44.637 25.3797 44.637C25.6695 44.637 25.9481 44.5252 26.1575 44.3248C26.3669 44.1245 26.4908 43.851 26.5036 43.5615C26.5036 43.2735 26.618 42.9973 26.8216 42.7936C27.0253 42.59 27.3015 42.4756 27.5895 42.4756C27.8775 42.4756 28.1536 42.59 28.3573 42.7936C28.5609 42.9973 28.6754 43.2735 28.6754 43.5615C28.6742 44.4349 28.3267 45.2722 27.7091 45.8898C27.0915 46.5075 26.2542 46.8549 25.3808 46.8561Z" fill="white"/>
<path opacity="0.996" d="M32.099 44.6473C31.811 44.6473 31.5348 44.5329 31.3311 44.3293C31.1275 44.1256 31.0131 43.8494 31.0131 43.5614C31.0131 43.2637 30.8948 42.9781 30.6842 42.7675C30.4737 42.5569 30.1881 42.4386 29.8903 42.4386C29.5925 42.4386 29.3069 42.5569 29.0963 42.7675C28.8858 42.9781 28.7675 43.2637 28.7675 43.5614C28.7675 43.8494 28.6531 44.1256 28.4494 44.3293C28.2458 44.5329 27.9696 44.6473 27.6816 44.6473C27.3936 44.6473 27.1174 44.5329 26.9137 44.3293C26.7101 44.1256 26.5957 43.8494 26.5957 43.5614C26.5957 42.6877 26.9428 41.8497 27.5606 41.2318C28.1785 40.6139 29.0165 40.2668 29.8903 40.2668C30.7641 40.2668 31.6021 40.6139 32.2199 41.2318C32.8378 41.8497 33.1849 42.6877 33.1849 43.5614C33.1849 43.8494 33.0705 44.1256 32.8668 44.3293C32.6632 44.5329 32.387 44.6473 32.099 44.6473Z" fill="white"/>
<path opacity="0.996" d="M34.3191 46.8561C33.8857 46.8569 33.4564 46.7724 33.0557 46.6072C32.655 46.4421 32.2907 46.1996 31.9837 45.8937C31.6768 45.5877 31.4331 45.2243 31.2667 44.8241C31.1002 44.4239 31.0142 43.9949 31.0137 43.5615C31.0137 43.2735 31.1281 42.9973 31.3317 42.7936C31.5353 42.59 31.8116 42.4756 32.0996 42.4756C32.3876 42.4756 32.6637 42.59 32.8674 42.7936C33.071 42.9973 33.1855 43.2735 33.1855 43.5615C33.1855 43.8593 33.3038 44.1449 33.5143 44.3554C33.7249 44.566 34.0105 44.6843 34.3083 44.6843C34.6061 44.6843 34.8916 44.566 35.1022 44.3554C35.3128 44.1449 35.4311 43.8593 35.4311 43.5615C35.4311 43.2735 35.5455 42.9973 35.7491 42.7936C35.9528 42.59 36.229 42.4756 36.517 42.4756C36.805 42.4756 37.0811 42.59 37.2848 42.7936C37.4884 42.9973 37.6029 43.2735 37.6029 43.5615C37.6017 44.4349 37.2542 45.2722 36.6366 45.8898C36.019 46.5075 35.1817 46.8549 34.3083 46.8561" fill="white"/>
<path opacity="0.996" d="M40.9447 44.6473C40.6567 44.6473 40.3805 44.5329 40.1768 44.3293C39.9732 44.1256 39.8588 43.8494 39.8588 43.5614C39.8588 43.2637 39.7405 42.9781 39.5299 42.7675C39.3194 42.5569 39.0338 42.4386 38.736 42.4386C38.4382 42.4386 38.1526 42.5569 37.9421 42.7675C37.7315 42.9781 37.6132 43.2637 37.6132 43.5614C37.6132 43.8494 37.4988 44.1256 37.2951 44.3293C37.0915 44.5329 36.8153 44.6473 36.5273 44.6473C36.2393 44.6473 35.9631 44.5329 35.7594 44.3293C35.5558 44.1256 35.4414 43.8494 35.4414 43.5614C35.4414 42.6877 35.7885 41.8497 36.4064 41.2318C37.0242 40.6139 37.8622 40.2668 38.736 40.2668C39.6098 40.2668 40.4478 40.6139 41.0656 41.2318C41.6835 41.8497 42.0306 42.6877 42.0306 43.5614C42.0306 43.8494 41.9162 44.1256 41.7125 44.3293C41.5089 44.5329 41.2327 44.6473 40.9447 44.6473Z" fill="white"/>
<path opacity="0.996" d="M43.1622 46.8561C42.2882 46.8555 41.4501 46.5083 40.8317 45.8907C40.2133 45.2731 39.865 44.4355 39.8633 43.5615C39.8633 43.2735 39.9777 42.9973 40.1813 42.7936C40.385 42.59 40.6612 42.4756 40.9492 42.4756C41.2372 42.4756 41.5134 42.59 41.717 42.7936C41.9207 42.9973 42.0351 43.2735 42.0351 43.5615C42.0351 43.8598 42.1536 44.146 42.3646 44.357C42.5755 44.5679 42.8617 44.6865 43.1601 44.6865C43.4584 44.6865 43.7446 44.5679 43.9556 44.357C44.1665 44.146 44.2851 43.8598 44.2851 43.5615C44.2851 43.2735 44.3994 42.9973 44.6031 42.7936C44.8067 42.59 45.083 42.4756 45.371 42.4756C45.6589 42.4756 45.9351 42.59 46.1388 42.7936C46.3424 42.9973 46.4568 43.2735 46.4568 43.5615C46.4557 44.4349 46.1082 45.2722 45.4906 45.8898C44.873 46.5075 44.0357 46.8549 43.1622 46.8561Z" fill="white"/>
<path opacity="0.996" d="M49.7885 44.6473C49.5005 44.6473 49.2243 44.5329 49.0206 44.3293C48.817 44.1256 48.7026 43.8494 48.7026 43.5614C48.7026 43.2637 48.5843 42.9781 48.3737 42.7675C48.1632 42.5569 47.8775 42.4386 47.5797 42.4386C47.282 42.4386 46.9964 42.5569 46.7858 42.7675C46.5752 42.9781 46.4569 43.2637 46.4569 43.5614C46.4569 43.8494 46.3426 44.1256 46.1389 44.3293C45.9353 44.5329 45.659 44.6473 45.371 44.6473C45.0831 44.6473 44.8069 44.5329 44.6032 44.3293C44.3996 44.1256 44.2852 43.8494 44.2852 43.5614C44.2852 42.6877 44.6323 41.8497 45.2501 41.2318C45.868 40.6139 46.706 40.2668 47.5797 40.2668C48.4535 40.2668 49.2915 40.6139 49.9094 41.2318C50.5272 41.8497 50.8743 42.6877 50.8743 43.5614C50.8743 43.8494 50.76 44.1256 50.5563 44.3293C50.3527 44.5329 50.0764 44.6473 49.7885 44.6473Z" fill="white"/>
<path opacity="0.996" d="M51.988 46.8561C51.1145 46.8549 50.2772 46.5075 49.6596 45.8898C49.042 45.2722 48.6945 44.4349 48.6934 43.5615C48.6934 43.2735 48.8078 42.9973 49.0114 42.7936C49.2151 42.59 49.4913 42.4756 49.7793 42.4756C50.0672 42.4756 50.3435 42.59 50.5471 42.7936C50.7508 42.9973 50.8651 43.2735 50.8651 43.5615C50.8779 43.851 51.0019 44.1245 51.2112 44.3248C51.4206 44.5252 51.6992 44.637 51.989 44.637C52.2789 44.637 52.5575 44.5252 52.7669 44.3248C52.9763 44.1245 53.1002 43.851 53.1129 43.5615C53.1129 43.2735 53.2274 42.9973 53.431 42.7936C53.6347 42.59 53.9108 42.4756 54.1988 42.4756C54.4868 42.4756 54.7631 42.59 54.9667 42.7936C55.1703 42.9973 55.2847 43.2735 55.2847 43.5615C55.283 44.4351 54.9351 45.2724 54.3171 45.89C53.6992 46.5075 52.8616 46.8549 51.988 46.8561Z" fill="white"/>
<path opacity="0.996" d="M58.7281 44.6472C58.4401 44.6472 58.1639 44.5328 57.9603 44.3291C57.7566 44.1255 57.6422 43.8493 57.6422 43.5613C57.6295 43.2718 57.5055 42.9983 57.2961 42.7979C57.0868 42.5976 56.8082 42.4857 56.5183 42.4857C56.2285 42.4857 55.9499 42.5976 55.7405 42.7979C55.5311 42.9983 55.4072 43.2718 55.3944 43.5613C55.3944 43.8493 55.28 44.1255 55.0764 44.3291C54.8727 44.5328 54.5965 44.6472 54.3085 44.6472C54.0206 44.6472 53.7443 44.5328 53.5407 44.3291C53.337 44.1255 53.2227 43.8493 53.2227 43.5613C53.2447 42.7019 53.6016 41.8851 54.2173 41.285C54.8329 40.6849 55.6586 40.3491 56.5183 40.3491C57.378 40.3491 58.2037 40.6849 58.8194 41.285C59.4351 41.8851 59.792 42.7019 59.814 43.5613C59.814 43.8493 59.6996 44.1255 59.496 44.3291C59.2923 44.5328 59.0161 44.6472 58.7281 44.6472Z" fill="white"/>
<path opacity="0.996" d="M60.9335 46.8561C60.0599 46.8549 59.2223 46.5075 58.6044 45.89C57.9864 45.2724 57.6384 44.4351 57.6367 43.5615C57.6367 43.2735 57.7511 42.9973 57.9548 42.7936C58.1584 42.59 58.4346 42.4756 58.7226 42.4756C59.0106 42.4756 59.2868 42.59 59.4905 42.7936C59.6941 42.9973 59.8085 43.2735 59.8085 43.5615C59.8212 43.851 59.9452 44.1245 60.1546 44.3248C60.364 44.5252 60.6426 44.637 60.9324 44.637C61.2222 44.637 61.5008 44.5252 61.7102 44.3248C61.9196 44.1245 62.0436 43.851 62.0563 43.5615C62.0563 43.2735 62.1707 42.9973 62.3743 42.7936C62.578 42.59 62.8542 42.4756 63.1422 42.4756C63.4302 42.4756 63.7064 42.59 63.91 42.7936C64.1137 42.9973 64.2281 43.2735 64.2281 43.5615C64.2269 44.4349 63.8795 45.2722 63.2619 45.8898C62.6443 46.5075 61.8069 46.8549 60.9335 46.8561Z" fill="white"/>
<path opacity="0.996" d="M67.558 44.6473C67.27 44.6473 66.9938 44.5329 66.7902 44.3293C66.5865 44.1256 66.4721 43.8494 66.4721 43.5614C66.4721 43.2637 66.3538 42.9781 66.1432 42.7675C65.9327 42.5569 65.6471 42.4386 65.3493 42.4386C65.0515 42.4386 64.7659 42.5569 64.5553 42.7675C64.3448 42.9781 64.2265 43.2637 64.2265 43.5614C64.2265 43.8494 64.1121 44.1256 63.9084 44.3293C63.7048 44.5329 63.4286 44.6473 63.1406 44.6473C62.8526 44.6473 62.5764 44.5329 62.3727 44.3293C62.1691 44.1256 62.0547 43.8494 62.0547 43.5614C62.0547 42.6877 62.4018 41.8497 63.0197 41.2318C63.6375 40.6139 64.4755 40.2668 65.3493 40.2668C66.2231 40.2668 67.061 40.6139 67.6789 41.2318C68.2968 41.8497 68.6439 42.6877 68.6439 43.5614C68.6439 43.8494 68.5295 44.1256 68.3258 44.3293C68.1222 44.5329 67.846 44.6473 67.558 44.6473Z" fill="white"/>
<path opacity="0.996" d="M69.7712 46.8561C68.8977 46.8549 68.0604 46.5075 67.4428 45.8898C66.8252 45.2722 66.4777 44.4349 66.4766 43.5615C66.4766 43.2735 66.591 42.9973 66.7946 42.7936C66.9982 42.59 67.2745 42.4756 67.5625 42.4756C67.8505 42.4756 68.1266 42.59 68.3303 42.7936C68.5339 42.9973 68.6483 43.2735 68.6483 43.5615C68.6483 43.8596 68.7667 44.1454 68.9775 44.3562C69.1883 44.567 69.4741 44.6854 69.7722 44.6854C70.0703 44.6854 70.3562 44.567 70.567 44.3562C70.7777 44.1454 70.8961 43.8596 70.8961 43.5615C70.8961 43.2735 71.0105 42.9973 71.2142 42.7936C71.4178 42.59 71.694 42.4756 71.982 42.4756C72.27 42.4756 72.5462 42.59 72.7499 42.7936C72.9535 42.9973 73.0679 43.2735 73.0679 43.5615C73.0662 44.4351 72.7182 45.2724 72.1003 45.89C71.4823 46.5075 70.6448 46.8549 69.7712 46.8561Z" fill="white"/>
<path opacity="0.996" d="M76.4076 44.6473C76.1196 44.6473 75.8434 44.5329 75.6398 44.3293C75.4361 44.1256 75.3217 43.8494 75.3217 43.5614C75.3217 43.2637 75.2034 42.9781 74.9928 42.7675C74.7823 42.5569 74.4967 42.4386 74.1989 42.4386C73.9011 42.4386 73.6155 42.5569 73.405 42.7675C73.1944 42.9781 73.0761 43.2637 73.0761 43.5614C73.0761 43.8494 72.9617 44.1256 72.758 44.3293C72.5544 44.5329 72.2782 44.6473 71.9902 44.6473C71.7022 44.6473 71.426 44.5329 71.2224 44.3293C71.0187 44.1256 70.9043 43.8494 70.9043 43.5614C70.9043 42.6877 71.2514 41.8497 71.8693 41.2318C72.4871 40.6139 73.3251 40.2668 74.1989 40.2668C75.0727 40.2668 75.9107 40.6139 76.5285 41.2318C77.1464 41.8497 77.4935 42.6877 77.4935 43.5614C77.4935 43.8494 77.3791 44.1256 77.1755 44.3293C76.9718 44.5329 76.6956 44.6473 76.4076 44.6473Z" fill="white"/>
<path opacity="0.996" d="M78.6099 46.8561C77.7384 46.8521 76.9038 46.5033 76.2886 45.886C75.6733 45.2687 75.3273 44.433 75.3262 43.5615C75.3262 43.2735 75.4406 42.9973 75.6442 42.7936C75.8479 42.59 76.1241 42.4756 76.4121 42.4756C76.7001 42.4756 76.9763 42.59 77.1799 42.7936C77.3836 42.9973 77.498 43.2735 77.498 43.5615C77.498 43.8596 77.6164 44.1454 77.8272 44.3562C78.0379 44.567 78.3238 44.6854 78.6219 44.6854C78.9199 44.6854 79.2058 44.567 79.4166 44.3562C79.6274 44.1454 79.7458 43.8596 79.7458 43.5615C79.7458 43.2735 79.8601 42.9973 80.0638 42.7936C80.2674 42.59 80.5437 42.4756 80.8317 42.4756C81.1196 42.4756 81.3958 42.59 81.5995 42.7936C81.8031 42.9973 81.9175 43.2735 81.9175 43.5615C81.9158 44.4351 81.5678 45.2724 80.9499 45.89C80.3319 46.5075 79.4944 46.8549 78.6208 46.8561" fill="white"/>
<path opacity="0.996" d="M85.3451 44.6473C85.0571 44.6473 84.7809 44.5329 84.5773 44.3293C84.3736 44.1256 84.2592 43.8494 84.2592 43.5614C84.2592 43.2637 84.1409 42.9781 83.9303 42.7675C83.7198 42.5569 83.4342 42.4386 83.1364 42.4386C82.8386 42.4386 82.553 42.5569 82.3425 42.7675C82.1319 42.9781 82.0136 43.2637 82.0136 43.5614C82.0136 43.8494 81.8992 44.1256 81.6955 44.3293C81.4919 44.5329 81.2157 44.6473 80.9277 44.6473C80.6397 44.6473 80.3635 44.5329 80.1599 44.3293C79.9562 44.1256 79.8418 43.8494 79.8418 43.5614C79.8418 43.1288 79.927 42.7004 80.0926 42.3007C80.2582 41.9009 80.5008 41.5377 80.8068 41.2318C81.1127 40.9259 81.4759 40.6832 81.8756 40.5176C82.2753 40.3521 82.7037 40.2668 83.1364 40.2668C83.569 40.2668 83.9975 40.3521 84.3972 40.5176C84.7969 40.6832 85.1601 40.9259 85.466 41.2318C85.7719 41.5377 86.0146 41.9009 86.1802 42.3007C86.3458 42.7004 86.431 43.1288 86.431 43.5614C86.431 43.8494 86.3166 44.1256 86.113 44.3293C85.9093 44.5329 85.6331 44.6473 85.3451 44.6473Z" fill="white"/>
<path opacity="0.996" d="M87.5446 46.8561C86.6712 46.8549 85.8338 46.5075 85.2162 45.8898C84.5986 45.2722 84.2511 44.4349 84.25 43.5615C84.25 43.2735 84.3644 42.9973 84.5681 42.7936C84.7717 42.59 85.0479 42.4756 85.3359 42.4756C85.6239 42.4756 85.9001 42.59 86.1038 42.7936C86.3074 42.9973 86.4218 43.2735 86.4218 43.5615C86.4345 43.851 86.5585 44.1245 86.7679 44.3248C86.9773 44.5252 87.2559 44.637 87.5457 44.637C87.8355 44.637 88.1141 44.5252 88.3235 44.3248C88.5329 44.1245 88.6569 43.851 88.6696 43.5615C88.6696 43.2735 88.784 42.9973 88.9877 42.7936C89.1913 42.59 89.4675 42.4756 89.7555 42.4756C90.0435 42.4756 90.3197 42.59 90.5233 42.7936C90.727 42.9973 90.8414 43.2735 90.8414 43.5615C90.8397 44.4351 90.4917 45.2724 89.8737 45.89C89.2558 46.5075 88.4182 46.8549 87.5446 46.8561Z" fill="white"/>
</g>
</g>
</g>
<g opacity="0.996">
<g opacity="0.996">
<g opacity="0.996">
<path opacity="0.996" d="M5.50329 32.5138C5.2153 32.5138 4.93908 32.3994 4.73544 32.1957C4.53179 31.9921 4.4174 31.7159 4.4174 31.4279C4.4174 31.1301 4.2991 30.8445 4.08853 30.6339C3.87796 30.4234 3.59238 30.3051 3.29459 30.3051C2.9968 30.3051 2.71119 30.4234 2.50062 30.6339C2.29005 30.8445 2.17178 31.1301 2.17178 31.4279C2.17178 31.7159 2.05736 31.9921 1.85372 32.1957C1.65007 32.3994 1.37389 32.5138 1.08589 32.5138C0.797896 32.5138 0.521677 32.3994 0.318033 32.1957C0.114389 31.9921 0 31.7159 0 31.4279C0 30.5541 0.347112 29.7161 0.964969 29.0983C1.58283 28.4804 2.42081 28.1333 3.29459 28.1333C4.16837 28.1333 5.00636 28.4804 5.62422 29.0983C6.24207 29.7161 6.58919 30.5541 6.58919 31.4279C6.58919 31.7159 6.47476 31.9921 6.27112 32.1957C6.06748 32.3994 5.79129 32.5138 5.50329 32.5138Z" fill="white"/>
<path opacity="0.996" d="M7.7028 34.7223C6.82937 34.7211 5.99207 34.3737 5.37446 33.7561C4.75686 33.1384 4.40935 32.3011 4.4082 31.4277C4.4082 31.1397 4.52263 30.8635 4.72627 30.6598C4.92991 30.4562 5.2061 30.3418 5.4941 30.3418C5.78209 30.3418 6.05831 30.4562 6.26195 30.6598C6.4656 30.8635 6.57999 31.1397 6.57999 31.4277C6.59272 31.7172 6.71671 31.9907 6.92609 32.191C7.13547 32.3914 7.41408 32.5033 7.70389 32.5033C7.9937 32.5033 8.27235 32.3914 8.48172 32.191C8.6911 31.9907 8.81506 31.7172 8.82779 31.4277C8.82779 31.1397 8.94221 30.8635 9.14586 30.6598C9.3495 30.4562 9.62569 30.3418 9.91368 30.3418C10.2017 30.3418 10.4779 30.4562 10.6815 30.6598C10.8852 30.8635 10.9996 31.1397 10.9996 31.4277C10.9979 32.3013 10.6499 33.1386 10.032 33.7562C9.414 34.3737 8.57643 34.7211 7.7028 34.7223Z" fill="white"/>
<path opacity="0.996" d="M14.3334 32.5138C14.0454 32.5138 13.7692 32.3994 13.5655 32.1957C13.3619 31.9921 13.2475 31.7159 13.2475 31.4279C13.2475 31.1301 13.1292 30.8445 12.9186 30.634C12.708 30.4234 12.4225 30.3051 12.1247 30.3051C11.8269 30.3051 11.5413 30.4234 11.3307 30.634C11.1202 30.8445 11.0019 31.1301 11.0019 31.4279C11.0019 31.7159 10.8875 31.9921 10.6838 32.1957C10.4802 32.3994 10.204 32.5138 9.91597 32.5138C9.62797 32.5138 9.35179 32.3994 9.14814 32.1957C8.9445 31.9921 8.83008 31.7159 8.83008 31.4279C8.83008 30.9952 8.9153 30.5668 9.08087 30.1671C9.24644 29.7674 9.48912 29.4042 9.79505 29.0983C10.101 28.7923 10.4642 28.5497 10.8639 28.3841C11.2636 28.2185 11.692 28.1333 12.1247 28.1333C12.5573 28.1333 12.9858 28.2185 13.3855 28.3841C13.7852 28.5497 14.1484 28.7923 14.4543 29.0983C14.7602 29.4042 15.0029 29.7674 15.1685 30.1671C15.3341 30.5668 15.4193 30.9952 15.4193 31.4279C15.4193 31.7159 15.3049 31.9921 15.1012 32.1957C14.8976 32.3994 14.6214 32.5138 14.3334 32.5138Z" fill="white"/>
<path opacity="0.996" d="M16.5446 34.7223C15.6712 34.7211 14.8339 34.3737 14.2163 33.7561C13.5987 33.1384 13.2511 32.3011 13.25 31.4277C13.25 31.1397 13.3644 30.8635 13.5681 30.6598C13.7717 30.4562 14.0479 30.3418 14.3359 30.3418C14.6239 30.3418 14.9001 30.4562 15.1038 30.6598C15.3074 30.8635 15.4218 31.1397 15.4218 31.4277C15.4218 31.7255 15.5401 32.0111 15.7507 32.2216C15.9612 32.4322 16.2468 32.5505 16.5446 32.5505C16.8424 32.5505 17.128 32.4322 17.3386 32.2216C17.5491 32.0111 17.6674 31.7255 17.6674 31.4277C17.6674 31.1397 17.7818 30.8635 17.9855 30.6598C18.1891 30.4562 18.4653 30.3418 18.7533 30.3418C19.0413 30.3418 19.3175 30.4562 19.5212 30.6598C19.7248 30.8635 19.8392 31.1397 19.8392 31.4277C19.8381 32.3011 19.4906 33.1384 18.873 33.7561C18.2554 34.3737 17.418 34.7211 16.5446 34.7223Z" fill="white"/>
<path opacity="0.996" d="M23.1791 32.5138C22.8911 32.5138 22.6149 32.3994 22.4112 32.1957C22.2076 31.9921 22.0932 31.7159 22.0932 31.4279C22.0932 31.1301 21.9749 30.8445 21.7643 30.6339C21.5537 30.4234 21.2682 30.3051 20.9704 30.3051C20.6726 30.3051 20.387 30.4234 20.1764 30.6339C19.9659 30.8445 19.8476 31.1301 19.8476 31.4279C19.8476 31.7159 19.7331 31.9921 19.5295 32.1957C19.3259 32.3994 19.0497 32.5138 18.7617 32.5138C18.4737 32.5138 18.1975 32.3994 17.9938 32.1957C17.7902 31.9921 17.6758 31.7159 17.6758 31.4279C17.6758 30.5541 18.0229 29.7161 18.6407 29.0983C19.2586 28.4804 20.0966 28.1333 20.9704 28.1333C21.8442 28.1333 22.6821 28.4804 23.3 29.0983C23.9179 29.7161 24.265 30.5541 24.265 31.4279C24.265 31.7159 24.1506 31.9921 23.9469 32.1957C23.7433 32.3994 23.4671 32.5138 23.1791 32.5138Z" fill="white"/>
<path opacity="0.996" d="M25.3808 34.7223C24.5071 34.7211 23.6696 34.3737 23.0516 33.7562C22.4337 33.1386 22.0857 32.3013 22.084 31.4277C22.084 31.1397 22.1984 30.8635 22.4021 30.6598C22.6057 30.4562 22.8819 30.3418 23.1699 30.3418C23.4579 30.3418 23.7341 30.4562 23.9377 30.6598C24.1414 30.8635 24.2558 31.1397 24.2558 31.4277C24.2685 31.7172 24.3925 31.9907 24.6019 32.191C24.8112 32.3914 25.0899 32.5033 25.3797 32.5033C25.6695 32.5033 25.9481 32.3914 26.1575 32.191C26.3669 31.9907 26.4908 31.7172 26.5036 31.4277C26.5036 31.1397 26.618 30.8635 26.8216 30.6598C27.0253 30.4562 27.3015 30.3418 27.5895 30.3418C27.8775 30.3418 28.1536 30.4562 28.3573 30.6598C28.5609 30.8635 28.6754 31.1397 28.6754 31.4277C28.6742 32.3011 28.3267 33.1384 27.7091 33.7561C27.0915 34.3737 26.2542 34.7211 25.3808 34.7223Z" fill="white"/>
<path opacity="0.996" d="M32.099 32.5138C31.811 32.5138 31.5348 32.3994 31.3311 32.1957C31.1275 31.9921 31.0131 31.7159 31.0131 31.4279C31.0131 31.1301 30.8948 30.8445 30.6842 30.6339C30.4737 30.4234 30.1881 30.3051 29.8903 30.3051C29.5925 30.3051 29.3069 30.4234 29.0963 30.6339C28.8858 30.8445 28.7675 31.1301 28.7675 31.4279C28.7675 31.7159 28.6531 31.9921 28.4494 32.1957C28.2458 32.3994 27.9696 32.5138 27.6816 32.5138C27.3936 32.5138 27.1174 32.3994 26.9137 32.1957C26.7101 31.9921 26.5957 31.7159 26.5957 31.4279C26.5957 30.5541 26.9428 29.7161 27.5606 29.0983C28.1785 28.4804 29.0165 28.1333 29.8903 28.1333C30.7641 28.1333 31.6021 28.4804 32.2199 29.0983C32.8378 29.7161 33.1849 30.5541 33.1849 31.4279C33.1849 31.7159 33.0705 31.9921 32.8668 32.1957C32.6632 32.3994 32.387 32.5138 32.099 32.5138Z" fill="white"/>
<path opacity="0.996" d="M34.3191 34.7223C33.8857 34.7231 33.4564 34.6386 33.0557 34.4735C32.655 34.3083 32.2907 34.0659 31.9837 33.7599C31.6768 33.4539 31.4331 33.0905 31.2667 32.6903C31.1002 32.2901 31.0142 31.8611 31.0137 31.4277C31.0137 31.1397 31.1281 30.8635 31.3317 30.6598C31.5353 30.4562 31.8116 30.3418 32.0996 30.3418C32.3876 30.3418 32.6637 30.4562 32.8674 30.6598C33.071 30.8635 33.1855 31.1397 33.1855 31.4277C33.1855 31.7255 33.3038 32.0111 33.5143 32.2216C33.7249 32.4322 34.0105 32.5505 34.3083 32.5505C34.6061 32.5505 34.8916 32.4322 35.1022 32.2216C35.3128 32.0111 35.4311 31.7255 35.4311 31.4277C35.4311 31.1397 35.5455 30.8635 35.7491 30.6598C35.9528 30.4562 36.229 30.3418 36.517 30.3418C36.805 30.3418 37.0811 30.4562 37.2848 30.6598C37.4884 30.8635 37.6029 31.1397 37.6029 31.4277C37.6017 32.3011 37.2542 33.1384 36.6366 33.7561C36.019 34.3737 35.1817 34.7211 34.3083 34.7223" fill="white"/>
<path opacity="0.996" d="M40.9447 32.5138C40.6567 32.5138 40.3805 32.3994 40.1768 32.1957C39.9732 31.9921 39.8588 31.7159 39.8588 31.4279C39.8588 31.1301 39.7405 30.8445 39.5299 30.6339C39.3194 30.4234 39.0338 30.3051 38.736 30.3051C38.4382 30.3051 38.1526 30.4234 37.9421 30.6339C37.7315 30.8445 37.6132 31.1301 37.6132 31.4279C37.6132 31.7159 37.4988 31.9921 37.2951 32.1957C37.0915 32.3994 36.8153 32.5138 36.5273 32.5138C36.2393 32.5138 35.9631 32.3994 35.7594 32.1957C35.5558 31.9921 35.4414 31.7159 35.4414 31.4279C35.4414 30.5541 35.7885 29.7161 36.4064 29.0983C37.0242 28.4804 37.8622 28.1333 38.736 28.1333C39.6098 28.1333 40.4478 28.4804 41.0656 29.0983C41.6835 29.7161 42.0306 30.5541 42.0306 31.4279C42.0306 31.7159 41.9162 31.9921 41.7125 32.1957C41.5089 32.3994 41.2327 32.5138 40.9447 32.5138Z" fill="white"/>
<path opacity="0.996" d="M43.1622 34.7223C42.2882 34.7217 41.4501 34.3746 40.8317 33.7569C40.2133 33.1393 39.865 32.3017 39.8633 31.4277C39.8633 31.1397 39.9777 30.8635 40.1813 30.6598C40.385 30.4562 40.6612 30.3418 40.9492 30.3418C41.2372 30.3418 41.5134 30.4562 41.717 30.6598C41.9207 30.8635 42.0351 31.1397 42.0351 31.4277C42.0351 31.7261 42.1536 32.0122 42.3646 32.2232C42.5755 32.4341 42.8617 32.5527 43.1601 32.5527C43.4584 32.5527 43.7446 32.4341 43.9556 32.2232C44.1665 32.0122 44.2851 31.7261 44.2851 31.4277C44.2851 31.1397 44.3994 30.8635 44.6031 30.6598C44.8067 30.4562 45.083 30.3418 45.371 30.3418C45.6589 30.3418 45.9351 30.4562 46.1388 30.6598C46.3424 30.8635 46.4568 31.1397 46.4568 31.4277C46.4557 32.3011 46.1082 33.1384 45.4906 33.7561C44.873 34.3737 44.0357 34.7211 43.1622 34.7223Z" fill="white"/>
<path opacity="0.996" d="M49.7885 32.5138C49.5005 32.5138 49.2243 32.3994 49.0206 32.1957C48.817 31.9921 48.7026 31.7159 48.7026 31.4279C48.7026 31.1301 48.5843 30.8445 48.3737 30.6339C48.1632 30.4234 47.8775 30.3051 47.5797 30.3051C47.282 30.3051 46.9964 30.4234 46.7858 30.6339C46.5752 30.8445 46.4569 31.1301 46.4569 31.4279C46.4569 31.7159 46.3426 31.9921 46.1389 32.1957C45.9353 32.3994 45.659 32.5138 45.371 32.5138C45.0831 32.5138 44.8069 32.3994 44.6032 32.1957C44.3996 31.9921 44.2852 31.7159 44.2852 31.4279C44.2852 30.5541 44.6323 29.7161 45.2501 29.0983C45.868 28.4804 46.706 28.1333 47.5797 28.1333C48.4535 28.1333 49.2915 28.4804 49.9094 29.0983C50.5272 29.7161 50.8743 30.5541 50.8743 31.4279C50.8743 31.7159 50.76 31.9921 50.5563 32.1957C50.3527 32.3994 50.0764 32.5138 49.7885 32.5138Z" fill="white"/>
<path opacity="0.996" d="M51.988 34.7223C51.1145 34.7211 50.2772 34.3737 49.6596 33.7561C49.042 33.1384 48.6945 32.3011 48.6934 31.4277C48.6934 31.1397 48.8078 30.8635 49.0114 30.6598C49.2151 30.4562 49.4913 30.3418 49.7793 30.3418C50.0672 30.3418 50.3435 30.4562 50.5471 30.6598C50.7508 30.8635 50.8651 31.1397 50.8651 31.4277C50.8779 31.7172 51.0019 31.9907 51.2112 32.191C51.4206 32.3914 51.6992 32.5033 51.989 32.5033C52.2789 32.5033 52.5575 32.3914 52.7669 32.191C52.9763 31.9907 53.1002 31.7172 53.1129 31.4277C53.1129 31.1397 53.2274 30.8635 53.431 30.6598C53.6347 30.4562 53.9108 30.3418 54.1988 30.3418C54.4868 30.3418 54.7631 30.4562 54.9667 30.6598C55.1703 30.8635 55.2847 31.1397 55.2847 31.4277C55.283 32.3013 54.9351 33.1386 54.3171 33.7562C53.6992 34.3737 52.8616 34.7211 51.988 34.7223Z" fill="white"/>
<path opacity="0.996" d="M58.7281 32.5136C58.4401 32.5136 58.1639 32.3992 57.9603 32.1956C57.7566 31.9919 57.6422 31.7157 57.6422 31.4277C57.6295 31.1382 57.5055 30.8648 57.2961 30.6644C57.0868 30.464 56.8082 30.3522 56.5183 30.3522C56.2285 30.3522 55.9499 30.464 55.7405 30.6644C55.5311 30.8648 55.4072 31.1382 55.3944 31.4277C55.3944 31.7157 55.28 31.9919 55.0764 32.1956C54.8727 32.3992 54.5965 32.5136 54.3085 32.5136C54.0206 32.5136 53.7443 32.3992 53.5407 32.1956C53.337 31.9919 53.2227 31.7157 53.2227 31.4277C53.2447 30.5683 53.6016 29.7515 54.2173 29.1515C54.8329 28.5514 55.6586 28.2156 56.5183 28.2156C57.378 28.2156 58.2037 28.5514 58.8194 29.1515C59.4351 29.7515 59.792 30.5683 59.814 31.4277C59.814 31.7157 59.6996 31.9919 59.496 32.1956C59.2923 32.3992 59.0161 32.5136 58.7281 32.5136Z" fill="white"/>
<path opacity="0.996" d="M60.9335 34.7223C60.0599 34.7211 59.2223 34.3737 58.6044 33.7562C57.9864 33.1386 57.6384 32.3013 57.6367 31.4277C57.6367 31.1397 57.7511 30.8635 57.9548 30.6598C58.1584 30.4562 58.4346 30.3418 58.7226 30.3418C59.0106 30.3418 59.2868 30.4562 59.4905 30.6598C59.6941 30.8635 59.8085 31.1397 59.8085 31.4277C59.8212 31.7172 59.9452 31.9907 60.1546 32.191C60.364 32.3914 60.6426 32.5033 60.9324 32.5033C61.2222 32.5033 61.5008 32.3914 61.7102 32.191C61.9196 31.9907 62.0436 31.7172 62.0563 31.4277C62.0563 31.1397 62.1707 30.8635 62.3743 30.6598C62.578 30.4562 62.8542 30.3418 63.1422 30.3418C63.4302 30.3418 63.7064 30.4562 63.91 30.6598C64.1137 30.8635 64.2281 31.1397 64.2281 31.4277C64.2269 32.3011 63.8795 33.1384 63.2619 33.7561C62.6443 34.3737 61.8069 34.7211 60.9335 34.7223Z" fill="white"/>
<path opacity="0.996" d="M67.558 32.5138C67.27 32.5138 66.9938 32.3994 66.7902 32.1957C66.5865 31.9921 66.4721 31.7159 66.4721 31.4279C66.4721 31.1301 66.3538 30.8445 66.1432 30.6339C65.9327 30.4234 65.6471 30.3051 65.3493 30.3051C65.0515 30.3051 64.7659 30.4234 64.5553 30.6339C64.3448 30.8445 64.2265 31.1301 64.2265 31.4279C64.2265 31.7159 64.1121 31.9921 63.9084 32.1957C63.7048 32.3994 63.4286 32.5138 63.1406 32.5138C62.8526 32.5138 62.5764 32.3994 62.3727 32.1957C62.1691 31.9921 62.0547 31.7159 62.0547 31.4279C62.0547 30.5541 62.4018 29.7161 63.0197 29.0983C63.6375 28.4804 64.4755 28.1333 65.3493 28.1333C66.2231 28.1333 67.061 28.4804 67.6789 29.0983C68.2968 29.7161 68.6439 30.5541 68.6439 31.4279C68.6439 31.7159 68.5295 31.9921 68.3258 32.1957C68.1222 32.3994 67.846 32.5138 67.558 32.5138Z" fill="white"/>
<path opacity="0.996" d="M69.7712 34.7223C68.8977 34.7211 68.0604 34.3737 67.4428 33.7561C66.8252 33.1384 66.4777 32.3011 66.4766 31.4277C66.4766 31.1397 66.591 30.8635 66.7946 30.6598C66.9982 30.4562 67.2745 30.3418 67.5625 30.3418C67.8505 30.3418 68.1266 30.4562 68.3303 30.6598C68.5339 30.8635 68.6483 31.1397 68.6483 31.4277C68.6483 31.7258 68.7667 32.0116 68.9775 32.2224C69.1883 32.4332 69.4741 32.5516 69.7722 32.5516C70.0703 32.5516 70.3562 32.4332 70.567 32.2224C70.7777 32.0116 70.8961 31.7258 70.8961 31.4277C70.8961 31.1397 71.0105 30.8635 71.2142 30.6598C71.4178 30.4562 71.694 30.3418 71.982 30.3418C72.27 30.3418 72.5462 30.4562 72.7499 30.6598C72.9535 30.8635 73.0679 31.1397 73.0679 31.4277C73.0662 32.3013 72.7182 33.1386 72.1003 33.7562C71.4823 34.3737 70.6448 34.7211 69.7712 34.7223Z" fill="white"/>
<path opacity="0.996" d="M76.4076 32.5138C76.1196 32.5138 75.8434 32.3994 75.6398 32.1957C75.4361 31.9921 75.3217 31.7159 75.3217 31.4279C75.3217 31.1301 75.2034 30.8445 74.9928 30.6339C74.7823 30.4234 74.4967 30.3051 74.1989 30.3051C73.9011 30.3051 73.6155 30.4234 73.405 30.6339C73.1944 30.8445 73.0761 31.1301 73.0761 31.4279C73.0761 31.7159 72.9617 31.9921 72.758 32.1957C72.5544 32.3994 72.2782 32.5138 71.9902 32.5138C71.7022 32.5138 71.426 32.3994 71.2224 32.1957C71.0187 31.9921 70.9043 31.7159 70.9043 31.4279C70.9043 30.5541 71.2514 29.7161 71.8693 29.0983C72.4871 28.4804 73.3251 28.1333 74.1989 28.1333C75.0727 28.1333 75.9107 28.4804 76.5285 29.0983C77.1464 29.7161 77.4935 30.5541 77.4935 31.4279C77.4935 31.7159 77.3791 31.9921 77.1755 32.1957C76.9718 32.3994 76.6956 32.5138 76.4076 32.5138Z" fill="white"/>
<path opacity="0.996" d="M78.6099 34.7223C77.7384 34.7183 76.9038 34.3695 76.2886 33.7522C75.6733 33.1349 75.3273 32.2992 75.3262 31.4277C75.3262 31.1397 75.4406 30.8635 75.6442 30.6598C75.8479 30.4562 76.1241 30.3418 76.4121 30.3418C76.7001 30.3418 76.9763 30.4562 77.1799 30.6598C77.3836 30.8635 77.498 31.1397 77.498 31.4277C77.498 31.7258 77.6164 32.0116 77.8272 32.2224C78.0379 32.4332 78.3238 32.5516 78.6219 32.5516C78.9199 32.5516 79.2058 32.4332 79.4166 32.2224C79.6274 32.0116 79.7458 31.7258 79.7458 31.4277C79.7458 31.1397 79.8601 30.8635 80.0638 30.6598C80.2674 30.4562 80.5437 30.3418 80.8317 30.3418C81.1196 30.3418 81.3958 30.4562 81.5995 30.6598C81.8031 30.8635 81.9175 31.1397 81.9175 31.4277C81.9158 32.3013 81.5678 33.1386 80.9499 33.7562C80.3319 34.3737 79.4944 34.7211 78.6208 34.7223" fill="white"/>
<path opacity="0.996" d="M85.3451 32.5138C85.0571 32.5138 84.7809 32.3994 84.5773 32.1957C84.3736 31.9921 84.2592 31.7159 84.2592 31.4279C84.2592 31.1301 84.1409 30.8445 83.9303 30.634C83.7198 30.4234 83.4342 30.3051 83.1364 30.3051C82.8386 30.3051 82.553 30.4234 82.3425 30.634C82.1319 30.8445 82.0136 31.1301 82.0136 31.4279C82.0136 31.7159 81.8992 31.9921 81.6955 32.1957C81.4919 32.3994 81.2157 32.5138 80.9277 32.5138C80.6397 32.5138 80.3635 32.3994 80.1599 32.1957C79.9562 31.9921 79.8418 31.7159 79.8418 31.4279C79.8418 30.9952 79.927 30.5668 80.0926 30.1671C80.2582 29.7674 80.5008 29.4042 80.8068 29.0983C81.1127 28.7923 81.4759 28.5497 81.8756 28.3841C82.2753 28.2185 82.7037 28.1333 83.1364 28.1333C83.569 28.1333 83.9975 28.2185 84.3972 28.3841C84.7969 28.5497 85.1601 28.7923 85.466 29.0983C85.7719 29.4042 86.0146 29.7674 86.1802 30.1671C86.3458 30.5668 86.431 30.9952 86.431 31.4279C86.431 31.7159 86.3166 31.9921 86.113 32.1957C85.9093 32.3994 85.6331 32.5138 85.3451 32.5138Z" fill="white"/>
<path opacity="0.996" d="M87.5446 34.7223C86.6712 34.7211 85.8338 34.3737 85.2162 33.7561C84.5986 33.1384 84.2511 32.3011 84.25 31.4277C84.25 31.1397 84.3644 30.8635 84.5681 30.6598C84.7717 30.4562 85.0479 30.3418 85.3359 30.3418C85.6239 30.3418 85.9001 30.4562 86.1038 30.6598C86.3074 30.8635 86.4218 31.1397 86.4218 31.4277C86.4345 31.7172 86.5585 31.9907 86.7679 32.191C86.9773 32.3914 87.2559 32.5033 87.5457 32.5033C87.8355 32.5033 88.1141 32.3914 88.3235 32.191C88.5329 31.9907 88.6569 31.7172 88.6696 31.4277C88.6696 31.1397 88.784 30.8635 88.9877 30.6598C89.1913 30.4562 89.4675 30.3418 89.7555 30.3418C90.0435 30.3418 90.3197 30.4562 90.5233 30.6598C90.727 30.8635 90.8414 31.1397 90.8414 31.4277C90.8397 32.3013 90.4917 33.1386 89.8737 33.7562C89.2558 34.3737 88.4182 34.7211 87.5446 34.7223Z" fill="white"/>
</g>
</g>
</g>
<g opacity="0.996">
<g opacity="0.996">
<g opacity="0.996">
<path opacity="0.996" d="M5.50329 20.3805C5.2153 20.3805 4.93908 20.2661 4.73544 20.0624C4.53179 19.8588 4.4174 19.5826 4.4174 19.2946C4.4174 18.9968 4.2991 18.7112 4.08853 18.5006C3.87796 18.2901 3.59238 18.1718 3.29459 18.1718C2.9968 18.1718 2.71119 18.2901 2.50062 18.5006C2.29005 18.7112 2.17178 18.9968 2.17178 19.2946C2.17178 19.5826 2.05736 19.8588 1.85372 20.0624C1.65007 20.2661 1.37389 20.3805 1.08589 20.3805C0.797896 20.3805 0.521677 20.2661 0.318033 20.0624C0.114389 19.8588 0 19.5826 0 19.2946C0 18.4208 0.347112 17.5828 0.964969 16.965C1.58283 16.3471 2.42081 16 3.29459 16C4.16837 16 5.00636 16.3471 5.62422 16.965C6.24207 17.5828 6.58919 18.4208 6.58919 19.2946C6.58919 19.5826 6.47476 19.8588 6.27112 20.0624C6.06748 20.2661 5.79129 20.3805 5.50329 20.3805Z" fill="white"/>
<path opacity="0.996" d="M7.7028 22.589C6.82937 22.5878 5.99207 22.2404 5.37446 21.6228C4.75686 21.0051 4.40935 20.1678 4.4082 19.2944C4.4082 19.0064 4.52263 18.7302 4.72627 18.5265C4.92991 18.3229 5.2061 18.2085 5.4941 18.2085C5.78209 18.2085 6.05831 18.3229 6.26195 18.5265C6.4656 18.7302 6.57999 19.0064 6.57999 19.2944C6.59272 19.5839 6.71671 19.8574 6.92609 20.0577C7.13547 20.2581 7.41408 20.37 7.70389 20.37C7.9937 20.37 8.27235 20.2581 8.48172 20.0577C8.6911 19.8574 8.81506 19.5839 8.82779 19.2944C8.82779 19.0064 8.94221 18.7302 9.14586 18.5265C9.3495 18.3229 9.62569 18.2085 9.91368 18.2085C10.2017 18.2085 10.4779 18.3229 10.6815 18.5265C10.8852 18.7302 10.9996 19.0064 10.9996 19.2944C10.9979 20.168 10.6499 21.0053 10.032 21.6229C9.414 22.2404 8.57643 22.5878 7.7028 22.589Z" fill="white"/>
<path opacity="0.996" d="M14.3334 20.3805C14.0454 20.3805 13.7692 20.2661 13.5655 20.0624C13.3619 19.8588 13.2475 19.5826 13.2475 19.2946C13.2475 18.9968 13.1292 18.7112 12.9186 18.5007C12.708 18.2901 12.4225 18.1718 12.1247 18.1718C11.8269 18.1718 11.5413 18.2901 11.3307 18.5007C11.1202 18.7112 11.0019 18.9968 11.0019 19.2946C11.0019 19.5826 10.8875 19.8588 10.6838 20.0624C10.4802 20.2661 10.204 20.3805 9.91597 20.3805C9.62797 20.3805 9.35179 20.2661 9.14814 20.0624C8.9445 19.8588 8.83008 19.5826 8.83008 19.2946C8.83008 18.8619 8.9153 18.4335 9.08087 18.0338C9.24644 17.6341 9.48912 17.2709 9.79505 16.965C10.101 16.659 10.4642 16.4164 10.8639 16.2508C11.2636 16.0852 11.692 16 12.1247 16C12.5573 16 12.9858 16.0852 13.3855 16.2508C13.7852 16.4164 14.1484 16.659 14.4543 16.965C14.7602 17.2709 15.0029 17.6341 15.1685 18.0338C15.3341 18.4335 15.4193 18.8619 15.4193 19.2946C15.4193 19.5826 15.3049 19.8588 15.1012 20.0624C14.8976 20.2661 14.6214 20.3805 14.3334 20.3805Z" fill="white"/>
<path opacity="0.996" d="M16.5446 22.589C15.6712 22.5878 14.8339 22.2404 14.2163 21.6228C13.5987 21.0051 13.2511 20.1678 13.25 19.2944C13.25 19.0064 13.3644 18.7302 13.5681 18.5265C13.7717 18.3229 14.0479 18.2085 14.3359 18.2085C14.6239 18.2085 14.9001 18.3229 15.1038 18.5265C15.3074 18.7302 15.4218 19.0064 15.4218 19.2944C15.4218 19.5922 15.5401 19.8778 15.7507 20.0883C15.9612 20.2989 16.2468 20.4172 16.5446 20.4172C16.8424 20.4172 17.128 20.2989 17.3386 20.0883C17.5491 19.8778 17.6674 19.5922 17.6674 19.2944C17.6674 19.0064 17.7818 18.7302 17.9855 18.5265C18.1891 18.3229 18.4653 18.2085 18.7533 18.2085C19.0413 18.2085 19.3175 18.3229 19.5212 18.5265C19.7248 18.7302 19.8392 19.0064 19.8392 19.2944C19.8381 20.1678 19.4906 21.0051 18.873 21.6228C18.2554 22.2404 17.418 22.5878 16.5446 22.589Z" fill="white"/>
<path opacity="0.996" d="M23.1791 20.3805C22.8911 20.3805 22.6149 20.2661 22.4112 20.0624C22.2076 19.8588 22.0932 19.5826 22.0932 19.2946C22.0932 18.9968 21.9749 18.7112 21.7643 18.5006C21.5537 18.2901 21.2682 18.1718 20.9704 18.1718C20.6726 18.1718 20.387 18.2901 20.1764 18.5006C19.9659 18.7112 19.8476 18.9968 19.8476 19.2946C19.8476 19.5826 19.7331 19.8588 19.5295 20.0624C19.3259 20.2661 19.0497 20.3805 18.7617 20.3805C18.4737 20.3805 18.1975 20.2661 17.9938 20.0624C17.7902 19.8588 17.6758 19.5826 17.6758 19.2946C17.6758 18.4208 18.0229 17.5828 18.6407 16.965C19.2586 16.3471 20.0966 16 20.9704 16C21.8442 16 22.6821 16.3471 23.3 16.965C23.9179 17.5828 24.265 18.4208 24.265 19.2946C24.265 19.5826 24.1506 19.8588 23.9469 20.0624C23.7433 20.2661 23.4671 20.3805 23.1791 20.3805Z" fill="white"/>
<path opacity="0.996" d="M25.3808 22.589C24.5071 22.5878 23.6696 22.2404 23.0516 21.6229C22.4337 21.0053 22.0857 20.168 22.084 19.2944C22.084 19.0064 22.1984 18.7302 22.4021 18.5265C22.6057 18.3229 22.8819 18.2085 23.1699 18.2085C23.4579 18.2085 23.7341 18.3229 23.9377 18.5265C24.1414 18.7302 24.2558 19.0064 24.2558 19.2944C24.2685 19.5839 24.3925 19.8574 24.6019 20.0577C24.8112 20.2581 25.0899 20.37 25.3797 20.37C25.6695 20.37 25.9481 20.2581 26.1575 20.0577C26.3669 19.8574 26.4908 19.5839 26.5036 19.2944C26.5036 19.0064 26.618 18.7302 26.8216 18.5265C27.0253 18.3229 27.3015 18.2085 27.5895 18.2085C27.8775 18.2085 28.1536 18.3229 28.3573 18.5265C28.5609 18.7302 28.6754 19.0064 28.6754 19.2944C28.6742 20.1678 28.3267 21.0051 27.7091 21.6228C27.0915 22.2404 26.2542 22.5878 25.3808 22.589Z" fill="white"/>
<path opacity="0.996" d="M32.099 20.3805C31.811 20.3805 31.5348 20.2661 31.3311 20.0624C31.1275 19.8588 31.0131 19.5826 31.0131 19.2946C31.0131 18.9968 30.8948 18.7112 30.6842 18.5006C30.4737 18.2901 30.1881 18.1718 29.8903 18.1718C29.5925 18.1718 29.3069 18.2901 29.0963 18.5006C28.8858 18.7112 28.7675 18.9968 28.7675 19.2946C28.7675 19.5826 28.6531 19.8588 28.4494 20.0624C28.2458 20.2661 27.9696 20.3805 27.6816 20.3805C27.3936 20.3805 27.1174 20.2661 26.9137 20.0624C26.7101 19.8588 26.5957 19.5826 26.5957 19.2946C26.5957 18.4208 26.9428 17.5828 27.5606 16.965C28.1785 16.3471 29.0165 16 29.8903 16C30.7641 16 31.6021 16.3471 32.2199 16.965C32.8378 17.5828 33.1849 18.4208 33.1849 19.2946C33.1849 19.5826 33.0705 19.8588 32.8668 20.0624C32.6632 20.2661 32.387 20.3805 32.099 20.3805Z" fill="white"/>
<path opacity="0.996" d="M34.3191 22.589C33.8857 22.5898 33.4564 22.5053 33.0557 22.3402C32.655 22.175 32.2907 21.9325 31.9837 21.6266C31.6768 21.3206 31.4331 20.9572 31.2667 20.557C31.1002 20.1568 31.0142 19.7278 31.0137 19.2944C31.0137 19.0064 31.1281 18.7302 31.3317 18.5265C31.5353 18.3229 31.8116 18.2085 32.0996 18.2085C32.3876 18.2085 32.6637 18.3229 32.8674 18.5265C33.071 18.7302 33.1855 19.0064 33.1855 19.2944C33.1855 19.5922 33.3038 19.8778 33.5143 20.0883C33.7249 20.2989 34.0105 20.4172 34.3083 20.4172C34.6061 20.4172 34.8916 20.2989 35.1022 20.0883C35.3128 19.8778 35.4311 19.5922 35.4311 19.2944C35.4311 19.0064 35.5455 18.7302 35.7491 18.5265C35.9528 18.3229 36.229 18.2085 36.517 18.2085C36.805 18.2085 37.0811 18.3229 37.2848 18.5265C37.4884 18.7302 37.6029 19.0064 37.6029 19.2944C37.6017 20.1678 37.2542 21.0051 36.6366 21.6228C36.019 22.2404 35.1817 22.5878 34.3083 22.589" fill="white"/>
<path opacity="0.996" d="M40.9447 20.3805C40.6567 20.3805 40.3805 20.2661 40.1768 20.0624C39.9732 19.8588 39.8588 19.5826 39.8588 19.2946C39.8588 18.9968 39.7405 18.7112 39.5299 18.5006C39.3194 18.2901 39.0338 18.1718 38.736 18.1718C38.4382 18.1718 38.1526 18.2901 37.9421 18.5006C37.7315 18.7112 37.6132 18.9968 37.6132 19.2946C37.6132 19.5826 37.4988 19.8588 37.2951 20.0624C37.0915 20.2661 36.8153 20.3805 36.5273 20.3805C36.2393 20.3805 35.9631 20.2661 35.7594 20.0624C35.5558 19.8588 35.4414 19.5826 35.4414 19.2946C35.4414 18.4208 35.7885 17.5828 36.4064 16.965C37.0242 16.3471 37.8622 16 38.736 16C39.6098 16 40.4478 16.3471 41.0656 16.965C41.6835 17.5828 42.0306 18.4208 42.0306 19.2946C42.0306 19.5826 41.9162 19.8588 41.7125 20.0624C41.5089 20.2661 41.2327 20.3805 40.9447 20.3805Z" fill="white"/>
<path opacity="0.996" d="M43.1622 22.589C42.2882 22.5884 41.4501 22.2413 40.8317 21.6236C40.2133 21.006 39.865 20.1684 39.8633 19.2944C39.8633 19.0064 39.9777 18.7302 40.1813 18.5265C40.385 18.3229 40.6612 18.2085 40.9492 18.2085C41.2372 18.2085 41.5134 18.3229 41.717 18.5265C41.9207 18.7302 42.0351 19.0064 42.0351 19.2944C42.0351 19.5928 42.1536 19.8789 42.3646 20.0899C42.5755 20.3008 42.8617 20.4194 43.1601 20.4194C43.4584 20.4194 43.7446 20.3008 43.9556 20.0899C44.1665 19.8789 44.2851 19.5928 44.2851 19.2944C44.2851 19.0064 44.3994 18.7302 44.6031 18.5265C44.8067 18.3229 45.083 18.2085 45.371 18.2085C45.6589 18.2085 45.9351 18.3229 46.1388 18.5265C46.3424 18.7302 46.4568 19.0064 46.4568 19.2944C46.4557 20.1678 46.1082 21.0051 45.4906 21.6228C44.873 22.2404 44.0357 22.5878 43.1622 22.589Z" fill="white"/>
<path opacity="0.996" d="M49.7885 20.3805C49.5005 20.3805 49.2243 20.2661 49.0206 20.0624C48.817 19.8588 48.7026 19.5826 48.7026 19.2946C48.7026 18.9968 48.5843 18.7112 48.3737 18.5006C48.1632 18.2901 47.8775 18.1718 47.5797 18.1718C47.282 18.1718 46.9964 18.2901 46.7858 18.5006C46.5752 18.7112 46.4569 18.9968 46.4569 19.2946C46.4569 19.5826 46.3426 19.8588 46.1389 20.0624C45.9353 20.2661 45.659 20.3805 45.371 20.3805C45.0831 20.3805 44.8069 20.2661 44.6032 20.0624C44.3996 19.8588 44.2852 19.5826 44.2852 19.2946C44.2852 18.4208 44.6323 17.5828 45.2501 16.965C45.868 16.3471 46.706 16 47.5797 16C48.4535 16 49.2915 16.3471 49.9094 16.965C50.5272 17.5828 50.8743 18.4208 50.8743 19.2946C50.8743 19.5826 50.76 19.8588 50.5563 20.0624C50.3527 20.2661 50.0764 20.3805 49.7885 20.3805Z" fill="white"/>
<path opacity="0.996" d="M51.988 22.589C51.1145 22.5878 50.2772 22.2404 49.6596 21.6228C49.042 21.0051 48.6945 20.1678 48.6934 19.2944C48.6934 19.0064 48.8078 18.7302 49.0114 18.5265C49.2151 18.3229 49.4913 18.2085 49.7793 18.2085C50.0672 18.2085 50.3435 18.3229 50.5471 18.5265C50.7508 18.7302 50.8651 19.0064 50.8651 19.2944C50.8779 19.5839 51.0019 19.8574 51.2112 20.0577C51.4206 20.2581 51.6992 20.37 51.989 20.37C52.2789 20.37 52.5575 20.2581 52.7669 20.0577C52.9763 19.8574 53.1002 19.5839 53.1129 19.2944C53.1129 19.0064 53.2274 18.7302 53.431 18.5265C53.6347 18.3229 53.9108 18.2085 54.1988 18.2085C54.4868 18.2085 54.7631 18.3229 54.9667 18.5265C55.1703 18.7302 55.2847 19.0064 55.2847 19.2944C55.283 20.168 54.9351 21.0053 54.3171 21.6229C53.6992 22.2404 52.8616 22.5878 51.988 22.589Z" fill="white"/>
<path opacity="0.996" d="M58.7281 20.3803C58.4401 20.3803 58.1639 20.2659 57.9603 20.0623C57.7566 19.8586 57.6422 19.5824 57.6422 19.2944C57.6295 19.0049 57.5055 18.7315 57.2961 18.5311C57.0868 18.3307 56.8082 18.2189 56.5183 18.2189C56.2285 18.2189 55.9499 18.3307 55.7405 18.5311C55.5311 18.7315 55.4072 19.0049 55.3944 19.2944C55.3944 19.5824 55.28 19.8586 55.0764 20.0623C54.8727 20.2659 54.5965 20.3803 54.3085 20.3803C54.0206 20.3803 53.7443 20.2659 53.5407 20.0623C53.337 19.8586 53.2227 19.5824 53.2227 19.2944C53.2447 18.435 53.6016 17.6182 54.2173 17.0182C54.8329 16.4181 55.6586 16.0823 56.5183 16.0823C57.378 16.0823 58.2037 16.4181 58.8194 17.0182C59.4351 17.6182 59.792 18.435 59.814 19.2944C59.814 19.5824 59.6996 19.8586 59.496 20.0623C59.2923 20.2659 59.0161 20.3803 58.7281 20.3803Z" fill="white"/>
<path opacity="0.996" d="M60.9335 22.589C60.0599 22.5878 59.2223 22.2404 58.6044 21.6229C57.9864 21.0053 57.6384 20.168 57.6367 19.2944C57.6367 19.0064 57.7511 18.7302 57.9548 18.5265C58.1584 18.3229 58.4346 18.2085 58.7226 18.2085C59.0106 18.2085 59.2868 18.3229 59.4905 18.5265C59.6941 18.7302 59.8085 19.0064 59.8085 19.2944C59.8212 19.5839 59.9452 19.8574 60.1546 20.0577C60.364 20.2581 60.6426 20.37 60.9324 20.37C61.2222 20.37 61.5008 20.2581 61.7102 20.0577C61.9196 19.8574 62.0436 19.5839 62.0563 19.2944C62.0563 19.0064 62.1707 18.7302 62.3743 18.5265C62.578 18.3229 62.8542 18.2085 63.1422 18.2085C63.4302 18.2085 63.7064 18.3229 63.91 18.5265C64.1137 18.7302 64.2281 19.0064 64.2281 19.2944C64.2269 20.1678 63.8795 21.0051 63.2619 21.6228C62.6443 22.2404 61.8069 22.5878 60.9335 22.589Z" fill="white"/>
<path opacity="0.996" d="M67.558 20.3805C67.27 20.3805 66.9938 20.2661 66.7902 20.0624C66.5865 19.8588 66.4721 19.5826 66.4721 19.2946C66.4721 18.9968 66.3538 18.7112 66.1432 18.5006C65.9327 18.2901 65.6471 18.1718 65.3493 18.1718C65.0515 18.1718 64.7659 18.2901 64.5553 18.5006C64.3448 18.7112 64.2265 18.9968 64.2265 19.2946C64.2265 19.5826 64.1121 19.8588 63.9084 20.0624C63.7048 20.2661 63.4286 20.3805 63.1406 20.3805C62.8526 20.3805 62.5764 20.2661 62.3727 20.0624C62.1691 19.8588 62.0547 19.5826 62.0547 19.2946C62.0547 18.4208 62.4018 17.5828 63.0197 16.965C63.6375 16.3471 64.4755 16 65.3493 16C66.2231 16 67.061 16.3471 67.6789 16.965C68.2968 17.5828 68.6439 18.4208 68.6439 19.2946C68.6439 19.5826 68.5295 19.8588 68.3258 20.0624C68.1222 20.2661 67.846 20.3805 67.558 20.3805Z" fill="white"/>
<path opacity="0.996" d="M69.7712 22.589C68.8977 22.5878 68.0604 22.2404 67.4428 21.6228C66.8252 21.0051 66.4777 20.1678 66.4766 19.2944C66.4766 19.0064 66.591 18.7302 66.7946 18.5265C66.9982 18.3229 67.2745 18.2085 67.5625 18.2085C67.8505 18.2085 68.1266 18.3229 68.3303 18.5265C68.5339 18.7302 68.6483 19.0064 68.6483 19.2944C68.6483 19.5925 68.7667 19.8783 68.9775 20.0891C69.1883 20.2999 69.4741 20.4183 69.7722 20.4183C70.0703 20.4183 70.3562 20.2999 70.567 20.0891C70.7777 19.8783 70.8961 19.5925 70.8961 19.2944C70.8961 19.0064 71.0105 18.7302 71.2142 18.5265C71.4178 18.3229 71.694 18.2085 71.982 18.2085C72.27 18.2085 72.5462 18.3229 72.7499 18.5265C72.9535 18.7302 73.0679 19.0064 73.0679 19.2944C73.0662 20.168 72.7182 21.0053 72.1003 21.6229C71.4823 22.2404 70.6448 22.5878 69.7712 22.589Z" fill="white"/>
<path opacity="0.996" d="M76.4076 20.3805C76.1196 20.3805 75.8434 20.2661 75.6398 20.0624C75.4361 19.8588 75.3217 19.5826 75.3217 19.2946C75.3217 18.9968 75.2034 18.7112 74.9928 18.5006C74.7823 18.2901 74.4967 18.1718 74.1989 18.1718C73.9011 18.1718 73.6155 18.2901 73.405 18.5006C73.1944 18.7112 73.0761 18.9968 73.0761 19.2946C73.0761 19.5826 72.9617 19.8588 72.758 20.0624C72.5544 20.2661 72.2782 20.3805 71.9902 20.3805C71.7022 20.3805 71.426 20.2661 71.2224 20.0624C71.0187 19.8588 70.9043 19.5826 70.9043 19.2946C70.9043 18.4208 71.2514 17.5828 71.8693 16.965C72.4871 16.3471 73.3251 16 74.1989 16C75.0727 16 75.9107 16.3471 76.5285 16.965C77.1464 17.5828 77.4935 18.4208 77.4935 19.2946C77.4935 19.5826 77.3791 19.8588 77.1755 20.0624C76.9718 20.2661 76.6956 20.3805 76.4076 20.3805Z" fill="white"/>
<path opacity="0.996" d="M78.6099 22.589C77.7384 22.585 76.9038 22.2362 76.2886 21.6189C75.6733 21.0016 75.3273 20.1659 75.3262 19.2944C75.3262 19.0064 75.4406 18.7302 75.6442 18.5265C75.8479 18.3229 76.1241 18.2085 76.4121 18.2085C76.7001 18.2085 76.9763 18.3229 77.1799 18.5265C77.3836 18.7302 77.498 19.0064 77.498 19.2944C77.498 19.5925 77.6164 19.8783 77.8272 20.0891C78.0379 20.2999 78.3238 20.4183 78.6219 20.4183C78.9199 20.4183 79.2058 20.2999 79.4166 20.0891C79.6274 19.8783 79.7458 19.5925 79.7458 19.2944C79.7458 19.0064 79.8601 18.7302 80.0638 18.5265C80.2674 18.3229 80.5437 18.2085 80.8317 18.2085C81.1196 18.2085 81.3958 18.3229 81.5995 18.5265C81.8031 18.7302 81.9175 19.0064 81.9175 19.2944C81.9158 20.168 81.5678 21.0053 80.9499 21.6229C80.3319 22.2404 79.4944 22.5878 78.6208 22.589" fill="white"/>
<path opacity="0.996" d="M85.3451 20.3805C85.0571 20.3805 84.7809 20.2661 84.5773 20.0624C84.3736 19.8588 84.2592 19.5826 84.2592 19.2946C84.2592 18.9968 84.1409 18.7112 83.9303 18.5007C83.7198 18.2901 83.4342 18.1718 83.1364 18.1718C82.8386 18.1718 82.553 18.2901 82.3425 18.5007C82.1319 18.7112 82.0136 18.9968 82.0136 19.2946C82.0136 19.5826 81.8992 19.8588 81.6955 20.0624C81.4919 20.2661 81.2157 20.3805 80.9277 20.3805C80.6397 20.3805 80.3635 20.2661 80.1599 20.0624C79.9562 19.8588 79.8418 19.5826 79.8418 19.2946C79.8418 18.8619 79.927 18.4335 80.0926 18.0338C80.2582 17.6341 80.5008 17.2709 80.8068 16.965C81.1127 16.659 81.4759 16.4164 81.8756 16.2508C82.2753 16.0852 82.7037 16 83.1364 16C83.569 16 83.9975 16.0852 84.3972 16.2508C84.7969 16.4164 85.1601 16.659 85.466 16.965C85.7719 17.2709 86.0146 17.6341 86.1802 18.0338C86.3458 18.4335 86.431 18.8619 86.431 19.2946C86.431 19.5826 86.3166 19.8588 86.113 20.0624C85.9093 20.2661 85.6331 20.3805 85.3451 20.3805Z" fill="white"/>
<path opacity="0.996" d="M87.5446 22.589C86.6712 22.5878 85.8338 22.2404 85.2162 21.6228C84.5986 21.0051 84.2511 20.1678 84.25 19.2944C84.25 19.0064 84.3644 18.7302 84.5681 18.5265C84.7717 18.3229 85.0479 18.2085 85.3359 18.2085C85.6239 18.2085 85.9001 18.3229 86.1038 18.5265C86.3074 18.7302 86.4218 19.0064 86.4218 19.2944C86.4345 19.5839 86.5585 19.8574 86.7679 20.0577C86.9773 20.2581 87.2559 20.37 87.5457 20.37C87.8355 20.37 88.1141 20.2581 88.3235 20.0577C88.5329 19.8574 88.6569 19.5839 88.6696 19.2944C88.6696 19.0064 88.784 18.7302 88.9877 18.5265C89.1913 18.3229 89.4675 18.2085 89.7555 18.2085C90.0435 18.2085 90.3197 18.3229 90.5233 18.5265C90.727 18.7302 90.8414 19.0064 90.8414 19.2944C90.8397 20.168 90.4917 21.0053 89.8737 21.6229C89.2558 22.2404 88.4182 22.5878 87.5446 22.589Z" fill="white"/>
</g>
</g>
</g>
<g filter="url(#filter2_d)">
<g clip-path="url(#clip0)">
<g filter="url(#filter3_d)">
<path d="M168.283 116.639C168.055 116.639 167.83 116.581 167.63 116.47C167.43 116.359 167.262 116.198 167.141 116.004L122.812 44.6597C122.624 44.3564 122.564 43.9907 122.645 43.6429C122.726 43.2952 122.941 42.9939 123.244 42.8054C123.546 42.6169 123.911 42.5566 124.258 42.6378C124.605 42.7189 124.906 42.9349 125.094 43.2382L169.424 114.582C169.55 114.786 169.62 115.02 169.626 115.26C169.632 115.5 169.573 115.737 169.457 115.947C169.341 116.157 169.171 116.331 168.964 116.453C168.758 116.575 168.523 116.639 168.283 116.639Z" fill="white"/>
</g>
<g filter="url(#filter4_d)">
<path d="M174.777 112.404C174.777 113.868 174.343 115.299 173.531 116.517C172.72 117.734 171.566 118.683 170.216 119.244C168.866 119.804 167.38 119.951 165.947 119.665C164.514 119.379 163.197 118.674 162.164 117.639C161.131 116.603 160.427 115.284 160.142 113.848C159.857 112.412 160.003 110.923 160.562 109.57C161.122 108.218 162.069 107.061 163.284 106.248C164.499 105.434 165.927 105 167.388 105C168.359 105 169.319 105.192 170.216 105.564C171.112 105.936 171.926 106.481 172.613 107.168C173.299 107.856 173.843 108.672 174.214 109.57C174.585 110.469 174.777 111.431 174.777 112.404Z" fill="#5DAEFF"/>
</g>
<g filter="url(#filter5_d)">
<path d="M254.262 105.87C255.605 109.908 256.196 118.809 256.196 118.809C256.196 118.809 270.778 116.639 273.266 113.947C275.754 111.255 265.008 101.832 265.008 101.832L254.262 105.87Z" fill="#5DAEFF"/>
</g>
<g filter="url(#filter6_d)">
<path d="M247.866 55.1414C232.27 55.1414 223.092 65.8176 222.875 80.545C223.239 79.8136 223.825 79.2264 224.542 78.8739C225.26 78.5213 226.069 78.4228 226.846 78.5935C227.622 78.7642 228.323 79.1946 228.841 79.8187C229.359 80.4427 229.664 81.2258 229.711 82.0476C229.758 82.8694 229.543 83.6843 229.1 84.3672C228.657 85.0501 228.009 85.5631 227.257 85.8273C226.506 86.0916 225.691 86.0925 224.938 85.8299C224.186 85.5673 223.538 85.0557 223.093 84.3738C224.967 97.6574 238.024 107.016 252.63 107.016C268.419 107.016 274.5 96.5076 274.5 81.4999C274.5 66.4921 263.654 55.1414 247.866 55.1414ZM237.968 81.79C238.06 81.0545 238.36 80.3636 238.83 79.8049C239.3 79.2461 239.92 78.8445 240.61 78.6508C241.301 78.4571 242.031 78.4801 242.709 78.7168C243.386 78.9535 243.981 79.3933 244.418 79.9805C244.855 80.5678 245.114 81.2762 245.162 82.0162C245.211 82.7561 245.047 83.4943 244.69 84.1375C244.334 84.7806 243.802 85.2999 243.162 85.6295C242.521 85.9591 241.8 86.0843 241.091 85.9893C240.62 85.9264 240.166 85.7678 239.754 85.5227C239.342 85.2776 238.981 84.9507 238.691 84.5607C238.401 84.1707 238.187 83.7253 238.064 83.2499C237.94 82.7745 237.907 82.2784 237.968 81.79ZM228.248 94.9537C227.847 94.0588 227.77 93.0437 228.033 92.095C228.295 91.1463 228.879 90.3277 229.677 89.7897C230.153 89.417 230.55 88.9471 230.844 88.409C231.138 87.8709 231.322 87.2761 231.385 86.6612C231.675 85.2221 231.655 83.7345 231.327 82.3043C231 80.874 230.372 79.5362 229.489 78.386C229.439 78.324 229.4 78.2522 229.377 78.1749C229.353 78.0976 229.344 78.0162 229.351 77.9353C229.357 77.8544 229.379 77.7757 229.415 77.7037C229.451 77.6316 229.501 77.5676 229.56 77.5153C229.62 77.463 229.689 77.4234 229.764 77.3988C229.839 77.3742 229.917 77.3651 229.995 77.372C230.073 77.3789 230.149 77.4016 230.218 77.4389C230.288 77.4762 230.35 77.5273 230.4 77.5894C231.397 78.883 232.107 80.3886 232.479 81.9991C232.851 83.6096 232.876 85.2853 232.552 86.907C232.465 87.7079 232.21 88.4794 231.805 89.1676C231.401 89.8558 230.856 90.4441 230.21 90.8915C229.697 91.2848 229.329 91.8477 229.166 92.4871C229.003 93.1266 229.055 93.8045 229.314 94.409C229.856 95.5577 231.212 95.6688 233.134 94.7215C233.522 94.5039 233.95 94.3705 234.39 94.3294C234.83 94.2884 235.273 94.3406 235.693 94.4828C236.113 94.625 236.5 94.8543 236.832 95.1567C237.164 95.4591 237.433 95.8283 237.623 96.2419C237.658 96.3145 237.679 96.3935 237.684 96.4745C237.69 96.5554 237.68 96.6367 237.655 96.7136C237.63 96.7906 237.591 96.8618 237.54 96.923C237.488 96.9843 237.426 97.0345 237.356 97.0707C237.273 97.113 237.182 97.135 237.089 97.1349C236.979 97.1349 236.87 97.103 236.776 97.0428C236.682 96.9826 236.606 96.8965 236.557 96.794C236.433 96.5267 236.257 96.2885 236.041 96.0942C235.825 95.8998 235.573 95.7535 235.3 95.6642C235.027 95.5748 234.74 95.5444 234.455 95.5747C234.171 95.605 233.895 95.6955 233.646 95.8405C229.889 97.6932 228.562 95.6293 228.244 94.9537H228.248ZM251.805 95.7195L251.305 96.2481C249.85 98.0051 248.027 99.3931 245.975 100.305C243.923 101.218 241.696 101.63 239.467 101.511C237.428 101.491 235.396 101.263 233.4 100.829C233.324 100.813 233.251 100.782 233.186 100.737C233.121 100.692 233.065 100.634 233.021 100.567C232.978 100.499 232.948 100.423 232.932 100.344C232.917 100.264 232.917 100.182 232.932 100.103C232.948 100.023 232.978 99.9477 233.021 99.8802C233.065 99.8128 233.121 99.7548 233.186 99.7098C233.251 99.6647 233.324 99.6333 233.4 99.6175C233.477 99.6017 233.556 99.6017 233.633 99.6175C244.412 101.854 248.045 97.9637 250.449 95.3897L250.963 94.8463C251.075 94.7338 251.225 94.6715 251.382 94.6729C251.538 94.6743 251.687 94.7393 251.798 94.8538C251.908 94.9683 251.971 95.1232 251.972 95.2851C251.973 95.447 251.913 95.603 251.805 95.7195Z" fill="#5DAEFF"/>
</g>
<g filter="url(#filter7_d)">
<path d="M166.001 121.5C164.657 124.192 161.568 140.869 180.375 155.677C199.181 170.484 219.331 162.407 232.764 154.33C246.197 146.254 265.004 122.024 251.571 116.639C238.137 111.255 231.421 134.139 204.554 139.523C185 144 175.155 128.053 176 115L166.001 121.5Z" fill="white"/>
</g>
<g filter="url(#filter8_d)">
<path d="M273.449 310.205C273.449 310.878 213 310.878 213 310.205C213 300.169 226.531 292.033 243.225 292.033C274.793 292.033 273.449 300.169 273.449 310.205Z" fill="#011A6E"/>
</g>
<g filter="url(#filter9_d)">
<path d="M320.994 310.514C320.994 311.162 277 311.162 277 310.514C277 300.841 288.351 289.5 300.5 289.5C323.475 289.5 320.994 300.841 320.994 310.514Z" fill="#011A6E"/>
</g>
<g filter="url(#filter10_d)">
<path d="M256.231 192.728C250.767 239.354 238.589 288.004 238.589 288.004C238.589 288.004 244.373 297.576 254.271 298.474C260.794 298.821 267.36 297.358 273.509 294.19C273.509 294.19 285.992 239.247 286.22 213.78C286.448 188.314 256.231 192.728 256.231 192.728Z" fill="#002DC1"/>
</g>
<g filter="url(#filter11_d)">
<path d="M249.96 110.916C246.774 112.845 247.783 112.845 245.419 116.568C245.055 117.141 244.554 118.59 245.765 118.967C247.279 119.438 257.022 114.684 268.123 114.213C279.223 113.742 271.655 112.8 269.132 111.858C266.609 110.916 257.206 106.53 249.96 110.916Z" fill="white"/>
</g>
<g filter="url(#filter12_d)">
<path d="M316.486 205.377C321.227 248.959 320.5 287 318 294.5C316.486 299.043 281.843 306.583 279.5 291C279.5 291 281.5 263 281.5 238.5C281.5 222.5 277.474 208.339 277.474 208.339C244.581 201.566 229.125 162.613 234.147 138.222C239.17 113.83 260.787 105.95 289.126 111.785C289.126 111.785 310.041 146.143 316.486 205.377Z" fill="#002DC1"/>
</g>
<path d="M321 161.682C321 191.335 309.5 205.5 282.5 210C247.976 215.754 226 191.335 226 161.682C226 132.03 244.266 109.076 270.5 109.076C299.5 107.449 321 132.03 321 161.682Z" fill="white"/>
<g filter="url(#filter13_d)">
<path d="M260.002 108C251.502 109 252.502 111 255.502 114C256.002 114.5 256.3 115.6 257.5 116C259 116.5 267 112 278 111.5C289 111 281.5 110 279 109C276.5 108 268.502 107 260.002 108Z" fill="white"/>
</g>
<g filter="url(#filter14_d)">
<path d="M219.121 62.9992C218.475 68.0216 220.157 74.6241 230.589 72.1591C241.022 69.6941 251.78 64.7197 253.178 63.6271C254.577 62.5345 253.082 74.2303 262.215 72.0325C271.349 69.8346 273.08 81.3312 274 84C274.92 86.6688 277.941 78.1526 276.671 72.982C275.4 67.8114 266.987 52.7933 253.178 50.7371C242.148 48.0239 220.409 52.9543 219.121 62.9992Z" fill="#002DC1"/>
</g>
<g filter="url(#filter15_d)">
<path d="M301.804 186.902C301.804 188.465 301.34 189.993 300.472 191.292C299.604 192.591 298.37 193.604 296.926 194.202C295.482 194.8 293.893 194.957 292.36 194.652C290.828 194.347 289.42 193.595 288.314 192.489C287.209 191.384 286.457 189.976 286.152 188.443C285.847 186.911 286.003 185.322 286.601 183.878C287.2 182.434 288.212 181.2 289.512 180.332C290.811 179.463 292.339 179 293.902 179C295.998 179 298.008 179.833 299.489 181.314C300.971 182.796 301.804 184.806 301.804 186.902Z" fill="#5DAEFF"/>
</g>
<g filter="url(#filter16_d)">
<path d="M273.938 78.4646C273.747 79.9356 273.124 81.3171 272.148 82.4342C271.172 83.5513 269.887 84.354 268.455 84.7407C267.023 85.1274 265.508 85.0807 264.103 84.6066C262.697 84.1325 261.464 83.2523 260.559 82.0772C259.653 80.9021 259.117 79.4849 259.017 78.0049C258.917 76.5249 259.258 75.0486 259.998 73.7625C260.737 72.4765 261.841 71.4385 263.17 70.7799C264.499 70.1212 265.994 69.8715 267.465 70.0623C269.437 70.3181 271.227 71.3471 272.441 72.9228C273.655 74.4986 274.194 76.492 273.938 78.4646Z" fill="#5DAEFF"/>
</g>
<g filter="url(#filter17_d)">
<path d="M278.434 112.601C272.476 113.38 271.717 142.215 287.837 139.523C303.957 136.831 316.047 140.869 313.36 155.676C310.674 170.484 297.167 177.5 296.5 178.5C294.5 181.5 299.5 190.5 303.5 190.5C307.5 190.5 312.228 190.292 319 186.5C331.5 179.5 343.717 161.538 337 140C330.283 118.462 309.33 108.562 278.434 112.601Z" fill="white"/>
</g>
<g filter="url(#filter18_d)">
<path d="M243 174C242 167 243 132.5 250.5 119C252.667 117 256.4 114.1 254 118.5C251 124 252 159.5 255 171C258 182.5 255.5 186 253 189C250.5 192 253 193 247 187.5C241 182 244 181 243 174Z" fill="#011A6E"/>
</g>
<g filter="url(#filter19_d)">
<path d="M252.501 112.5C254.501 112 255.001 112.5 255.501 116C256.002 117.5 256.5 118.5 255.501 118.5C254.502 118.5 252.001 120 251.001 120C250.001 120 249.501 118.5 250.001 118C250.501 117.5 250.501 113 252.501 112.5Z" fill="#011A6E"/>
</g>
</g>
</g>
<defs>
<filter id="filter0_i" x="23" y="0" width="315" height="199" filterUnits="userSpaceOnUse" color-interpolation-filters="sRGB">
<feFlood flood-opacity="0" result="BackgroundImageFix"/>
<feBlend mode="normal" in="SourceGraphic" in2="BackgroundImageFix" result="shape"/>
<feColorMatrix in="SourceAlpha" type="matrix" values="0 0 0 0 0 0 0 0 0 0 0 0 0 0 0 0 0 0 127 0" result="hardAlpha"/>
<feOffset dy="4"/>
<feGaussianBlur stdDeviation="2"/>
<feComposite in2="hardAlpha" operator="arithmetic" k2="-1" k3="1"/>
<feColorMatrix type="matrix" values="0 0 0 0 0 0 0 0 0 0 0 0 0 0 0 0 0 0 0.25 0"/>
<feBlend mode="normal" in2="shape" result="effect1_innerShadow"/>
</filter>
<filter id="filter1_i" x="104" y="16" width="160" height="168" filterUnits="userSpaceOnUse" color-interpolation-filters="sRGB">
<feFlood flood-opacity="0" result="BackgroundImageFix"/>
<feBlend mode="normal" in="SourceGraphic" in2="BackgroundImageFix" result="shape"/>
<feColorMatrix in="SourceAlpha" type="matrix" values="0 0 0 0 0 0 0 0 0 0 0 0 0 0 0 0 0 0 127 0" result="hardAlpha"/>
<feOffset dy="4"/>
<feGaussianBlur stdDeviation="2"/>
<feComposite in2="hardAlpha" operator="arithmetic" k2="-1" k3="1"/>
<feColorMatrix type="matrix" values="0 0 0 0 0 0 0 0 0 0 0 0 0 0 0 0 0 0 0.25 0"/>
<feBlend mode="normal" in2="shape" result="effect1_innerShadow"/>
</filter>
<filter id="filter2_d" x="106.994" y="33.1609" width="249.343" height="293.721" filterUnits="userSpaceOnUse" color-interpolation-filters="sRGB">
<feFlood flood-opacity="0" result="BackgroundImageFix"/>
<feColorMatrix in="SourceAlpha" type="matrix" values="0 0 0 0 0 0 0 0 0 0 0 0 0 0 0 0 0 0 127 0"/>
<feOffset dy="3.33803"/>
<feGaussianBlur stdDeviation="1.66902"/>
<feColorMatrix type="matrix" values="0 0 0 0 0 0 0 0 0 0 0 0 0 0 0 0 0 0 0.25 0"/>
<feBlend mode="normal" in2="BackgroundImageFix" result="effect1_dropShadow"/>
<feBlend mode="normal" in="SourceGraphic" in2="effect1_dropShadow" result="shape"/>
</filter>
<filter id="filter3_d" x="119.271" y="42.6025" width="53.6929" height="80.7127" filterUnits="userSpaceOnUse" color-interpolation-filters="sRGB">
<feFlood flood-opacity="0" result="BackgroundImageFix"/>
<feColorMatrix in="SourceAlpha" type="matrix" values="0 0 0 0 0 0 0 0 0 0 0 0 0 0 0 0 0 0 127 0"/>
<feOffset dy="3.33803"/>
<feGaussianBlur stdDeviation="1.66902"/>
<feColorMatrix type="matrix" values="0 0 0 0 0 0 0 0 0 0 0 0 0 0 0 0 0 0 0.25 0"/>
<feBlend mode="normal" in2="BackgroundImageFix" result="effect1_dropShadow"/>
<feBlend mode="normal" in="SourceGraphic" in2="effect1_dropShadow" result="shape"/>
</filter>
<filter id="filter4_d" x="156.662" y="105" width="21.4526" height="21.4833" filterUnits="userSpaceOnUse" color-interpolation-filters="sRGB">
<feFlood flood-opacity="0" result="BackgroundImageFix"/>
<feColorMatrix in="SourceAlpha" type="matrix" values="0 0 0 0 0 0 0 0 0 0 0 0 0 0 0 0 0 0 127 0"/>
<feOffset dy="3.33803"/>
<feGaussianBlur stdDeviation="1.66902"/>
<feColorMatrix type="matrix" values="0 0 0 0 0 0 0 0 0 0 0 0 0 0 0 0 0 0 0.25 0"/>
<feBlend mode="normal" in2="BackgroundImageFix" result="effect1_dropShadow"/>
<feBlend mode="normal" in="SourceGraphic" in2="effect1_dropShadow" result="shape"/>
</filter>
<filter id="filter5_d" x="250.924" y="101.832" width="26.0538" height="23.6533" filterUnits="userSpaceOnUse" color-interpolation-filters="sRGB">
<feFlood flood-opacity="0" result="BackgroundImageFix"/>
<feColorMatrix in="SourceAlpha" type="matrix" values="0 0 0 0 0 0 0 0 0 0 0 0 0 0 0 0 0 0 127 0"/>
<feOffset dy="3.33803"/>
<feGaussianBlur stdDeviation="1.66902"/>
<feColorMatrix type="matrix" values="0 0 0 0 0 0 0 0 0 0 0 0 0 0 0 0 0 0 0.25 0"/>
<feBlend mode="normal" in2="BackgroundImageFix" result="effect1_dropShadow"/>
<feBlend mode="normal" in="SourceGraphic" in2="effect1_dropShadow" result="shape"/>
</filter>
<filter id="filter6_d" x="219.537" y="55.1414" width="58.3011" height="58.5505" filterUnits="userSpaceOnUse" color-interpolation-filters="sRGB">
<feFlood flood-opacity="0" result="BackgroundImageFix"/>
<feColorMatrix in="SourceAlpha" type="matrix" values="0 0 0 0 0 0 0 0 0 0 0 0 0 0 0 0 0 0 127 0"/>
<feOffset dy="3.33803"/>
<feGaussianBlur stdDeviation="1.66902"/>
<feColorMatrix type="matrix" values="0 0 0 0 0 0 0 0 0 0 0 0 0 0 0 0 0 0 0.25 0"/>
<feBlend mode="normal" in2="BackgroundImageFix" result="effect1_dropShadow"/>
<feBlend mode="normal" in="SourceGraphic" in2="effect1_dropShadow" result="shape"/>
</filter>
<filter id="filter7_d" x="161.611" y="115" width="97.9189" height="55.6031" filterUnits="userSpaceOnUse" color-interpolation-filters="sRGB">
<feFlood flood-opacity="0" result="BackgroundImageFix"/>
<feColorMatrix in="SourceAlpha" type="matrix" values="0 0 0 0 0 0 0 0 0 0 0 0 0 0 0 0 0 0 127 0"/>
<feOffset dy="3.33803"/>
<feGaussianBlur stdDeviation="1.66902"/>
<feColorMatrix type="matrix" values="0 0 0 0 0 0 0 0 0 0 0 0 0 0 0 0 0 0 0.25 0"/>
<feBlend mode="normal" in2="BackgroundImageFix" result="effect1_dropShadow"/>
<feBlend mode="normal" in="SourceGraphic" in2="effect1_dropShadow" result="shape"/>
</filter>
<filter id="filter8_d" x="209.662" y="292.033" width="67.1338" height="25.3534" filterUnits="userSpaceOnUse" color-interpolation-filters="sRGB">
<feFlood flood-opacity="0" result="BackgroundImageFix"/>
<feColorMatrix in="SourceAlpha" type="matrix" values="0 0 0 0 0 0 0 0 0 0 0 0 0 0 0 0 0 0 127 0"/>
<feOffset dy="3.33803"/>
<feGaussianBlur stdDeviation="1.66902"/>
<feColorMatrix type="matrix" values="0 0 0 0 0 0 0 0 0 0 0 0 0 0 0 0 0 0 0.25 0"/>
<feBlend mode="normal" in2="BackgroundImageFix" result="effect1_dropShadow"/>
<feBlend mode="normal" in="SourceGraphic" in2="effect1_dropShadow" result="shape"/>
</filter>
<filter id="filter9_d" x="273.662" y="289.5" width="50.7483" height="28.1761" filterUnits="userSpaceOnUse" color-interpolation-filters="sRGB">
<feFlood flood-opacity="0" result="BackgroundImageFix"/>
<feColorMatrix in="SourceAlpha" type="matrix" values="0 0 0 0 0 0 0 0 0 0 0 0 0 0 0 0 0 0 127 0"/>
<feOffset dy="3.33803"/>
<feGaussianBlur stdDeviation="1.66902"/>
<feColorMatrix type="matrix" values="0 0 0 0 0 0 0 0 0 0 0 0 0 0 0 0 0 0 0.25 0"/>
<feBlend mode="normal" in2="BackgroundImageFix" result="effect1_dropShadow"/>
<feBlend mode="normal" in="SourceGraphic" in2="effect1_dropShadow" result="shape"/>
</filter>
<filter id="filter10_d" x="235.252" y="192.435" width="54.3077" height="112.765" filterUnits="userSpaceOnUse" color-interpolation-filters="sRGB">
<feFlood flood-opacity="0" result="BackgroundImageFix"/>
<feColorMatrix in="SourceAlpha" type="matrix" values="0 0 0 0 0 0 0 0 0 0 0 0 0 0 0 0 0 0 127 0"/>
<feOffset dy="3.33803"/>
<feGaussianBlur stdDeviation="1.66902"/>
<feColorMatrix type="matrix" values="0 0 0 0 0 0 0 0 0 0 0 0 0 0 0 0 0 0 0.25 0"/>
<feBlend mode="normal" in2="BackgroundImageFix" result="effect1_dropShadow"/>
<feBlend mode="normal" in="SourceGraphic" in2="effect1_dropShadow" result="shape"/>
</filter>
<filter id="filter11_d" x="241" y="109" width="37" height="18" filterUnits="userSpaceOnUse" color-interpolation-filters="sRGB">
<feFlood flood-opacity="0" result="BackgroundImageFix"/>
<feColorMatrix in="SourceAlpha" type="matrix" values="0 0 0 0 0 0 0 0 0 0 0 0 0 0 0 0 0 0 127 0"/>
<feOffset dy="4"/>
<feGaussianBlur stdDeviation="2"/>
<feColorMatrix type="matrix" values="0 0 0 0 0 0 0 0 0 0 0 0 0 0 0 0 0 0 0.25 0"/>
<feBlend mode="normal" in2="BackgroundImageFix" result="effect1_dropShadow"/>
<feBlend mode="normal" in="SourceGraphic" in2="effect1_dropShadow" result="shape"/>
</filter>
<filter id="filter12_d" x="229.879" y="109.949" width="93.4249" height="197.097" filterUnits="userSpaceOnUse" color-interpolation-filters="sRGB">
<feFlood flood-opacity="0" result="BackgroundImageFix"/>
<feColorMatrix in="SourceAlpha" type="matrix" values="0 0 0 0 0 0 0 0 0 0 0 0 0 0 0 0 0 0 127 0"/>
<feOffset dy="3.33803"/>
<feGaussianBlur stdDeviation="1.66902"/>
<feColorMatrix type="matrix" values="0 0 0 0 0 0 0 0 0 0 0 0 0 0 0 0 0 0 0.25 0"/>
<feBlend mode="normal" in2="BackgroundImageFix" result="effect1_dropShadow"/>
<feBlend mode="normal" in="SourceGraphic" in2="effect1_dropShadow" result="shape"/>
</filter>
<filter id="filter13_d" x="249.336" y="107.586" width="38.4882" height="16.4529" filterUnits="userSpaceOnUse" color-interpolation-filters="sRGB">
<feFlood flood-opacity="0" result="BackgroundImageFix"/>
<feColorMatrix in="SourceAlpha" type="matrix" values="0 0 0 0 0 0 0 0 0 0 0 0 0 0 0 0 0 0 127 0"/>
<feOffset dy="4"/>
<feGaussianBlur stdDeviation="2"/>
<feColorMatrix type="matrix" values="0 0 0 0 0 0 0 0 0 0 0 0 0 0 0 0 0 0 0.25 0"/>
<feBlend mode="normal" in2="BackgroundImageFix" result="effect1_dropShadow"/>
<feBlend mode="normal" in="SourceGraphic" in2="effect1_dropShadow" result="shape"/>
</filter>
<filter id="filter14_d" x="215.662" y="50" width="64.6538" height="41.1818" filterUnits="userSpaceOnUse" color-interpolation-filters="sRGB">
<feFlood flood-opacity="0" result="BackgroundImageFix"/>
<feColorMatrix in="SourceAlpha" type="matrix" values="0 0 0 0 0 0 0 0 0 0 0 0 0 0 0 0 0 0 127 0"/>
<feOffset dy="3.33803"/>
<feGaussianBlur stdDeviation="1.66902"/>
<feColorMatrix type="matrix" values="0 0 0 0 0 0 0 0 0 0 0 0 0 0 0 0 0 0 0.25 0"/>
<feBlend mode="normal" in2="BackgroundImageFix" result="effect1_dropShadow"/>
<feBlend mode="normal" in="SourceGraphic" in2="effect1_dropShadow" result="shape"/>
</filter>
<filter id="filter15_d" x="282.662" y="179" width="22.4799" height="22.4799" filterUnits="userSpaceOnUse" color-interpolation-filters="sRGB">
<feFlood flood-opacity="0" result="BackgroundImageFix"/>
<feColorMatrix in="SourceAlpha" type="matrix" values="0 0 0 0 0 0 0 0 0 0 0 0 0 0 0 0 0 0 127 0"/>
<feOffset dy="3.33803"/>
<feGaussianBlur stdDeviation="1.66902"/>
<feColorMatrix type="matrix" values="0 0 0 0 0 0 0 0 0 0 0 0 0 0 0 0 0 0 0.25 0"/>
<feBlend mode="normal" in2="BackgroundImageFix" result="effect1_dropShadow"/>
<feBlend mode="normal" in="SourceGraphic" in2="effect1_dropShadow" result="shape"/>
</filter>
<filter id="filter16_d" x="255.662" y="70" width="21.6761" height="21.6761" filterUnits="userSpaceOnUse" color-interpolation-filters="sRGB">
<feFlood flood-opacity="0" result="BackgroundImageFix"/>
<feColorMatrix in="SourceAlpha" type="matrix" values="0 0 0 0 0 0 0 0 0 0 0 0 0 0 0 0 0 0 127 0"/>
<feOffset dy="3.33803"/>
<feGaussianBlur stdDeviation="1.66902"/>
<feColorMatrix type="matrix" values="0 0 0 0 0 0 0 0 0 0 0 0 0 0 0 0 0 0 0.25 0"/>
<feBlend mode="normal" in2="BackgroundImageFix" result="effect1_dropShadow"/>
<feBlend mode="normal" in="SourceGraphic" in2="effect1_dropShadow" result="shape"/>
</filter>
<filter id="filter17_d" x="271.189" y="111.716" width="71.0565" height="85.4599" filterUnits="userSpaceOnUse" color-interpolation-filters="sRGB">
<feFlood flood-opacity="0" result="BackgroundImageFix"/>
<feColorMatrix in="SourceAlpha" type="matrix" values="0 0 0 0 0 0 0 0 0 0 0 0 0 0 0 0 0 0 127 0"/>
<feOffset dy="3.33803"/>
<feGaussianBlur stdDeviation="1.66902"/>
<feColorMatrix type="matrix" values="0 0 0 0 0 0 0 0 0 0 0 0 0 0 0 0 0 0 0.25 0"/>
<feBlend mode="normal" in2="BackgroundImageFix" result="effect1_dropShadow"/>
<feBlend mode="normal" in="SourceGraphic" in2="effect1_dropShadow" result="shape"/>
</filter>
<filter id="filter18_d" x="238.676" y="116.196" width="21.6952" height="83.2441" filterUnits="userSpaceOnUse" color-interpolation-filters="sRGB">
<feFlood flood-opacity="0" result="BackgroundImageFix"/>
<feColorMatrix in="SourceAlpha" type="matrix" values="0 0 0 0 0 0 0 0 0 0 0 0 0 0 0 0 0 0 127 0"/>
<feOffset dy="4"/>
<feGaussianBlur stdDeviation="2"/>
<feColorMatrix type="matrix" values="0 0 0 0 0 0 0 0 0 0 0 0 0 0 0 0 0 0 0.25 0"/>
<feBlend mode="normal" in2="BackgroundImageFix" result="effect1_dropShadow"/>
<feBlend mode="normal" in="SourceGraphic" in2="effect1_dropShadow" result="shape"/>
</filter>
<filter id="filter19_d" x="245.805" y="112.336" width="14.2734" height="15.6642" filterUnits="userSpaceOnUse" color-interpolation-filters="sRGB">
<feFlood flood-opacity="0" result="BackgroundImageFix"/>
<feColorMatrix in="SourceAlpha" type="matrix" values="0 0 0 0 0 0 0 0 0 0 0 0 0 0 0 0 0 0 127 0"/>
<feOffset dy="4"/>
<feGaussianBlur stdDeviation="2"/>
<feColorMatrix type="matrix" values="0 0 0 0 0 0 0 0 0 0 0 0 0 0 0 0 0 0 0.25 0"/>
<feBlend mode="normal" in2="BackgroundImageFix" result="effect1_dropShadow"/>
<feBlend mode="normal" in="SourceGraphic" in2="effect1_dropShadow" result="shape"/>
</filter>
<clipPath id="clip0">
<rect x="110.332" y="33.1609" width="242.667" height="287.045" rx="12.5176" fill="white"/>
</clipPath>
</defs>
</svg>
