<svg width="592" height="363" viewBox="0 0 592 363" fill="none" xmlns="http://www.w3.org/2000/svg">
<rect width="592" height="363" fill="url(#paint0_linear)"/>
<mask id="mask0" mask-type="alpha" maskUnits="userSpaceOnUse" x="0" y="0" width="592" height="363">
<rect width="592" height="363" fill="#C4C4C4"/>
</mask>
<g mask="url(#mask0)">
<g filter="url(#filter0_i)">
<rect x="174" y="33" width="386" height="239" rx="10" fill="#9ECDFE"/>
</g>
<g filter="url(#filter1_i)">
<rect x="273" y="53" width="196" height="200" rx="10" fill="#011A6E"/>
</g>
<g opacity="0.996">
<g opacity="0.996">
<g opacity="0.996">
<path opacity="0.996" d="M152.741 87.6858C152.388 87.6858 152.05 87.5456 151.8 87.2962C151.551 87.0468 151.411 86.7085 151.411 86.3557C151.411 85.991 151.266 85.6411 151.008 85.3832C150.75 85.1253 150.4 84.9804 150.035 84.9804C149.671 84.9804 149.321 85.1253 149.063 85.3832C148.805 85.6411 148.66 85.991 148.66 86.3557C148.66 86.7085 148.52 87.0468 148.271 87.2962C148.021 87.5456 147.683 87.6858 147.33 87.6858C146.977 87.6858 146.639 87.5456 146.39 87.2962C146.14 87.0468 146 86.7085 146 86.3557C146 85.2854 146.425 84.259 147.182 83.5022C147.939 82.7455 148.965 82.3203 150.035 82.3203C151.106 82.3203 152.132 82.7455 152.889 83.5022C153.646 84.259 154.071 85.2854 154.071 86.3557C154.071 86.7085 153.931 87.0468 153.681 87.2962C153.432 87.5456 153.093 87.6858 152.741 87.6858Z" fill="white"/>
<path opacity="0.996" d="M155.434 90.3918C154.364 90.3904 153.338 89.9648 152.582 89.2083C151.825 88.4518 151.4 87.4262 151.398 86.3564C151.398 86.0037 151.539 85.6654 151.788 85.4159C152.037 85.1665 152.376 85.0264 152.728 85.0264C153.081 85.0264 153.42 85.1665 153.669 85.4159C153.918 85.6654 154.059 86.0037 154.059 86.3564C154.074 86.7111 154.226 87.046 154.482 87.2914C154.739 87.5368 155.08 87.6738 155.435 87.6738C155.79 87.6738 156.131 87.5368 156.388 87.2914C156.644 87.046 156.796 86.7111 156.812 86.3564C156.812 86.0037 156.952 85.6654 157.201 85.4159C157.451 85.1665 157.789 85.0264 158.142 85.0264C158.495 85.0264 158.833 85.1665 159.082 85.4159C159.332 85.6654 159.472 86.0037 159.472 86.3564C159.47 87.4265 159.044 88.4521 158.287 89.2085C157.53 89.9649 156.504 90.3904 155.434 90.3918" fill="white"/>
<path opacity="0.996" d="M163.557 87.6858C163.204 87.6858 162.866 87.5456 162.617 87.2962C162.367 87.0468 162.227 86.7085 162.227 86.3557C162.227 85.991 162.082 85.6412 161.824 85.3832C161.566 85.1253 161.217 84.9804 160.852 84.9804C160.487 84.9804 160.137 85.1253 159.879 85.3832C159.621 85.6412 159.477 85.991 159.477 86.3557C159.477 86.7085 159.336 87.0468 159.087 87.2962C158.838 87.5456 158.499 87.6858 158.146 87.6858C157.794 87.6858 157.455 87.5456 157.206 87.2962C156.957 87.0468 156.816 86.7085 156.816 86.3557C156.816 85.8258 156.921 85.301 157.124 84.8114C157.326 84.3218 157.624 83.877 157.998 83.5023C158.373 83.1275 158.818 82.8303 159.308 82.6275C159.797 82.4247 160.322 82.3203 160.852 82.3203C161.382 82.3203 161.906 82.4247 162.396 82.6275C162.886 82.8303 163.331 83.1275 163.705 83.5023C164.08 83.877 164.377 84.3218 164.58 84.8114C164.783 85.301 164.887 85.8258 164.887 86.3557C164.887 86.7085 164.747 87.0468 164.498 87.2962C164.248 87.5456 163.91 87.6858 163.557 87.6858Z" fill="white"/>
<path opacity="0.996" d="M166.264 90.3918C165.194 90.3904 164.169 89.9648 163.412 89.2083C162.656 88.4518 162.23 87.4262 162.229 86.3564C162.229 86.0037 162.369 85.6654 162.618 85.4159C162.868 85.1665 163.206 85.0264 163.559 85.0264C163.911 85.0264 164.25 85.1665 164.499 85.4159C164.749 85.6654 164.889 86.0037 164.889 86.3564C164.889 86.7212 165.034 87.071 165.291 87.3289C165.549 87.5868 165.899 87.7317 166.264 87.7317C166.629 87.7317 166.978 87.5868 167.236 87.3289C167.494 87.071 167.639 86.7212 167.639 86.3564C167.639 86.0037 167.779 85.6654 168.029 85.4159C168.278 85.1665 168.617 85.0264 168.969 85.0264C169.322 85.0264 169.66 85.1665 169.91 85.4159C170.159 85.6654 170.299 86.0037 170.299 86.3564C170.298 87.4262 169.872 88.4518 169.116 89.2083C168.359 89.9648 167.334 90.3904 166.264 90.3918" fill="white"/>
<path opacity="0.996" d="M174.391 87.6858C174.038 87.6858 173.7 87.5456 173.451 87.2962C173.201 87.0468 173.061 86.7085 173.061 86.3557C173.061 85.991 172.916 85.6411 172.658 85.3832C172.4 85.1253 172.051 84.9804 171.686 84.9804C171.321 84.9804 170.971 85.1253 170.713 85.3832C170.455 85.6411 170.311 85.991 170.311 86.3557C170.311 86.7085 170.17 87.0468 169.921 87.2962C169.671 87.5456 169.333 87.6858 168.98 87.6858C168.628 87.6858 168.289 87.5456 168.04 87.2962C167.791 87.0468 167.65 86.7085 167.65 86.3557C167.65 85.2854 168.076 84.259 168.832 83.5022C169.589 82.7455 170.616 82.3203 171.686 82.3203C172.756 82.3203 173.782 82.7455 174.539 83.5022C175.296 84.259 175.721 85.2854 175.721 86.3557C175.721 86.7085 175.581 87.0468 175.332 87.2962C175.082 87.5456 174.744 87.6858 174.391 87.6858Z" fill="white"/>
<path opacity="0.996" d="M177.087 90.3918C176.017 90.3904 174.991 89.9649 174.234 89.2085C173.477 88.4521 173.051 87.4265 173.049 86.3564C173.049 86.0037 173.189 85.6654 173.438 85.4159C173.688 85.1665 174.026 85.0264 174.379 85.0264C174.732 85.0264 175.07 85.1665 175.319 85.4159C175.569 85.6654 175.709 86.0037 175.709 86.3564C175.725 86.7111 175.876 87.046 176.133 87.2914C176.389 87.5368 176.731 87.6738 177.086 87.6738C177.441 87.6738 177.782 87.5368 178.038 87.2914C178.295 87.046 178.447 86.7111 178.462 86.3564C178.462 86.0037 178.602 85.6654 178.852 85.4159C179.101 85.1665 179.439 85.0264 179.792 85.0264C180.145 85.0264 180.483 85.1665 180.733 85.4159C180.982 85.6654 181.122 86.0037 181.122 86.3564C181.121 87.4262 180.695 88.4518 179.939 89.2083C179.182 89.9648 178.157 90.3904 177.087 90.3918" fill="white"/>
<path opacity="0.996" d="M185.317 87.6858C184.964 87.6858 184.626 87.5456 184.376 87.2962C184.127 87.0468 183.987 86.7085 183.987 86.3557C183.987 85.991 183.842 85.6411 183.584 85.3832C183.326 85.1253 182.976 84.9804 182.612 84.9804C182.247 84.9804 181.897 85.1253 181.639 85.3832C181.381 85.6411 181.236 85.991 181.236 86.3557C181.236 86.7085 181.096 87.0468 180.847 87.2962C180.597 87.5456 180.259 87.6858 179.906 87.6858C179.553 87.6858 179.215 87.5456 178.966 87.2962C178.716 87.0468 178.576 86.7085 178.576 86.3557C178.576 85.2854 179.001 84.259 179.758 83.5022C180.515 82.7455 181.541 82.3203 182.612 82.3203C183.682 82.3203 184.708 82.7455 185.465 83.5022C186.222 84.259 186.647 85.2854 186.647 86.3557C186.647 86.7085 186.507 87.0468 186.257 87.2962C186.008 87.5456 185.67 87.6858 185.317 87.6858Z" fill="white"/>
<path opacity="0.996" d="M188.035 90.3918C187.504 90.3929 186.978 90.2893 186.487 90.087C185.997 89.8848 185.551 89.5878 185.175 89.213C184.799 88.8383 184.5 88.3931 184.296 87.9029C184.092 87.4128 183.987 86.8873 183.986 86.3564C183.986 86.0037 184.126 85.6654 184.376 85.4159C184.625 85.1665 184.964 85.0264 185.316 85.0264C185.669 85.0264 186.007 85.1665 186.257 85.4159C186.506 85.6654 186.646 86.0037 186.646 86.3564C186.646 86.7212 186.791 87.071 187.049 87.3289C187.307 87.5868 187.657 87.7317 188.022 87.7317C188.386 87.7317 188.736 87.5868 188.994 87.3289C189.252 87.071 189.397 86.7212 189.397 86.3564C189.397 86.0037 189.537 85.6654 189.787 85.4159C190.036 85.1665 190.374 85.0264 190.727 85.0264C191.08 85.0264 191.418 85.1665 191.668 85.4159C191.917 85.6654 192.057 86.0037 192.057 86.3564C192.056 87.4262 191.63 88.4518 190.874 89.2083C190.117 89.9648 189.092 90.3904 188.022 90.3918" fill="white"/>
<path opacity="0.996" d="M196.151 87.6858C195.798 87.6858 195.46 87.5456 195.21 87.2962C194.961 87.0468 194.821 86.7085 194.821 86.3557C194.821 85.991 194.676 85.6411 194.418 85.3832C194.16 85.1253 193.81 84.9804 193.446 84.9804C193.081 84.9804 192.731 85.1253 192.473 85.3832C192.215 85.6411 192.07 85.991 192.07 86.3557C192.07 86.7085 191.93 87.0468 191.681 87.2962C191.431 87.5456 191.093 87.6858 190.74 87.6858C190.387 87.6858 190.049 87.5456 189.8 87.2962C189.55 87.0468 189.41 86.7085 189.41 86.3557C189.41 85.2854 189.835 84.259 190.592 83.5022C191.349 82.7455 192.375 82.3203 193.446 82.3203C194.516 82.3203 195.542 82.7455 196.299 83.5022C197.056 84.259 197.481 85.2854 197.481 86.3557C197.481 86.7085 197.341 87.0468 197.091 87.2962C196.842 87.5456 196.504 87.6858 196.151 87.6858Z" fill="white"/>
<path opacity="0.996" d="M198.867 90.3918C197.796 90.3911 196.77 89.9659 196.012 89.2094C195.255 88.4529 194.828 87.4269 194.826 86.3564C194.826 86.0037 194.966 85.6654 195.216 85.4159C195.465 85.1665 195.803 85.0264 196.156 85.0264C196.509 85.0264 196.847 85.1665 197.097 85.4159C197.346 85.6654 197.486 86.0037 197.486 86.3564C197.486 86.7219 197.631 87.0724 197.89 87.3308C198.148 87.5892 198.499 87.7344 198.864 87.7344C199.23 87.7344 199.58 87.5892 199.839 87.3308C200.097 87.0724 200.242 86.7219 200.242 86.3564C200.242 86.0037 200.382 85.6654 200.632 85.4159C200.881 85.1665 201.219 85.0264 201.572 85.0264C201.925 85.0264 202.263 85.1665 202.513 85.4159C202.762 85.6654 202.902 86.0037 202.902 86.3564C202.901 87.4262 202.475 88.4518 201.719 89.2083C200.962 89.9648 199.937 90.3904 198.867 90.3918" fill="white"/>
<path opacity="0.996" d="M206.983 87.6858C206.63 87.6858 206.292 87.5456 206.042 87.2962C205.793 87.0468 205.653 86.7085 205.653 86.3557C205.653 85.991 205.508 85.6411 205.25 85.3832C204.992 85.1253 204.642 84.9804 204.278 84.9804C203.913 84.9804 203.563 85.1253 203.305 85.3832C203.047 85.6411 202.902 85.991 202.902 86.3557C202.902 86.7085 202.762 87.0468 202.513 87.2962C202.263 87.5456 201.925 87.6858 201.572 87.6858C201.219 87.6858 200.881 87.5456 200.632 87.2962C200.382 87.0468 200.242 86.7085 200.242 86.3557C200.242 85.2854 200.667 84.259 201.424 83.5022C202.181 82.7455 203.207 82.3203 204.278 82.3203C205.348 82.3203 206.374 82.7455 207.131 83.5022C207.888 84.259 208.313 85.2854 208.313 86.3557C208.313 86.7085 208.173 87.0468 207.923 87.2962C207.674 87.5456 207.336 87.6858 206.983 87.6858Z" fill="white"/>
<path opacity="0.996" d="M209.678 90.3918C208.608 90.3904 207.583 89.9648 206.826 89.2083C206.07 88.4518 205.644 87.4262 205.643 86.3564C205.643 86.0037 205.783 85.6654 206.032 85.4159C206.282 85.1665 206.62 85.0264 206.973 85.0264C207.325 85.0264 207.664 85.1665 207.913 85.4159C208.163 85.6654 208.303 86.0037 208.303 86.3564C208.318 86.7111 208.47 87.046 208.727 87.2914C208.983 87.5368 209.324 87.6738 209.679 87.6738C210.034 87.6738 210.376 87.5368 210.632 87.2914C210.888 87.046 211.04 86.7111 211.056 86.3564C211.056 86.0037 211.196 85.6654 211.446 85.4159C211.695 85.1665 212.033 85.0264 212.386 85.0264C212.739 85.0264 213.077 85.1665 213.326 85.4159C213.576 85.6654 213.716 86.0037 213.716 86.3564C213.714 87.4265 213.288 88.4521 212.531 89.2085C211.774 89.9649 210.748 90.3904 209.678 90.3918" fill="white"/>
<path opacity="0.996" d="M217.933 87.6854C217.58 87.6854 217.242 87.5452 216.992 87.2958C216.743 87.0464 216.603 86.7081 216.603 86.3553C216.587 86.0007 216.435 85.6658 216.179 85.4203C215.922 85.1749 215.581 85.0379 215.226 85.0379C214.871 85.0379 214.53 85.1749 214.273 85.4203C214.017 85.6658 213.865 86.0007 213.85 86.3553C213.85 86.7081 213.709 87.0464 213.46 87.2958C213.211 87.5452 212.872 87.6854 212.52 87.6854C212.167 87.6854 211.828 87.5452 211.579 87.2958C211.33 87.0464 211.189 86.7081 211.189 86.3553C211.216 85.3027 211.654 84.3022 212.408 83.5672C213.162 82.8322 214.173 82.4209 215.226 82.4209C216.279 82.4209 217.291 82.8322 218.045 83.5672C218.799 84.3022 219.236 85.3027 219.263 86.3553C219.263 86.7081 219.123 87.0464 218.873 87.2958C218.624 87.5452 218.286 87.6854 217.933 87.6854Z" fill="white"/>
<path opacity="0.996" d="M220.634 90.3918C219.564 90.3904 218.538 89.9649 217.781 89.2085C217.024 88.4521 216.598 87.4265 216.596 86.3564C216.596 86.0037 216.736 85.6654 216.985 85.4159C217.235 85.1665 217.573 85.0264 217.926 85.0264C218.279 85.0264 218.617 85.1665 218.866 85.4159C219.116 85.6654 219.256 86.0037 219.256 86.3564C219.271 86.7111 219.423 87.046 219.68 87.2914C219.936 87.5368 220.277 87.6738 220.632 87.6738C220.987 87.6738 221.329 87.5368 221.585 87.2914C221.842 87.046 221.993 86.7111 222.009 86.3564C222.009 86.0037 222.149 85.6654 222.399 85.4159C222.648 85.1665 222.986 85.0264 223.339 85.0264C223.692 85.0264 224.03 85.1665 224.28 85.4159C224.529 85.6654 224.669 86.0037 224.669 86.3564C224.668 87.4262 224.242 88.4518 223.486 89.2083C222.729 89.9648 221.704 90.3904 220.634 90.3918" fill="white"/>
<path opacity="0.996" d="M228.749 87.6858C228.396 87.6858 228.057 87.5456 227.808 87.2962C227.559 87.0468 227.418 86.7085 227.418 86.3557C227.418 85.991 227.274 85.6411 227.016 85.3832C226.758 85.1253 226.408 84.9804 226.043 84.9804C225.678 84.9804 225.329 85.1253 225.071 85.3832C224.813 85.6411 224.668 85.991 224.668 86.3557C224.668 86.7085 224.528 87.0468 224.278 87.2962C224.029 87.5456 223.691 87.6858 223.338 87.6858C222.985 87.6858 222.647 87.5456 222.397 87.2962C222.148 87.0468 222.008 86.7085 222.008 86.3557C222.008 85.2854 222.433 84.259 223.19 83.5022C223.947 82.7455 224.973 82.3203 226.043 82.3203C227.113 82.3203 228.14 82.7455 228.897 83.5022C229.653 84.259 230.079 85.2854 230.079 86.3557C230.079 86.7085 229.938 87.0468 229.689 87.2962C229.44 87.5456 229.101 87.6858 228.749 87.6858Z" fill="white"/>
<path opacity="0.996" d="M231.459 90.3918C230.389 90.3904 229.364 89.9648 228.607 89.2083C227.851 88.4518 227.425 87.4262 227.424 86.3564C227.424 86.0037 227.564 85.6654 227.813 85.4159C228.063 85.1665 228.401 85.0264 228.754 85.0264C229.107 85.0264 229.445 85.1665 229.694 85.4159C229.944 85.6654 230.084 86.0037 230.084 86.3564C230.084 86.7215 230.229 87.0717 230.487 87.3298C230.745 87.588 231.095 87.733 231.461 87.733C231.826 87.733 232.176 87.588 232.434 87.3298C232.692 87.0717 232.837 86.7215 232.837 86.3564C232.837 86.0037 232.977 85.6654 233.227 85.4159C233.476 85.1665 233.814 85.0264 234.167 85.0264C234.52 85.0264 234.858 85.1665 235.108 85.4159C235.357 85.6654 235.497 86.0037 235.497 86.3564C235.495 87.4265 235.069 88.4521 234.312 89.2085C233.555 89.9649 232.529 90.3904 231.459 90.3918" fill="white"/>
<path opacity="0.996" d="M239.588 87.6858C239.236 87.6858 238.897 87.5456 238.648 87.2962C238.398 87.0468 238.258 86.7085 238.258 86.3557C238.258 85.991 238.113 85.6411 237.856 85.3832C237.598 85.1253 237.248 84.9804 236.883 84.9804C236.518 84.9804 236.169 85.1253 235.911 85.3832C235.653 85.6411 235.508 85.991 235.508 86.3557C235.508 86.7085 235.368 87.0468 235.118 87.2962C234.869 87.5456 234.53 87.6858 234.178 87.6858C233.825 87.6858 233.487 87.5456 233.237 87.2962C232.988 87.0468 232.848 86.7085 232.848 86.3557C232.848 85.2854 233.273 84.259 234.03 83.5022C234.786 82.7455 235.813 82.3203 236.883 82.3203C237.953 82.3203 238.98 82.7455 239.736 83.5022C240.493 84.259 240.918 85.2854 240.918 86.3557C240.918 86.7085 240.778 87.0468 240.529 87.2962C240.279 87.5456 239.941 87.6858 239.588 87.6858Z" fill="white"/>
<path opacity="0.996" d="M242.286 90.3918C241.218 90.3869 240.196 89.9597 239.442 89.2036C238.689 88.4475 238.265 87.4239 238.264 86.3564C238.264 86.0037 238.404 85.6654 238.653 85.4159C238.903 85.1665 239.241 85.0264 239.594 85.0264C239.946 85.0264 240.285 85.1665 240.534 85.4159C240.784 85.6654 240.924 86.0037 240.924 86.3564C240.924 86.7215 241.069 87.0717 241.327 87.3298C241.585 87.588 241.935 87.733 242.3 87.733C242.666 87.733 243.016 87.588 243.274 87.3298C243.532 87.0717 243.677 86.7215 243.677 86.3564C243.677 86.0037 243.817 85.6654 244.067 85.4159C244.316 85.1665 244.654 85.0264 245.007 85.0264C245.36 85.0264 245.698 85.1665 245.948 85.4159C246.197 85.6654 246.337 86.0037 246.337 86.3564C246.335 87.4265 245.909 88.4521 245.152 89.2085C244.395 89.9649 243.369 90.3904 242.299 90.3918" fill="white"/>
<path opacity="0.996" d="M250.536 87.6858C250.183 87.6858 249.845 87.5456 249.595 87.2962C249.346 87.0468 249.206 86.7085 249.206 86.3557C249.206 85.991 249.061 85.6412 248.803 85.3832C248.545 85.1253 248.195 84.9804 247.83 84.9804C247.466 84.9804 247.116 85.1253 246.858 85.3832C246.6 85.6412 246.455 85.991 246.455 86.3557C246.455 86.7085 246.315 87.0468 246.065 87.2962C245.816 87.5456 245.478 87.6858 245.125 87.6858C244.772 87.6858 244.434 87.5456 244.185 87.2962C243.935 87.0468 243.795 86.7085 243.795 86.3557C243.795 85.8258 243.899 85.301 244.102 84.8114C244.305 84.3218 244.602 83.877 244.977 83.5023C245.352 83.1275 245.796 82.8303 246.286 82.6275C246.776 82.4247 247.3 82.3203 247.83 82.3203C248.36 82.3203 248.885 82.4247 249.375 82.6275C249.864 82.8303 250.309 83.1275 250.684 83.5023C251.058 83.877 251.356 84.3218 251.559 84.8114C251.761 85.301 251.866 85.8258 251.866 86.3557C251.866 86.7085 251.726 87.0468 251.476 87.2962C251.227 87.5456 250.888 87.6858 250.536 87.6858Z" fill="white"/>
<path opacity="0.996" d="M253.229 90.3918C252.159 90.3904 251.133 89.9648 250.377 89.2083C249.62 88.4518 249.195 87.4262 249.193 86.3564C249.193 86.0037 249.334 85.6654 249.583 85.4159C249.832 85.1665 250.171 85.0264 250.523 85.0264C250.876 85.0264 251.214 85.1665 251.464 85.4159C251.713 85.6654 251.853 86.0037 251.853 86.3564C251.869 86.7111 252.021 87.046 252.277 87.2914C252.534 87.5368 252.875 87.6738 253.23 87.6738C253.585 87.6738 253.926 87.5368 254.183 87.2914C254.439 87.046 254.591 86.7111 254.607 86.3564C254.607 86.0037 254.747 85.6654 254.996 85.4159C255.246 85.1665 255.584 85.0264 255.937 85.0264C256.29 85.0264 256.628 85.1665 256.877 85.4159C257.127 85.6654 257.267 86.0037 257.267 86.3564C257.265 87.4265 256.838 88.4521 256.082 89.2085C255.325 89.9649 254.299 90.3904 253.229 90.3918" fill="white"/>
</g>
</g>
</g>
<g opacity="0.996">
<g opacity="0.996">
<g opacity="0.996">
<path opacity="0.996" d="M152.741 72.8244C152.388 72.8244 152.05 72.6843 151.8 72.4349C151.551 72.1854 151.411 71.8471 151.411 71.4944C151.411 71.1296 151.266 70.7798 151.008 70.5219C150.75 70.264 150.4 70.1191 150.035 70.1191C149.671 70.1191 149.321 70.264 149.063 70.5219C148.805 70.7798 148.66 71.1296 148.66 71.4944C148.66 71.8471 148.52 72.1854 148.271 72.4349C148.021 72.6843 147.683 72.8244 147.33 72.8244C146.977 72.8244 146.639 72.6843 146.39 72.4349C146.14 72.1854 146 71.8471 146 71.4944C146 70.4241 146.425 69.3977 147.182 68.6409C147.939 67.8841 148.965 67.459 150.035 67.459C151.106 67.459 152.132 67.8841 152.889 68.6409C153.646 69.3977 154.071 70.4241 154.071 71.4944C154.071 71.8471 153.931 72.1854 153.681 72.4349C153.432 72.6843 153.093 72.8244 152.741 72.8244Z" fill="white"/>
<path opacity="0.996" d="M155.434 75.5305C154.364 75.5291 153.338 75.1035 152.582 74.347C151.825 73.5905 151.4 72.5649 151.398 71.4951C151.398 71.1423 151.539 70.804 151.788 70.5546C152.037 70.3052 152.376 70.165 152.728 70.165C153.081 70.165 153.42 70.3052 153.669 70.5546C153.918 70.804 154.059 71.1423 154.059 71.4951C154.074 71.8497 154.226 72.1847 154.482 72.4301C154.739 72.6755 155.08 72.8125 155.435 72.8125C155.79 72.8125 156.131 72.6755 156.388 72.4301C156.644 72.1847 156.796 71.8497 156.812 71.4951C156.812 71.1423 156.952 70.804 157.201 70.5546C157.451 70.3052 157.789 70.165 158.142 70.165C158.495 70.165 158.833 70.3052 159.082 70.5546C159.332 70.804 159.472 71.1423 159.472 71.4951C159.47 72.5652 159.044 73.5908 158.287 74.3472C157.53 75.1036 156.504 75.5291 155.434 75.5305" fill="white"/>
<path opacity="0.996" d="M163.557 72.8244C163.204 72.8244 162.866 72.6843 162.617 72.4349C162.367 72.1854 162.227 71.8471 162.227 71.4944C162.227 71.1296 162.082 70.7798 161.824 70.5219C161.566 70.264 161.217 70.1191 160.852 70.1191C160.487 70.1191 160.137 70.264 159.879 70.5219C159.621 70.7798 159.477 71.1296 159.477 71.4944C159.477 71.8471 159.336 72.1854 159.087 72.4349C158.838 72.6843 158.499 72.8244 158.146 72.8244C157.794 72.8244 157.455 72.6843 157.206 72.4349C156.957 72.1854 156.816 71.8471 156.816 71.4944C156.816 70.9644 156.921 70.4397 157.124 69.9501C157.326 69.4605 157.624 69.0156 157.998 68.6409C158.373 68.2662 158.818 67.969 159.308 67.7662C159.797 67.5634 160.322 67.459 160.852 67.459C161.382 67.459 161.906 67.5634 162.396 67.7662C162.886 67.969 163.331 68.2662 163.705 68.6409C164.08 69.0156 164.377 69.4605 164.58 69.9501C164.783 70.4397 164.887 70.9644 164.887 71.4944C164.887 71.8471 164.747 72.1854 164.498 72.4349C164.248 72.6843 163.91 72.8244 163.557 72.8244Z" fill="white"/>
<path opacity="0.996" d="M166.264 75.5305C165.194 75.5291 164.169 75.1035 163.412 74.347C162.656 73.5905 162.23 72.5649 162.229 71.4951C162.229 71.1423 162.369 70.804 162.618 70.5546C162.868 70.3052 163.206 70.165 163.559 70.165C163.911 70.165 164.25 70.3052 164.499 70.5546C164.749 70.804 164.889 71.1423 164.889 71.4951C164.889 71.8598 165.034 72.2096 165.291 72.4676C165.549 72.7255 165.899 72.8704 166.264 72.8704C166.629 72.8704 166.978 72.7255 167.236 72.4676C167.494 72.2096 167.639 71.8598 167.639 71.4951C167.639 71.1423 167.779 70.804 168.029 70.5546C168.278 70.3052 168.617 70.165 168.969 70.165C169.322 70.165 169.66 70.3052 169.91 70.5546C170.159 70.804 170.299 71.1423 170.299 71.4951C170.298 72.5649 169.872 73.5905 169.116 74.347C168.359 75.1035 167.334 75.5291 166.264 75.5305" fill="white"/>
<path opacity="0.996" d="M174.391 72.8244C174.038 72.8244 173.7 72.6843 173.451 72.4349C173.201 72.1854 173.061 71.8471 173.061 71.4944C173.061 71.1296 172.916 70.7798 172.658 70.5219C172.4 70.264 172.051 70.1191 171.686 70.1191C171.321 70.1191 170.971 70.264 170.713 70.5219C170.455 70.7798 170.311 71.1296 170.311 71.4944C170.311 71.8471 170.17 72.1854 169.921 72.4349C169.671 72.6843 169.333 72.8244 168.98 72.8244C168.628 72.8244 168.289 72.6843 168.04 72.4349C167.791 72.1854 167.65 71.8471 167.65 71.4944C167.65 70.4241 168.076 69.3977 168.832 68.6409C169.589 67.8841 170.616 67.459 171.686 67.459C172.756 67.459 173.782 67.8841 174.539 68.6409C175.296 69.3977 175.721 70.4241 175.721 71.4944C175.721 71.8471 175.581 72.1854 175.332 72.4349C175.082 72.6843 174.744 72.8244 174.391 72.8244Z" fill="white"/>
<path opacity="0.996" d="M177.087 75.5305C176.017 75.5291 174.991 75.1036 174.234 74.3472C173.477 73.5908 173.051 72.5652 173.049 71.4951C173.049 71.1423 173.189 70.804 173.438 70.5546C173.688 70.3052 174.026 70.165 174.379 70.165C174.732 70.165 175.07 70.3052 175.319 70.5546C175.569 70.804 175.709 71.1423 175.709 71.4951C175.725 71.8497 175.876 72.1847 176.133 72.4301C176.389 72.6755 176.731 72.8125 177.086 72.8125C177.441 72.8125 177.782 72.6755 178.038 72.4301C178.295 72.1847 178.447 71.8497 178.462 71.4951C178.462 71.1423 178.602 70.804 178.852 70.5546C179.101 70.3052 179.439 70.165 179.792 70.165C180.145 70.165 180.483 70.3052 180.733 70.5546C180.982 70.804 181.122 71.1423 181.122 71.4951C181.121 72.5649 180.695 73.5905 179.939 74.347C179.182 75.1035 178.157 75.5291 177.087 75.5305" fill="white"/>
<path opacity="0.996" d="M185.317 72.8244C184.964 72.8244 184.626 72.6843 184.376 72.4349C184.127 72.1854 183.987 71.8471 183.987 71.4944C183.987 71.1296 183.842 70.7798 183.584 70.5219C183.326 70.264 182.976 70.1191 182.612 70.1191C182.247 70.1191 181.897 70.264 181.639 70.5219C181.381 70.7798 181.236 71.1296 181.236 71.4944C181.236 71.8471 181.096 72.1854 180.847 72.4349C180.597 72.6843 180.259 72.8244 179.906 72.8244C179.553 72.8244 179.215 72.6843 178.966 72.4349C178.716 72.1854 178.576 71.8471 178.576 71.4944C178.576 70.4241 179.001 69.3977 179.758 68.6409C180.515 67.8841 181.541 67.459 182.612 67.459C183.682 67.459 184.708 67.8841 185.465 68.6409C186.222 69.3977 186.647 70.4241 186.647 71.4944C186.647 71.8471 186.507 72.1854 186.257 72.4349C186.008 72.6843 185.67 72.8244 185.317 72.8244Z" fill="white"/>
<path opacity="0.996" d="M188.035 75.5305C187.504 75.5315 186.978 75.428 186.487 75.2257C185.997 75.0235 185.551 74.7265 185.175 74.3517C184.799 73.9769 184.5 73.5318 184.296 73.0416C184.092 72.5515 183.987 72.026 183.986 71.4951C183.986 71.1423 184.126 70.804 184.376 70.5546C184.625 70.3052 184.964 70.165 185.316 70.165C185.669 70.165 186.007 70.3052 186.257 70.5546C186.506 70.804 186.646 71.1423 186.646 71.4951C186.646 71.8598 186.791 72.2096 187.049 72.4676C187.307 72.7255 187.657 72.8704 188.022 72.8704C188.386 72.8704 188.736 72.7255 188.994 72.4676C189.252 72.2096 189.397 71.8598 189.397 71.4951C189.397 71.1423 189.537 70.804 189.787 70.5546C190.036 70.3052 190.374 70.165 190.727 70.165C191.08 70.165 191.418 70.3052 191.668 70.5546C191.917 70.804 192.057 71.1423 192.057 71.4951C192.056 72.5649 191.63 73.5905 190.874 74.347C190.117 75.1035 189.092 75.5291 188.022 75.5305" fill="white"/>
<path opacity="0.996" d="M196.151 72.8244C195.798 72.8244 195.46 72.6843 195.21 72.4349C194.961 72.1854 194.821 71.8471 194.821 71.4944C194.821 71.1296 194.676 70.7798 194.418 70.5219C194.16 70.264 193.81 70.1191 193.446 70.1191C193.081 70.1191 192.731 70.264 192.473 70.5219C192.215 70.7798 192.07 71.1296 192.07 71.4944C192.07 71.8471 191.93 72.1854 191.681 72.4349C191.431 72.6843 191.093 72.8244 190.74 72.8244C190.387 72.8244 190.049 72.6843 189.8 72.4349C189.55 72.1854 189.41 71.8471 189.41 71.4944C189.41 70.4241 189.835 69.3977 190.592 68.6409C191.349 67.8841 192.375 67.459 193.446 67.459C194.516 67.459 195.542 67.8841 196.299 68.6409C197.056 69.3977 197.481 70.4241 197.481 71.4944C197.481 71.8471 197.341 72.1854 197.091 72.4349C196.842 72.6843 196.504 72.8244 196.151 72.8244Z" fill="white"/>
<path opacity="0.996" d="M198.867 75.5305C197.796 75.5298 196.77 75.1046 196.012 74.3481C195.255 73.5916 194.828 72.5656 194.826 71.4951C194.826 71.1423 194.966 70.804 195.216 70.5546C195.465 70.3052 195.803 70.165 196.156 70.165C196.509 70.165 196.847 70.3052 197.097 70.5546C197.346 70.804 197.486 71.1423 197.486 71.4951C197.486 71.8605 197.631 72.211 197.89 72.4694C198.148 72.7279 198.499 72.873 198.864 72.873C199.23 72.873 199.58 72.7279 199.839 72.4694C200.097 72.211 200.242 71.8605 200.242 71.4951C200.242 71.1423 200.382 70.804 200.632 70.5546C200.881 70.3052 201.219 70.165 201.572 70.165C201.925 70.165 202.263 70.3052 202.513 70.5546C202.762 70.804 202.902 71.1423 202.902 71.4951C202.901 72.5649 202.475 73.5905 201.719 74.347C200.962 75.1035 199.937 75.5291 198.867 75.5305" fill="white"/>
<path opacity="0.996" d="M206.983 72.8244C206.63 72.8244 206.292 72.6843 206.042 72.4349C205.793 72.1854 205.653 71.8471 205.653 71.4944C205.653 71.1296 205.508 70.7798 205.25 70.5219C204.992 70.264 204.642 70.1191 204.278 70.1191C203.913 70.1191 203.563 70.264 203.305 70.5219C203.047 70.7798 202.902 71.1296 202.902 71.4944C202.902 71.8471 202.762 72.1854 202.513 72.4349C202.263 72.6843 201.925 72.8244 201.572 72.8244C201.219 72.8244 200.881 72.6843 200.632 72.4349C200.382 72.1854 200.242 71.8471 200.242 71.4944C200.242 70.4241 200.667 69.3977 201.424 68.6409C202.181 67.8841 203.207 67.459 204.278 67.459C205.348 67.459 206.374 67.8841 207.131 68.6409C207.888 69.3977 208.313 70.4241 208.313 71.4944C208.313 71.8471 208.173 72.1854 207.923 72.4349C207.674 72.6843 207.336 72.8244 206.983 72.8244Z" fill="white"/>
<path opacity="0.996" d="M209.678 75.5305C208.608 75.5291 207.583 75.1035 206.826 74.347C206.07 73.5905 205.644 72.5649 205.643 71.4951C205.643 71.1423 205.783 70.804 206.032 70.5546C206.282 70.3052 206.62 70.165 206.973 70.165C207.325 70.165 207.664 70.3052 207.913 70.5546C208.163 70.804 208.303 71.1423 208.303 71.4951C208.318 71.8497 208.47 72.1847 208.727 72.4301C208.983 72.6755 209.324 72.8125 209.679 72.8125C210.034 72.8125 210.376 72.6755 210.632 72.4301C210.888 72.1847 211.04 71.8497 211.056 71.4951C211.056 71.1423 211.196 70.804 211.446 70.5546C211.695 70.3052 212.033 70.165 212.386 70.165C212.739 70.165 213.077 70.3052 213.326 70.5546C213.576 70.804 213.716 71.1423 213.716 71.4951C213.714 72.5652 213.288 73.5908 212.531 74.3472C211.774 75.1036 210.748 75.5291 209.678 75.5305" fill="white"/>
<path opacity="0.996" d="M217.933 72.824C217.58 72.824 217.242 72.6839 216.992 72.4345C216.743 72.1851 216.603 71.8467 216.603 71.494C216.587 71.1394 216.435 70.8044 216.179 70.559C215.922 70.3136 215.581 70.1766 215.226 70.1766C214.871 70.1766 214.53 70.3136 214.273 70.559C214.017 70.8044 213.865 71.1394 213.85 71.494C213.85 71.8467 213.709 72.1851 213.46 72.4345C213.211 72.6839 212.872 72.824 212.52 72.824C212.167 72.824 211.828 72.6839 211.579 72.4345C211.33 72.1851 211.189 71.8467 211.189 71.494C211.216 70.4413 211.654 69.4409 212.408 68.7059C213.162 67.9709 214.173 67.5596 215.226 67.5596C216.279 67.5596 217.291 67.9709 218.045 68.7059C218.799 69.4409 219.236 70.4413 219.263 71.494C219.263 71.8467 219.123 72.1851 218.873 72.4345C218.624 72.6839 218.286 72.824 217.933 72.824Z" fill="white"/>
<path opacity="0.996" d="M220.634 75.5305C219.564 75.5291 218.538 75.1036 217.781 74.3472C217.024 73.5908 216.598 72.5652 216.596 71.4951C216.596 71.1423 216.736 70.804 216.985 70.5546C217.235 70.3052 217.573 70.165 217.926 70.165C218.279 70.165 218.617 70.3052 218.866 70.5546C219.116 70.804 219.256 71.1423 219.256 71.4951C219.271 71.8497 219.423 72.1847 219.68 72.4301C219.936 72.6755 220.277 72.8125 220.632 72.8125C220.987 72.8125 221.329 72.6755 221.585 72.4301C221.842 72.1847 221.993 71.8497 222.009 71.4951C222.009 71.1423 222.149 70.804 222.399 70.5546C222.648 70.3052 222.986 70.165 223.339 70.165C223.692 70.165 224.03 70.3052 224.28 70.5546C224.529 70.804 224.669 71.1423 224.669 71.4951C224.668 72.5649 224.242 73.5905 223.486 74.347C222.729 75.1035 221.704 75.5291 220.634 75.5305" fill="white"/>
<path opacity="0.996" d="M228.749 72.8244C228.396 72.8244 228.057 72.6843 227.808 72.4349C227.559 72.1854 227.418 71.8471 227.418 71.4944C227.418 71.1296 227.274 70.7798 227.016 70.5219C226.758 70.264 226.408 70.1191 226.043 70.1191C225.678 70.1191 225.329 70.264 225.071 70.5219C224.813 70.7798 224.668 71.1296 224.668 71.4944C224.668 71.8471 224.528 72.1854 224.278 72.4349C224.029 72.6843 223.691 72.8244 223.338 72.8244C222.985 72.8244 222.647 72.6843 222.397 72.4349C222.148 72.1854 222.008 71.8471 222.008 71.4944C222.008 70.4241 222.433 69.3977 223.19 68.6409C223.947 67.8841 224.973 67.459 226.043 67.459C227.113 67.459 228.14 67.8841 228.897 68.6409C229.653 69.3977 230.079 70.4241 230.079 71.4944C230.079 71.8471 229.938 72.1854 229.689 72.4349C229.44 72.6843 229.101 72.8244 228.749 72.8244Z" fill="white"/>
<path opacity="0.996" d="M231.459 75.5305C230.389 75.5291 229.364 75.1035 228.607 74.347C227.851 73.5905 227.425 72.5649 227.424 71.4951C227.424 71.1423 227.564 70.804 227.813 70.5546C228.063 70.3052 228.401 70.165 228.754 70.165C229.107 70.165 229.445 70.3052 229.694 70.5546C229.944 70.804 230.084 71.1423 230.084 71.4951C230.084 71.8602 230.229 72.2103 230.487 72.4685C230.745 72.7267 231.095 72.8717 231.461 72.8717C231.826 72.8717 232.176 72.7267 232.434 72.4685C232.692 72.2103 232.837 71.8602 232.837 71.4951C232.837 71.1423 232.977 70.804 233.227 70.5546C233.476 70.3052 233.814 70.165 234.167 70.165C234.52 70.165 234.858 70.3052 235.108 70.5546C235.357 70.804 235.497 71.1423 235.497 71.4951C235.495 72.5652 235.069 73.5908 234.312 74.3472C233.555 75.1036 232.529 75.5291 231.459 75.5305" fill="white"/>
<path opacity="0.996" d="M239.588 72.8244C239.236 72.8244 238.897 72.6843 238.648 72.4349C238.398 72.1854 238.258 71.8471 238.258 71.4944C238.258 71.1296 238.113 70.7798 237.856 70.5219C237.598 70.264 237.248 70.1191 236.883 70.1191C236.518 70.1191 236.169 70.264 235.911 70.5219C235.653 70.7798 235.508 71.1296 235.508 71.4944C235.508 71.8471 235.368 72.1854 235.118 72.4349C234.869 72.6843 234.53 72.8244 234.178 72.8244C233.825 72.8244 233.487 72.6843 233.237 72.4349C232.988 72.1854 232.848 71.8471 232.848 71.4944C232.848 70.4241 233.273 69.3977 234.03 68.6409C234.786 67.8841 235.813 67.459 236.883 67.459C237.953 67.459 238.98 67.8841 239.736 68.6409C240.493 69.3977 240.918 70.4241 240.918 71.4944C240.918 71.8471 240.778 72.1854 240.529 72.4349C240.279 72.6843 239.941 72.8244 239.588 72.8244Z" fill="white"/>
<path opacity="0.996" d="M242.286 75.5305C241.218 75.5256 240.196 75.0984 239.442 74.3423C238.689 73.5862 238.265 72.5626 238.264 71.4951C238.264 71.1423 238.404 70.804 238.653 70.5546C238.903 70.3052 239.241 70.165 239.594 70.165C239.946 70.165 240.285 70.3052 240.534 70.5546C240.784 70.804 240.924 71.1423 240.924 71.4951C240.924 71.8602 241.069 72.2103 241.327 72.4685C241.585 72.7267 241.935 72.8717 242.3 72.8717C242.666 72.8717 243.016 72.7267 243.274 72.4685C243.532 72.2103 243.677 71.8602 243.677 71.4951C243.677 71.1423 243.817 70.804 244.067 70.5546C244.316 70.3052 244.654 70.165 245.007 70.165C245.36 70.165 245.698 70.3052 245.948 70.5546C246.197 70.804 246.337 71.1423 246.337 71.4951C246.335 72.5652 245.909 73.5908 245.152 74.3472C244.395 75.1036 243.369 75.5291 242.299 75.5305" fill="white"/>
<path opacity="0.996" d="M250.536 72.8244C250.183 72.8244 249.845 72.6843 249.595 72.4349C249.346 72.1854 249.206 71.8471 249.206 71.4944C249.206 71.1296 249.061 70.7798 248.803 70.5219C248.545 70.264 248.195 70.1191 247.83 70.1191C247.466 70.1191 247.116 70.264 246.858 70.5219C246.6 70.7798 246.455 71.1296 246.455 71.4944C246.455 71.8471 246.315 72.1854 246.065 72.4349C245.816 72.6843 245.478 72.8244 245.125 72.8244C244.772 72.8244 244.434 72.6843 244.185 72.4349C243.935 72.1854 243.795 71.8471 243.795 71.4944C243.795 70.9644 243.899 70.4397 244.102 69.9501C244.305 69.4605 244.602 69.0156 244.977 68.6409C245.352 68.2662 245.796 67.969 246.286 67.7662C246.776 67.5634 247.3 67.459 247.83 67.459C248.36 67.459 248.885 67.5634 249.375 67.7662C249.864 67.969 250.309 68.2662 250.684 68.6409C251.058 69.0156 251.356 69.4605 251.559 69.9501C251.761 70.4397 251.866 70.9644 251.866 71.4944C251.866 71.8471 251.726 72.1854 251.476 72.4349C251.227 72.6843 250.888 72.8244 250.536 72.8244Z" fill="white"/>
<path opacity="0.996" d="M253.229 75.5305C252.159 75.5291 251.133 75.1035 250.377 74.347C249.62 73.5905 249.195 72.5649 249.193 71.4951C249.193 71.1423 249.334 70.804 249.583 70.5546C249.832 70.3052 250.171 70.165 250.523 70.165C250.876 70.165 251.214 70.3052 251.464 70.5546C251.713 70.804 251.853 71.1423 251.853 71.4951C251.869 71.8497 252.021 72.1847 252.277 72.4301C252.534 72.6755 252.875 72.8125 253.23 72.8125C253.585 72.8125 253.926 72.6755 254.183 72.4301C254.439 72.1847 254.591 71.8497 254.607 71.4951C254.607 71.1423 254.747 70.804 254.996 70.5546C255.246 70.3052 255.584 70.165 255.937 70.165C256.29 70.165 256.628 70.3052 256.877 70.5546C257.127 70.804 257.267 71.1423 257.267 71.4951C257.265 72.5652 256.838 73.5908 256.082 74.3472C255.325 75.1036 254.299 75.5291 253.229 75.5305" fill="white"/>
</g>
</g>
</g>
<g opacity="0.996">
<g opacity="0.996">
<g opacity="0.996">
<path opacity="0.996" d="M152.741 57.9631C152.388 57.9631 152.05 57.823 151.8 57.5735C151.551 57.3241 151.411 56.9858 151.411 56.633C151.411 56.2683 151.266 55.9185 151.008 55.6606C150.75 55.4027 150.4 55.2578 150.035 55.2578C149.671 55.2578 149.321 55.4027 149.063 55.6606C148.805 55.9185 148.66 56.2683 148.66 56.633C148.66 56.9858 148.52 57.3241 148.271 57.5735C148.021 57.823 147.683 57.9631 147.33 57.9631C146.977 57.9631 146.639 57.823 146.39 57.5735C146.14 57.3241 146 56.9858 146 56.633C146 55.5628 146.425 54.5364 147.182 53.7796C147.939 53.0228 148.965 52.5977 150.035 52.5977C151.106 52.5977 152.132 53.0228 152.889 53.7796C153.646 54.5364 154.071 55.5628 154.071 56.633C154.071 56.9858 153.931 57.3241 153.681 57.5735C153.432 57.823 153.093 57.9631 152.741 57.9631Z" fill="white"/>
<path opacity="0.996" d="M155.434 60.6692C154.364 60.6677 153.338 60.2421 152.582 59.4857C151.825 58.7292 151.4 57.7036 151.398 56.6338C151.398 56.281 151.539 55.9427 151.788 55.6933C152.037 55.4438 152.376 55.3037 152.728 55.3037C153.081 55.3037 153.42 55.4438 153.669 55.6933C153.918 55.9427 154.059 56.281 154.059 56.6338C154.074 56.9884 154.226 57.3233 154.482 57.5688C154.739 57.8142 155.08 57.9512 155.435 57.9512C155.79 57.9512 156.131 57.8142 156.388 57.5688C156.644 57.3233 156.796 56.9884 156.812 56.6338C156.812 56.281 156.952 55.9427 157.201 55.6933C157.451 55.4438 157.789 55.3037 158.142 55.3037C158.495 55.3037 158.833 55.4438 159.082 55.6933C159.332 55.9427 159.472 56.281 159.472 56.6338C159.47 57.7038 159.044 58.7294 158.287 59.4858C157.53 60.2422 156.504 60.6678 155.434 60.6692" fill="white"/>
<path opacity="0.996" d="M163.557 57.9631C163.204 57.9631 162.866 57.823 162.617 57.5735C162.367 57.3241 162.227 56.9858 162.227 56.6331C162.227 56.2683 162.082 55.9185 161.824 55.6606C161.566 55.4027 161.217 55.2578 160.852 55.2578C160.487 55.2578 160.137 55.4027 159.879 55.6606C159.621 55.9185 159.477 56.2683 159.477 56.6331C159.477 56.9858 159.336 57.3241 159.087 57.5735C158.838 57.823 158.499 57.9631 158.146 57.9631C157.794 57.9631 157.455 57.823 157.206 57.5735C156.957 57.3241 156.816 56.9858 156.816 56.6331C156.816 56.1031 156.921 55.5784 157.124 55.0888C157.326 54.5992 157.624 54.1543 157.998 53.7796C158.373 53.4049 158.818 53.1076 159.308 52.9048C159.797 52.702 160.322 52.5977 160.852 52.5977C161.382 52.5977 161.906 52.702 162.396 52.9048C162.886 53.1076 163.331 53.4049 163.705 53.7796C164.08 54.1543 164.377 54.5992 164.58 55.0888C164.783 55.5784 164.887 56.1031 164.887 56.6331C164.887 56.9858 164.747 57.3241 164.498 57.5735C164.248 57.823 163.91 57.9631 163.557 57.9631Z" fill="white"/>
<path opacity="0.996" d="M166.264 60.6692C165.194 60.6677 164.169 60.2421 163.412 59.4857C162.656 58.7292 162.23 57.7036 162.229 56.6338C162.229 56.281 162.369 55.9427 162.618 55.6933C162.868 55.4438 163.206 55.3037 163.559 55.3037C163.911 55.3037 164.25 55.4438 164.499 55.6933C164.749 55.9427 164.889 56.281 164.889 56.6338C164.889 56.9985 165.034 57.3483 165.291 57.6062C165.549 57.8642 165.899 58.009 166.264 58.009C166.629 58.009 166.978 57.8642 167.236 57.6062C167.494 57.3483 167.639 56.9985 167.639 56.6338C167.639 56.281 167.779 55.9427 168.029 55.6933C168.278 55.4438 168.617 55.3037 168.969 55.3037C169.322 55.3037 169.66 55.4438 169.91 55.6933C170.159 55.9427 170.299 56.281 170.299 56.6338C170.298 57.7036 169.872 58.7292 169.116 59.4857C168.359 60.2421 167.334 60.6677 166.264 60.6692" fill="white"/>
<path opacity="0.996" d="M174.391 57.9631C174.038 57.9631 173.7 57.823 173.451 57.5735C173.201 57.3241 173.061 56.9858 173.061 56.633C173.061 56.2683 172.916 55.9185 172.658 55.6606C172.4 55.4027 172.051 55.2578 171.686 55.2578C171.321 55.2578 170.971 55.4027 170.713 55.6606C170.455 55.9185 170.311 56.2683 170.311 56.633C170.311 56.9858 170.17 57.3241 169.921 57.5735C169.671 57.823 169.333 57.9631 168.98 57.9631C168.628 57.9631 168.289 57.823 168.04 57.5735C167.791 57.3241 167.65 56.9858 167.65 56.633C167.65 55.5628 168.076 54.5364 168.832 53.7796C169.589 53.0228 170.616 52.5977 171.686 52.5977C172.756 52.5977 173.782 53.0228 174.539 53.7796C175.296 54.5364 175.721 55.5628 175.721 56.633C175.721 56.9858 175.581 57.3241 175.332 57.5735C175.082 57.823 174.744 57.9631 174.391 57.9631Z" fill="white"/>
<path opacity="0.996" d="M177.087 60.6692C176.017 60.6678 174.991 60.2422 174.234 59.4858C173.477 58.7294 173.051 57.7038 173.049 56.6338C173.049 56.281 173.189 55.9427 173.438 55.6933C173.688 55.4438 174.026 55.3037 174.379 55.3037C174.732 55.3037 175.07 55.4438 175.319 55.6933C175.569 55.9427 175.709 56.281 175.709 56.6338C175.725 56.9884 175.876 57.3233 176.133 57.5688C176.389 57.8142 176.731 57.9512 177.086 57.9512C177.441 57.9512 177.782 57.8142 178.038 57.5688C178.295 57.3233 178.447 56.9884 178.462 56.6338C178.462 56.281 178.602 55.9427 178.852 55.6933C179.101 55.4438 179.439 55.3037 179.792 55.3037C180.145 55.3037 180.483 55.4438 180.733 55.6933C180.982 55.9427 181.122 56.281 181.122 56.6338C181.121 57.7036 180.695 58.7292 179.939 59.4857C179.182 60.2421 178.157 60.6677 177.087 60.6692" fill="white"/>
<path opacity="0.996" d="M185.317 57.9631C184.964 57.9631 184.626 57.823 184.376 57.5735C184.127 57.3241 183.987 56.9858 183.987 56.633C183.987 56.2683 183.842 55.9185 183.584 55.6606C183.326 55.4027 182.976 55.2578 182.612 55.2578C182.247 55.2578 181.897 55.4027 181.639 55.6606C181.381 55.9185 181.236 56.2683 181.236 56.633C181.236 56.9858 181.096 57.3241 180.847 57.5735C180.597 57.823 180.259 57.9631 179.906 57.9631C179.553 57.9631 179.215 57.823 178.966 57.5735C178.716 57.3241 178.576 56.9858 178.576 56.633C178.576 55.5628 179.001 54.5364 179.758 53.7796C180.515 53.0228 181.541 52.5977 182.612 52.5977C183.682 52.5977 184.708 53.0228 185.465 53.7796C186.222 54.5364 186.647 55.5628 186.647 56.633C186.647 56.9858 186.507 57.3241 186.257 57.5735C186.008 57.823 185.67 57.9631 185.317 57.9631Z" fill="white"/>
<path opacity="0.996" d="M188.035 60.6692C187.504 60.6702 186.978 60.5666 186.487 60.3644C185.997 60.1621 185.551 59.8651 185.175 59.4904C184.799 59.1156 184.5 58.6704 184.296 58.1803C184.092 57.6901 183.987 57.1646 183.986 56.6338C183.986 56.281 184.126 55.9427 184.376 55.6933C184.625 55.4438 184.964 55.3037 185.316 55.3037C185.669 55.3037 186.007 55.4438 186.257 55.6933C186.506 55.9427 186.646 56.281 186.646 56.6338C186.646 56.9985 186.791 57.3483 187.049 57.6062C187.307 57.8642 187.657 58.009 188.022 58.009C188.386 58.009 188.736 57.8642 188.994 57.6062C189.252 57.3483 189.397 56.9985 189.397 56.6338C189.397 56.281 189.537 55.9427 189.787 55.6933C190.036 55.4438 190.374 55.3037 190.727 55.3037C191.08 55.3037 191.418 55.4438 191.668 55.6933C191.917 55.9427 192.057 56.281 192.057 56.6338C192.056 57.7036 191.63 58.7292 190.874 59.4857C190.117 60.2421 189.092 60.6677 188.022 60.6692" fill="white"/>
<path opacity="0.996" d="M196.151 57.9631C195.798 57.9631 195.46 57.823 195.21 57.5735C194.961 57.3241 194.821 56.9858 194.821 56.633C194.821 56.2683 194.676 55.9185 194.418 55.6606C194.16 55.4027 193.81 55.2578 193.446 55.2578C193.081 55.2578 192.731 55.4027 192.473 55.6606C192.215 55.9185 192.07 56.2683 192.07 56.633C192.07 56.9858 191.93 57.3241 191.681 57.5735C191.431 57.823 191.093 57.9631 190.74 57.9631C190.387 57.9631 190.049 57.823 189.8 57.5735C189.55 57.3241 189.41 56.9858 189.41 56.633C189.41 55.5628 189.835 54.5364 190.592 53.7796C191.349 53.0228 192.375 52.5977 193.446 52.5977C194.516 52.5977 195.542 53.0228 196.299 53.7796C197.056 54.5364 197.481 55.5628 197.481 56.633C197.481 56.9858 197.341 57.3241 197.091 57.5735C196.842 57.823 196.504 57.9631 196.151 57.9631Z" fill="white"/>
<path opacity="0.996" d="M198.867 60.6692C197.796 60.6685 196.77 60.2432 196.012 59.4868C195.255 58.7303 194.828 57.7043 194.826 56.6338C194.826 56.281 194.966 55.9427 195.216 55.6933C195.465 55.4438 195.803 55.3037 196.156 55.3037C196.509 55.3037 196.847 55.4438 197.097 55.6933C197.346 55.9427 197.486 56.281 197.486 56.6338C197.486 56.9992 197.631 57.3497 197.89 57.6081C198.148 57.8665 198.499 58.0117 198.864 58.0117C199.23 58.0117 199.58 57.8665 199.839 57.6081C200.097 57.3497 200.242 56.9992 200.242 56.6338C200.242 56.281 200.382 55.9427 200.632 55.6933C200.881 55.4438 201.219 55.3037 201.572 55.3037C201.925 55.3037 202.263 55.4438 202.513 55.6933C202.762 55.9427 202.902 56.281 202.902 56.6338C202.901 57.7036 202.475 58.7292 201.719 59.4857C200.962 60.2421 199.937 60.6677 198.867 60.6692" fill="white"/>
<path opacity="0.996" d="M206.983 57.9631C206.63 57.9631 206.292 57.823 206.042 57.5735C205.793 57.3241 205.653 56.9858 205.653 56.633C205.653 56.2683 205.508 55.9185 205.25 55.6606C204.992 55.4027 204.642 55.2578 204.278 55.2578C203.913 55.2578 203.563 55.4027 203.305 55.6606C203.047 55.9185 202.902 56.2683 202.902 56.633C202.902 56.9858 202.762 57.3241 202.513 57.5735C202.263 57.823 201.925 57.9631 201.572 57.9631C201.219 57.9631 200.881 57.823 200.632 57.5735C200.382 57.3241 200.242 56.9858 200.242 56.633C200.242 55.5628 200.667 54.5364 201.424 53.7796C202.181 53.0228 203.207 52.5977 204.278 52.5977C205.348 52.5977 206.374 53.0228 207.131 53.7796C207.888 54.5364 208.313 55.5628 208.313 56.633C208.313 56.9858 208.173 57.3241 207.923 57.5735C207.674 57.823 207.336 57.9631 206.983 57.9631Z" fill="white"/>
<path opacity="0.996" d="M209.678 60.6692C208.608 60.6677 207.583 60.2421 206.826 59.4857C206.07 58.7292 205.644 57.7036 205.643 56.6338C205.643 56.281 205.783 55.9427 206.032 55.6933C206.282 55.4438 206.62 55.3037 206.973 55.3037C207.325 55.3037 207.664 55.4438 207.913 55.6933C208.163 55.9427 208.303 56.281 208.303 56.6338C208.318 56.9884 208.47 57.3233 208.727 57.5688C208.983 57.8142 209.324 57.9512 209.679 57.9512C210.034 57.9512 210.376 57.8142 210.632 57.5688C210.888 57.3233 211.04 56.9884 211.056 56.6338C211.056 56.281 211.196 55.9427 211.446 55.6933C211.695 55.4438 212.033 55.3037 212.386 55.3037C212.739 55.3037 213.077 55.4438 213.326 55.6933C213.576 55.9427 213.716 56.281 213.716 56.6338C213.714 57.7038 213.288 58.7294 212.531 59.4858C211.774 60.2422 210.748 60.6678 209.678 60.6692" fill="white"/>
<path opacity="0.996" d="M217.933 57.9627C217.58 57.9627 217.242 57.8226 216.992 57.5732C216.743 57.3237 216.603 56.9854 216.603 56.6327C216.587 56.278 216.435 55.9431 216.179 55.6977C215.922 55.4522 215.581 55.3152 215.226 55.3152C214.871 55.3152 214.53 55.4522 214.273 55.6977C214.017 55.9431 213.865 56.278 213.85 56.6327C213.85 56.9854 213.709 57.3237 213.46 57.5732C213.211 57.8226 212.872 57.9627 212.52 57.9627C212.167 57.9627 211.828 57.8226 211.579 57.5732C211.33 57.3237 211.189 56.9854 211.189 56.6327C211.216 55.58 211.654 54.5795 212.408 53.8446C213.162 53.1096 214.173 52.6982 215.226 52.6982C216.279 52.6982 217.291 53.1096 218.045 53.8446C218.799 54.5795 219.236 55.58 219.263 56.6327C219.263 56.9854 219.123 57.3237 218.873 57.5732C218.624 57.8226 218.286 57.9627 217.933 57.9627Z" fill="white"/>
<path opacity="0.996" d="M220.634 60.6692C219.564 60.6678 218.538 60.2422 217.781 59.4858C217.024 58.7294 216.598 57.7038 216.596 56.6338C216.596 56.281 216.736 55.9427 216.985 55.6933C217.235 55.4438 217.573 55.3037 217.926 55.3037C218.279 55.3037 218.617 55.4438 218.866 55.6933C219.116 55.9427 219.256 56.281 219.256 56.6338C219.271 56.9884 219.423 57.3233 219.68 57.5688C219.936 57.8142 220.277 57.9512 220.632 57.9512C220.987 57.9512 221.329 57.8142 221.585 57.5688C221.842 57.3233 221.993 56.9884 222.009 56.6338C222.009 56.281 222.149 55.9427 222.399 55.6933C222.648 55.4438 222.986 55.3037 223.339 55.3037C223.692 55.3037 224.03 55.4438 224.28 55.6933C224.529 55.9427 224.669 56.281 224.669 56.6338C224.668 57.7036 224.242 58.7292 223.486 59.4857C222.729 60.2421 221.704 60.6677 220.634 60.6692" fill="white"/>
<path opacity="0.996" d="M228.749 57.9631C228.396 57.9631 228.057 57.823 227.808 57.5735C227.559 57.3241 227.418 56.9858 227.418 56.633C227.418 56.2683 227.274 55.9185 227.016 55.6606C226.758 55.4027 226.408 55.2578 226.043 55.2578C225.678 55.2578 225.329 55.4027 225.071 55.6606C224.813 55.9185 224.668 56.2683 224.668 56.633C224.668 56.9858 224.528 57.3241 224.278 57.5735C224.029 57.823 223.691 57.9631 223.338 57.9631C222.985 57.9631 222.647 57.823 222.397 57.5735C222.148 57.3241 222.008 56.9858 222.008 56.633C222.008 55.5628 222.433 54.5364 223.19 53.7796C223.947 53.0228 224.973 52.5977 226.043 52.5977C227.113 52.5977 228.14 53.0228 228.897 53.7796C229.653 54.5364 230.079 55.5628 230.079 56.633C230.079 56.9858 229.938 57.3241 229.689 57.5735C229.44 57.823 229.101 57.9631 228.749 57.9631Z" fill="white"/>
<path opacity="0.996" d="M231.459 60.6692C230.389 60.6677 229.364 60.2421 228.607 59.4857C227.851 58.7292 227.425 57.7036 227.424 56.6338C227.424 56.281 227.564 55.9427 227.813 55.6933C228.063 55.4438 228.401 55.3037 228.754 55.3037C229.107 55.3037 229.445 55.4438 229.694 55.6933C229.944 55.9427 230.084 56.281 230.084 56.6338C230.084 56.9989 230.229 57.349 230.487 57.6072C230.745 57.8653 231.095 58.0104 231.461 58.0104C231.826 58.0104 232.176 57.8653 232.434 57.6072C232.692 57.349 232.837 56.9989 232.837 56.6338C232.837 56.281 232.977 55.9427 233.227 55.6933C233.476 55.4438 233.814 55.3037 234.167 55.3037C234.52 55.3037 234.858 55.4438 235.108 55.6933C235.357 55.9427 235.497 56.281 235.497 56.6338C235.495 57.7038 235.069 58.7294 234.312 59.4858C233.555 60.2422 232.529 60.6678 231.459 60.6692" fill="white"/>
<path opacity="0.996" d="M239.588 57.9631C239.236 57.9631 238.897 57.823 238.648 57.5735C238.398 57.3241 238.258 56.9858 238.258 56.633C238.258 56.2683 238.113 55.9185 237.856 55.6606C237.598 55.4027 237.248 55.2578 236.883 55.2578C236.518 55.2578 236.169 55.4027 235.911 55.6606C235.653 55.9185 235.508 56.2683 235.508 56.633C235.508 56.9858 235.368 57.3241 235.118 57.5735C234.869 57.823 234.53 57.9631 234.178 57.9631C233.825 57.9631 233.487 57.823 233.237 57.5735C232.988 57.3241 232.848 56.9858 232.848 56.633C232.848 55.5628 233.273 54.5364 234.03 53.7796C234.786 53.0228 235.813 52.5977 236.883 52.5977C237.953 52.5977 238.98 53.0228 239.736 53.7796C240.493 54.5364 240.918 55.5628 240.918 56.633C240.918 56.9858 240.778 57.3241 240.529 57.5735C240.279 57.823 239.941 57.9631 239.588 57.9631Z" fill="white"/>
<path opacity="0.996" d="M242.286 60.6692C241.218 60.6642 240.196 60.2371 239.442 59.481C238.689 58.7249 238.265 57.7013 238.264 56.6338C238.264 56.281 238.404 55.9427 238.653 55.6933C238.903 55.4438 239.241 55.3037 239.594 55.3037C239.946 55.3037 240.285 55.4438 240.534 55.6933C240.784 55.9427 240.924 56.281 240.924 56.6338C240.924 56.9989 241.069 57.349 241.327 57.6072C241.585 57.8653 241.935 58.0104 242.3 58.0104C242.666 58.0104 243.016 57.8653 243.274 57.6072C243.532 57.349 243.677 56.9989 243.677 56.6338C243.677 56.281 243.817 55.9427 244.067 55.6933C244.316 55.4438 244.654 55.3037 245.007 55.3037C245.36 55.3037 245.698 55.4438 245.948 55.6933C246.197 55.9427 246.337 56.281 246.337 56.6338C246.335 57.7038 245.909 58.7294 245.152 59.4858C244.395 60.2422 243.369 60.6678 242.299 60.6692" fill="white"/>
<path opacity="0.996" d="M250.536 57.9631C250.183 57.9631 249.845 57.823 249.595 57.5735C249.346 57.3241 249.206 56.9858 249.206 56.6331C249.206 56.2683 249.061 55.9185 248.803 55.6606C248.545 55.4027 248.195 55.2578 247.83 55.2578C247.466 55.2578 247.116 55.4027 246.858 55.6606C246.6 55.9185 246.455 56.2683 246.455 56.6331C246.455 56.9858 246.315 57.3241 246.065 57.5735C245.816 57.823 245.478 57.9631 245.125 57.9631C244.772 57.9631 244.434 57.823 244.185 57.5735C243.935 57.3241 243.795 56.9858 243.795 56.6331C243.795 56.1031 243.899 55.5784 244.102 55.0888C244.305 54.5992 244.602 54.1543 244.977 53.7796C245.352 53.4049 245.796 53.1076 246.286 52.9048C246.776 52.702 247.3 52.5977 247.83 52.5977C248.36 52.5977 248.885 52.702 249.375 52.9048C249.864 53.1076 250.309 53.4049 250.684 53.7796C251.058 54.1543 251.356 54.5992 251.559 55.0888C251.761 55.5784 251.866 56.1031 251.866 56.6331C251.866 56.9858 251.726 57.3241 251.476 57.5735C251.227 57.823 250.888 57.9631 250.536 57.9631Z" fill="white"/>
<path opacity="0.996" d="M253.229 60.6692C252.159 60.6677 251.133 60.2421 250.377 59.4857C249.62 58.7292 249.195 57.7036 249.193 56.6338C249.193 56.281 249.334 55.9427 249.583 55.6933C249.832 55.4438 250.171 55.3037 250.523 55.3037C250.876 55.3037 251.214 55.4438 251.464 55.6933C251.713 55.9427 251.853 56.281 251.853 56.6338C251.869 56.9884 252.021 57.3233 252.277 57.5688C252.534 57.8142 252.875 57.9512 253.23 57.9512C253.585 57.9512 253.926 57.8142 254.183 57.5688C254.439 57.3233 254.591 56.9884 254.607 56.6338C254.607 56.281 254.747 55.9427 254.996 55.6933C255.246 55.4438 255.584 55.3037 255.937 55.3037C256.29 55.3037 256.628 55.4438 256.877 55.6933C257.127 55.9427 257.267 56.281 257.267 56.6338C257.265 57.7038 256.838 58.7294 256.082 59.4858C255.325 60.2422 254.299 60.6678 253.229 60.6692" fill="white"/>
</g>
</g>
</g>
<g filter="url(#filter2_d)">
<g clip-path="url(#clip0)">
<g filter="url(#filter3_d)">
<path d="M360.283 172.639C360.055 172.639 359.83 172.581 359.63 172.47C359.43 172.359 359.262 172.198 359.141 172.004L314.812 100.66C314.624 100.356 314.564 99.9907 314.645 99.6429C314.726 99.2952 314.941 98.9939 315.244 98.8054C315.546 98.6169 315.911 98.5566 316.258 98.6378C316.605 98.7189 316.906 98.9349 317.094 99.2382L361.424 170.582C361.55 170.786 361.62 171.02 361.626 171.26C361.632 171.5 361.573 171.737 361.457 171.947C361.341 172.157 361.171 172.331 360.964 172.453C360.758 172.575 360.523 172.639 360.283 172.639" fill="white"/>
</g>
<g filter="url(#filter4_d)">
<path d="M366.777 168.404C366.777 169.868 366.343 171.299 365.531 172.517C364.72 173.734 363.566 174.683 362.216 175.244C360.866 175.804 359.38 175.951 357.947 175.665C356.514 175.379 355.197 174.674 354.164 173.639C353.131 172.603 352.427 171.284 352.142 169.848C351.857 168.412 352.003 166.923 352.562 165.57C353.122 164.218 354.069 163.061 355.284 162.248C356.499 161.434 357.927 161 359.388 161C360.359 161 361.319 161.192 362.216 161.564C363.112 161.936 363.926 162.481 364.613 163.168C365.299 163.856 365.843 164.672 366.214 165.57C366.585 166.469 366.777 167.431 366.777 168.404" fill="#5DAEFF"/>
</g>
<g filter="url(#filter5_d)">
<path d="M446.262 161.87C447.605 165.909 448.196 174.809 448.196 174.809C448.196 174.809 462.778 172.639 465.266 169.947C467.754 167.255 457.008 157.832 457.008 157.832L446.262 161.87Z" fill="#5DAEFF"/>
</g>
<g filter="url(#filter6_d)">
<path d="M439.866 111.142C424.27 111.142 415.092 121.818 414.875 136.545C415.239 135.814 415.825 135.227 416.542 134.874C417.26 134.522 418.069 134.423 418.846 134.594C419.622 134.764 420.323 135.195 420.841 135.819C421.359 136.443 421.664 137.226 421.711 138.048C421.758 138.87 421.543 139.685 421.1 140.367C420.657 141.05 420.009 141.563 419.257 141.828C418.506 142.092 417.691 142.093 416.938 141.83C416.186 141.568 415.538 141.056 415.093 140.374C416.967 153.658 430.024 163.016 444.63 163.016C460.419 163.016 466.5 152.508 466.5 137.5C466.5 122.492 455.654 111.142 439.866 111.142ZM429.968 137.79C430.06 137.055 430.36 136.364 430.83 135.805C431.3 135.246 431.92 134.845 432.61 134.651C433.301 134.457 434.031 134.48 434.709 134.717C435.386 134.954 435.981 135.394 436.418 135.981C436.855 136.568 437.114 137.276 437.162 138.016C437.211 138.756 437.047 139.495 436.69 140.138C436.334 140.781 435.802 141.3 435.162 141.63C434.521 141.959 433.8 142.085 433.091 141.99C432.62 141.927 432.166 141.768 431.754 141.523C431.342 141.278 430.981 140.951 430.691 140.561C430.401 140.171 430.187 139.726 430.064 139.25C429.94 138.775 429.907 138.279 429.968 137.79ZM420.248 150.954C419.847 150.059 419.77 149.044 420.033 148.095C420.295 147.147 420.879 146.328 421.677 145.79C422.153 145.417 422.55 144.947 422.844 144.409C423.138 143.871 423.322 143.276 423.385 142.661C423.675 141.222 423.655 139.735 423.327 138.305C423 136.874 422.372 135.536 421.489 134.386C421.439 134.324 421.4 134.252 421.377 134.175C421.353 134.098 421.344 134.016 421.351 133.936C421.357 133.855 421.379 133.776 421.415 133.704C421.451 133.632 421.501 133.568 421.56 133.516C421.62 133.463 421.689 133.424 421.764 133.399C421.839 133.374 421.917 133.365 421.995 133.372C422.073 133.379 422.149 133.402 422.218 133.439C422.288 133.476 422.35 133.528 422.4 133.59C423.397 134.883 424.107 136.389 424.479 137.999C424.851 139.61 424.876 141.286 424.552 142.907C424.465 143.708 424.21 144.48 423.805 145.168C423.401 145.856 422.856 146.444 422.21 146.892C421.697 147.285 421.329 147.848 421.166 148.487C421.003 149.127 421.055 149.805 421.314 150.409C421.856 151.558 423.212 151.669 425.134 150.722C425.522 150.504 425.95 150.371 426.39 150.33C426.83 150.289 427.273 150.341 427.693 150.483C428.113 150.625 428.5 150.855 428.832 151.157C429.164 151.459 429.433 151.829 429.623 152.242C429.658 152.315 429.679 152.394 429.684 152.475C429.69 152.556 429.68 152.637 429.655 152.714C429.63 152.791 429.591 152.862 429.54 152.923C429.488 152.985 429.426 153.035 429.356 153.071C429.273 153.113 429.182 153.135 429.089 153.135C428.979 153.135 428.87 153.103 428.776 153.043C428.682 152.983 428.606 152.897 428.557 152.794C428.433 152.527 428.257 152.289 428.041 152.094C427.825 151.9 427.573 151.754 427.3 151.664C427.027 151.575 426.74 151.545 426.455 151.575C426.171 151.605 425.895 151.696 425.646 151.841C421.889 153.693 420.562 151.63 420.244 150.954H420.248ZM443.805 151.72L443.305 152.248C441.85 154.005 440.027 155.393 437.975 156.306C435.923 157.218 433.696 157.63 431.467 157.511C429.428 157.491 427.396 157.263 425.4 156.829C425.324 156.814 425.251 156.782 425.186 156.737C425.121 156.692 425.065 156.634 425.021 156.567C424.978 156.499 424.948 156.424 424.932 156.344C424.917 156.265 424.917 156.183 424.932 156.103C424.948 156.024 424.978 155.948 425.021 155.88C425.065 155.813 425.121 155.755 425.186 155.71C425.251 155.665 425.324 155.634 425.4 155.618C425.477 155.602 425.556 155.602 425.633 155.618C436.412 157.854 440.045 153.964 442.449 151.39L442.963 150.847C443.075 150.734 443.225 150.672 443.382 150.673C443.538 150.675 443.687 150.74 443.798 150.854C443.908 150.969 443.971 151.123 443.972 151.285C443.973 151.447 443.913 151.603 443.805 151.72Z" fill="#5DAEFF"/>
</g>
<g filter="url(#filter7_d)">
<path d="M358.001 177.5C356.657 180.192 353.568 196.869 372.375 211.677C391.181 226.484 411.331 218.407 424.764 210.33C438.197 202.254 457.004 178.024 443.571 172.639C430.137 167.255 423.421 190.139 396.554 195.523C377 200 367.155 184.053 368 171L358.001 177.5Z" fill="white"/>
</g>
<g filter="url(#filter8_d)">
<path d="M465.449 366.206C465.449 366.879 405 366.879 405 366.206C405 356.169 418.531 348.033 435.225 348.033C466.793 348.033 465.449 356.169 465.449 366.206Z" fill="#011A6E"/>
</g>
<g filter="url(#filter9_d)">
<path d="M512.994 366.514C512.994 367.162 469 367.162 469 366.514C469 356.841 480.351 345.5 492.5 345.5C515.475 345.5 512.994 356.841 512.994 366.514Z" fill="#011A6E"/>
</g>
<g filter="url(#filter10_d)">
<path d="M448.231 248.728C442.767 295.354 430.589 344.004 430.589 344.004C430.589 344.004 436.373 353.576 446.271 354.474C452.794 354.821 459.36 353.358 465.509 350.19C465.509 350.19 477.992 295.247 478.22 269.78C478.448 244.314 448.231 248.728 448.231 248.728Z" fill="#002DC1"/>
</g>
<g filter="url(#filter11_d)">
<path d="M441.96 166.916C438.774 168.845 439.783 168.845 437.419 172.568C437.055 173.141 436.554 174.59 437.765 174.967C439.279 175.438 449.022 170.684 460.123 170.213C471.223 169.742 463.655 168.8 461.132 167.858C458.609 166.916 449.206 162.53 441.96 166.916Z" fill="white"/>
</g>
<g filter="url(#filter12_d)">
<path d="M508.486 261.377C513.227 304.959 512.5 343 510 350.5C508.486 355.043 473.843 362.583 471.5 347C471.5 347 473.5 319 473.5 294.5C473.5 278.5 469.474 264.339 469.474 264.339C436.581 257.566 421.125 218.613 426.147 194.222C431.17 169.83 452.787 161.95 481.126 167.785C481.126 167.785 502.041 202.143 508.486 261.377Z" fill="#002DC1"/>
</g>
<path d="M513 217.682C513 247.335 501.5 261.5 474.5 266C439.976 271.754 418 247.335 418 217.682C418 188.03 436.266 165.076 462.5 165.076C491.5 163.449 513 188.03 513 217.682Z" fill="white"/>
<g filter="url(#filter13_d)">
<path d="M452.002 164C443.502 165 444.502 167 447.502 170C448.002 170.5 448.3 171.6 449.5 172C451 172.5 459 168 470 167.5C481 167 473.5 166 471 165C468.5 164 460.502 163 452.002 164Z" fill="white"/>
</g>
<g filter="url(#filter14_d)">
<path d="M411.121 118.999C410.475 124.022 412.157 130.624 422.589 128.159C433.022 125.694 443.78 120.72 445.178 119.627C446.577 118.535 445.082 130.23 454.215 128.032C463.349 125.835 465.08 137.331 466 140C466.92 142.669 469.941 134.153 468.671 128.982C467.4 123.811 458.987 108.793 445.178 106.737C434.148 104.024 412.409 108.954 411.121 118.999Z" fill="#002DC1"/>
</g>
<g filter="url(#filter15_d)">
<path d="M493.804 242.902C493.804 244.465 493.34 245.993 492.472 247.292C491.604 248.591 490.37 249.604 488.926 250.202C487.482 250.8 485.893 250.957 484.36 250.652C482.828 250.347 481.42 249.595 480.314 248.489C479.209 247.384 478.457 245.976 478.152 244.443C477.847 242.911 478.003 241.322 478.601 239.878C479.2 238.434 480.212 237.2 481.512 236.332C482.811 235.463 484.339 235 485.902 235C487.998 235 490.008 235.833 491.489 237.314C492.971 238.796 493.804 240.806 493.804 242.902Z" fill="#5DAEFF"/>
</g>
<g filter="url(#filter16_d)">
<path d="M465.938 134.465C465.747 135.936 465.124 137.317 464.148 138.434C463.172 139.551 461.887 140.354 460.455 140.741C459.023 141.127 457.508 141.081 456.103 140.607C454.697 140.133 453.464 139.252 452.559 138.077C451.653 136.902 451.117 135.485 451.017 134.005C450.917 132.525 451.258 131.049 451.998 129.763C452.737 128.476 453.841 127.438 455.17 126.78C456.499 126.121 457.994 125.872 459.465 126.062C461.437 126.318 463.227 127.347 464.441 128.923C465.655 130.499 466.194 132.492 465.938 134.465" fill="#5DAEFF"/>
</g>
<g filter="url(#filter17_d)">
<path d="M470.434 168.6C464.476 169.38 463.717 198.215 479.837 195.523C495.957 192.831 508.047 196.869 505.36 211.676C502.674 226.483 489.167 233.5 488.5 234.5C486.5 237.5 491.5 246.5 495.5 246.5C499.5 246.5 504.228 246.292 511 242.5C523.5 235.5 535.717 217.537 529 196C522.283 174.462 501.33 164.562 470.434 168.6Z" fill="white"/>
</g>
<g filter="url(#filter18_d)">
<path d="M435 230C434 223 435 188.5 442.5 175C444.667 173 448.4 170.1 446 174.5C443 180 444 215.5 447 227C450 238.5 447.5 242 445 245C442.5 248 445 249 439 243.5C433 238 436 237 435 230Z" fill="#011A6E"/>
</g>
<g filter="url(#filter19_d)">
<path d="M444.501 168.5C446.501 168 447.001 168.5 447.501 172C448.002 173.5 448.5 174.5 447.501 174.5C446.502 174.5 444.001 176 443.001 176C442.001 176 441.501 174.5 442.001 174C442.501 173.5 442.501 169 444.501 168.5Z" fill="#011A6E"/>
</g>
</g>
</g>
</g>
<defs>
<filter id="filter0_i" x="174" y="33" width="386" height="243" filterUnits="userSpaceOnUse" color-interpolation-filters="sRGB">
<feFlood flood-opacity="0" result="BackgroundImageFix"/>
<feBlend mode="normal" in="SourceGraphic" in2="BackgroundImageFix" result="shape"/>
<feColorMatrix in="SourceAlpha" type="matrix" values="0 0 0 0 0 0 0 0 0 0 0 0 0 0 0 0 0 0 127 0" result="hardAlpha"/>
<feOffset dy="4"/>
<feGaussianBlur stdDeviation="2"/>
<feComposite in2="hardAlpha" operator="arithmetic" k2="-1" k3="1"/>
<feColorMatrix type="matrix" values="0 0 0 0 0 0 0 0 0 0 0 0 0 0 0 0 0 0 0.25 0"/>
<feBlend mode="normal" in2="shape" result="effect1_innerShadow"/>
</filter>
<filter id="filter1_i" x="273" y="53" width="196" height="204" filterUnits="userSpaceOnUse" color-interpolation-filters="sRGB">
<feFlood flood-opacity="0" result="BackgroundImageFix"/>
<feBlend mode="normal" in="SourceGraphic" in2="BackgroundImageFix" result="shape"/>
<feColorMatrix in="SourceAlpha" type="matrix" values="0 0 0 0 0 0 0 0 0 0 0 0 0 0 0 0 0 0 127 0" result="hardAlpha"/>
<feOffset dy="4"/>
<feGaussianBlur stdDeviation="2"/>
<feComposite in2="hardAlpha" operator="arithmetic" k2="-1" k3="1"/>
<feColorMatrix type="matrix" values="0 0 0 0 0 0 0 0 0 0 0 0 0 0 0 0 0 0 0.25 0"/>
<feBlend mode="normal" in2="shape" result="effect1_innerShadow"/>
</filter>
<filter id="filter2_d" x="298.994" y="89.1611" width="249.343" height="293.721" filterUnits="userSpaceOnUse" color-interpolation-filters="sRGB">
<feFlood flood-opacity="0" result="BackgroundImageFix"/>
<feColorMatrix in="SourceAlpha" type="matrix" values="0 0 0 0 0 0 0 0 0 0 0 0 0 0 0 0 0 0 127 0"/>
<feOffset dy="3.33803"/>
<feGaussianBlur stdDeviation="1.66902"/>
<feColorMatrix type="matrix" values="0 0 0 0 0 0 0 0 0 0 0 0 0 0 0 0 0 0 0.25 0"/>
<feBlend mode="normal" in2="BackgroundImageFix" result="effect1_dropShadow"/>
<feBlend mode="normal" in="SourceGraphic" in2="effect1_dropShadow" result="shape"/>
</filter>
<filter id="filter3_d" x="311.271" y="98.6025" width="53.6929" height="80.7127" filterUnits="userSpaceOnUse" color-interpolation-filters="sRGB">
<feFlood flood-opacity="0" result="BackgroundImageFix"/>
<feColorMatrix in="SourceAlpha" type="matrix" values="0 0 0 0 0 0 0 0 0 0 0 0 0 0 0 0 0 0 127 0"/>
<feOffset dy="3.33803"/>
<feGaussianBlur stdDeviation="1.66902"/>
<feColorMatrix type="matrix" values="0 0 0 0 0 0 0 0 0 0 0 0 0 0 0 0 0 0 0.25 0"/>
<feBlend mode="normal" in2="BackgroundImageFix" result="effect1_dropShadow"/>
<feBlend mode="normal" in="SourceGraphic" in2="effect1_dropShadow" result="shape"/>
</filter>
<filter id="filter4_d" x="348.662" y="161" width="21.4526" height="21.4833" filterUnits="userSpaceOnUse" color-interpolation-filters="sRGB">
<feFlood flood-opacity="0" result="BackgroundImageFix"/>
<feColorMatrix in="SourceAlpha" type="matrix" values="0 0 0 0 0 0 0 0 0 0 0 0 0 0 0 0 0 0 127 0"/>
<feOffset dy="3.33803"/>
<feGaussianBlur stdDeviation="1.66902"/>
<feColorMatrix type="matrix" values="0 0 0 0 0 0 0 0 0 0 0 0 0 0 0 0 0 0 0.25 0"/>
<feBlend mode="normal" in2="BackgroundImageFix" result="effect1_dropShadow"/>
<feBlend mode="normal" in="SourceGraphic" in2="effect1_dropShadow" result="shape"/>
</filter>
<filter id="filter5_d" x="442.924" y="157.832" width="26.0538" height="23.6533" filterUnits="userSpaceOnUse" color-interpolation-filters="sRGB">
<feFlood flood-opacity="0" result="BackgroundImageFix"/>
<feColorMatrix in="SourceAlpha" type="matrix" values="0 0 0 0 0 0 0 0 0 0 0 0 0 0 0 0 0 0 127 0"/>
<feOffset dy="3.33803"/>
<feGaussianBlur stdDeviation="1.66902"/>
<feColorMatrix type="matrix" values="0 0 0 0 0 0 0 0 0 0 0 0 0 0 0 0 0 0 0.25 0"/>
<feBlend mode="normal" in2="BackgroundImageFix" result="effect1_dropShadow"/>
<feBlend mode="normal" in="SourceGraphic" in2="effect1_dropShadow" result="shape"/>
</filter>
<filter id="filter6_d" x="411.537" y="111.142" width="58.3011" height="58.5505" filterUnits="userSpaceOnUse" color-interpolation-filters="sRGB">
<feFlood flood-opacity="0" result="BackgroundImageFix"/>
<feColorMatrix in="SourceAlpha" type="matrix" values="0 0 0 0 0 0 0 0 0 0 0 0 0 0 0 0 0 0 127 0"/>
<feOffset dy="3.33803"/>
<feGaussianBlur stdDeviation="1.66902"/>
<feColorMatrix type="matrix" values="0 0 0 0 0 0 0 0 0 0 0 0 0 0 0 0 0 0 0.25 0"/>
<feBlend mode="normal" in2="BackgroundImageFix" result="effect1_dropShadow"/>
<feBlend mode="normal" in="SourceGraphic" in2="effect1_dropShadow" result="shape"/>
</filter>
<filter id="filter7_d" x="353.611" y="171" width="97.9189" height="55.6031" filterUnits="userSpaceOnUse" color-interpolation-filters="sRGB">
<feFlood flood-opacity="0" result="BackgroundImageFix"/>
<feColorMatrix in="SourceAlpha" type="matrix" values="0 0 0 0 0 0 0 0 0 0 0 0 0 0 0 0 0 0 127 0"/>
<feOffset dy="3.33803"/>
<feGaussianBlur stdDeviation="1.66902"/>
<feColorMatrix type="matrix" values="0 0 0 0 0 0 0 0 0 0 0 0 0 0 0 0 0 0 0.25 0"/>
<feBlend mode="normal" in2="BackgroundImageFix" result="effect1_dropShadow"/>
<feBlend mode="normal" in="SourceGraphic" in2="effect1_dropShadow" result="shape"/>
</filter>
<filter id="filter8_d" x="401.662" y="348.033" width="67.1338" height="25.3534" filterUnits="userSpaceOnUse" color-interpolation-filters="sRGB">
<feFlood flood-opacity="0" result="BackgroundImageFix"/>
<feColorMatrix in="SourceAlpha" type="matrix" values="0 0 0 0 0 0 0 0 0 0 0 0 0 0 0 0 0 0 127 0"/>
<feOffset dy="3.33803"/>
<feGaussianBlur stdDeviation="1.66902"/>
<feColorMatrix type="matrix" values="0 0 0 0 0 0 0 0 0 0 0 0 0 0 0 0 0 0 0.25 0"/>
<feBlend mode="normal" in2="BackgroundImageFix" result="effect1_dropShadow"/>
<feBlend mode="normal" in="SourceGraphic" in2="effect1_dropShadow" result="shape"/>
</filter>
<filter id="filter9_d" x="465.662" y="345.5" width="50.7483" height="28.1761" filterUnits="userSpaceOnUse" color-interpolation-filters="sRGB">
<feFlood flood-opacity="0" result="BackgroundImageFix"/>
<feColorMatrix in="SourceAlpha" type="matrix" values="0 0 0 0 0 0 0 0 0 0 0 0 0 0 0 0 0 0 127 0"/>
<feOffset dy="3.33803"/>
<feGaussianBlur stdDeviation="1.66902"/>
<feColorMatrix type="matrix" values="0 0 0 0 0 0 0 0 0 0 0 0 0 0 0 0 0 0 0.25 0"/>
<feBlend mode="normal" in2="BackgroundImageFix" result="effect1_dropShadow"/>
<feBlend mode="normal" in="SourceGraphic" in2="effect1_dropShadow" result="shape"/>
</filter>
<filter id="filter10_d" x="426.437" y="247" width="57.2173" height="116.367" filterUnits="userSpaceOnUse" color-interpolation-filters="sRGB">
<feFlood flood-opacity="0" result="BackgroundImageFix"/>
<feColorMatrix in="SourceAlpha" type="matrix" values="0 0 0 0 0 0 0 0 0 0 0 0 0 0 0 0 0 0 127 0"/>
<feOffset dy="3.33803"/>
<feGaussianBlur stdDeviation="1.66902"/>
<feColorMatrix type="matrix" values="0 0 0 0 0 0 0 0 0 0 0 0 0 0 0 0 0 0 0.25 0"/>
<feBlend mode="normal" in2="BackgroundImageFix" result="effect1_dropShadow"/>
<feBlend mode="normal" in="SourceGraphic" in2="effect1_dropShadow" result="shape"/>
</filter>
<filter id="filter11_d" x="433" y="165" width="37" height="18" filterUnits="userSpaceOnUse" color-interpolation-filters="sRGB">
<feFlood flood-opacity="0" result="BackgroundImageFix"/>
<feColorMatrix in="SourceAlpha" type="matrix" values="0 0 0 0 0 0 0 0 0 0 0 0 0 0 0 0 0 0 127 0"/>
<feOffset dy="4"/>
<feGaussianBlur stdDeviation="2"/>
<feColorMatrix type="matrix" values="0 0 0 0 0 0 0 0 0 0 0 0 0 0 0 0 0 0 0.25 0"/>
<feBlend mode="normal" in2="BackgroundImageFix" result="effect1_dropShadow"/>
<feBlend mode="normal" in="SourceGraphic" in2="effect1_dropShadow" result="shape"/>
</filter>
<filter id="filter12_d" x="393.162" y="158" width="155.176" height="209.817" filterUnits="userSpaceOnUse" color-interpolation-filters="sRGB">
<feFlood flood-opacity="0" result="BackgroundImageFix"/>
<feColorMatrix in="SourceAlpha" type="matrix" values="0 0 0 0 0 0 0 0 0 0 0 0 0 0 0 0 0 0 127 0"/>
<feOffset dy="3.33803"/>
<feGaussianBlur stdDeviation="1.66902"/>
<feColorMatrix type="matrix" values="0 0 0 0 0 0 0 0 0 0 0 0 0 0 0 0 0 0 0.25 0"/>
<feBlend mode="normal" in2="BackgroundImageFix" result="effect1_dropShadow"/>
<feBlend mode="normal" in="SourceGraphic" in2="effect1_dropShadow" result="shape"/>
</filter>
<filter id="filter13_d" x="441.336" y="163.586" width="38.4882" height="16.4529" filterUnits="userSpaceOnUse" color-interpolation-filters="sRGB">
<feFlood flood-opacity="0" result="BackgroundImageFix"/>
<feColorMatrix in="SourceAlpha" type="matrix" values="0 0 0 0 0 0 0 0 0 0 0 0 0 0 0 0 0 0 127 0"/>
<feOffset dy="4"/>
<feGaussianBlur stdDeviation="2"/>
<feColorMatrix type="matrix" values="0 0 0 0 0 0 0 0 0 0 0 0 0 0 0 0 0 0 0.25 0"/>
<feBlend mode="normal" in2="BackgroundImageFix" result="effect1_dropShadow"/>
<feBlend mode="normal" in="SourceGraphic" in2="effect1_dropShadow" result="shape"/>
</filter>
<filter id="filter14_d" x="407.662" y="106" width="64.6538" height="41.1818" filterUnits="userSpaceOnUse" color-interpolation-filters="sRGB">
<feFlood flood-opacity="0" result="BackgroundImageFix"/>
<feColorMatrix in="SourceAlpha" type="matrix" values="0 0 0 0 0 0 0 0 0 0 0 0 0 0 0 0 0 0 127 0"/>
<feOffset dy="3.33803"/>
<feGaussianBlur stdDeviation="1.66902"/>
<feColorMatrix type="matrix" values="0 0 0 0 0 0 0 0 0 0 0 0 0 0 0 0 0 0 0.25 0"/>
<feBlend mode="normal" in2="BackgroundImageFix" result="effect1_dropShadow"/>
<feBlend mode="normal" in="SourceGraphic" in2="effect1_dropShadow" result="shape"/>
</filter>
<filter id="filter15_d" x="474.662" y="235" width="22.4799" height="22.4799" filterUnits="userSpaceOnUse" color-interpolation-filters="sRGB">
<feFlood flood-opacity="0" result="BackgroundImageFix"/>
<feColorMatrix in="SourceAlpha" type="matrix" values="0 0 0 0 0 0 0 0 0 0 0 0 0 0 0 0 0 0 127 0"/>
<feOffset dy="3.33803"/>
<feGaussianBlur stdDeviation="1.66902"/>
<feColorMatrix type="matrix" values="0 0 0 0 0 0 0 0 0 0 0 0 0 0 0 0 0 0 0.25 0"/>
<feBlend mode="normal" in2="BackgroundImageFix" result="effect1_dropShadow"/>
<feBlend mode="normal" in="SourceGraphic" in2="effect1_dropShadow" result="shape"/>
</filter>
<filter id="filter16_d" x="447.662" y="126" width="21.6761" height="21.6761" filterUnits="userSpaceOnUse" color-interpolation-filters="sRGB">
<feFlood flood-opacity="0" result="BackgroundImageFix"/>
<feColorMatrix in="SourceAlpha" type="matrix" values="0 0 0 0 0 0 0 0 0 0 0 0 0 0 0 0 0 0 127 0"/>
<feOffset dy="3.33803"/>
<feGaussianBlur stdDeviation="1.66902"/>
<feColorMatrix type="matrix" values="0 0 0 0 0 0 0 0 0 0 0 0 0 0 0 0 0 0 0.25 0"/>
<feBlend mode="normal" in2="BackgroundImageFix" result="effect1_dropShadow"/>
<feBlend mode="normal" in="SourceGraphic" in2="effect1_dropShadow" result="shape"/>
</filter>
<filter id="filter17_d" x="463.189" y="167.716" width="71.0565" height="85.4599" filterUnits="userSpaceOnUse" color-interpolation-filters="sRGB">
<feFlood flood-opacity="0" result="BackgroundImageFix"/>
<feColorMatrix in="SourceAlpha" type="matrix" values="0 0 0 0 0 0 0 0 0 0 0 0 0 0 0 0 0 0 127 0"/>
<feOffset dy="3.33803"/>
<feGaussianBlur stdDeviation="1.66902"/>
<feColorMatrix type="matrix" values="0 0 0 0 0 0 0 0 0 0 0 0 0 0 0 0 0 0 0.25 0"/>
<feBlend mode="normal" in2="BackgroundImageFix" result="effect1_dropShadow"/>
<feBlend mode="normal" in="SourceGraphic" in2="effect1_dropShadow" result="shape"/>
</filter>
<filter id="filter18_d" x="430.676" y="172.196" width="21.6952" height="83.2441" filterUnits="userSpaceOnUse" color-interpolation-filters="sRGB">
<feFlood flood-opacity="0" result="BackgroundImageFix"/>
<feColorMatrix in="SourceAlpha" type="matrix" values="0 0 0 0 0 0 0 0 0 0 0 0 0 0 0 0 0 0 127 0"/>
<feOffset dy="4"/>
<feGaussianBlur stdDeviation="2"/>
<feColorMatrix type="matrix" values="0 0 0 0 0 0 0 0 0 0 0 0 0 0 0 0 0 0 0.25 0"/>
<feBlend mode="normal" in2="BackgroundImageFix" result="effect1_dropShadow"/>
<feBlend mode="normal" in="SourceGraphic" in2="effect1_dropShadow" result="shape"/>
</filter>
<filter id="filter19_d" x="437.805" y="168.336" width="14.2734" height="15.6642" filterUnits="userSpaceOnUse" color-interpolation-filters="sRGB">
<feFlood flood-opacity="0" result="BackgroundImageFix"/>
<feColorMatrix in="SourceAlpha" type="matrix" values="0 0 0 0 0 0 0 0 0 0 0 0 0 0 0 0 0 0 127 0"/>
<feOffset dy="4"/>
<feGaussianBlur stdDeviation="2"/>
<feColorMatrix type="matrix" values="0 0 0 0 0 0 0 0 0 0 0 0 0 0 0 0 0 0 0.25 0"/>
<feBlend mode="normal" in2="BackgroundImageFix" result="effect1_dropShadow"/>
<feBlend mode="normal" in="SourceGraphic" in2="effect1_dropShadow" result="shape"/>
</filter>
<linearGradient id="paint0_linear" x1="296" y1="0" x2="296" y2="363" gradientUnits="userSpaceOnUse">
<stop stop-color="#0340FF"/>
<stop offset="1" stop-color="#369AFF"/>
</linearGradient>
<clipPath id="clip0">
<rect x="302.332" y="89.1611" width="242.667" height="287.045" rx="12.5176" fill="white"/>
</clipPath>
</defs>
</svg>
